<svg width="448" height="138" viewBox="0 0 448 138" fill="none" xmlns="http://www.w3.org/2000/svg">
<path d="M2.69 59.99V7.03003H23.66C28.39 7.03003 32.15 8.36003 34.96 11.03C37.77 13.7 39.17 17.31 39.17 21.86C39.17 23.84 38.61 25.76 37.5 27.6C36.38 29.44 34.63 30.84 32.23 31.8C35.35 32.62 37.74 34.21 39.41 36.58C41.08 38.95 41.91 41.35 41.91 43.78C41.91 48.31 40.38 52.14 37.33 55.28C34.27 58.42 30.22 59.99 25.18 59.99H2.69ZM13.92 28.12H22.76C24.22 28.12 25.41 27.6 26.34 26.55C27.27 25.51 27.73 24.18 27.73 22.58C27.73 20.85 27.3 19.48 26.43 18.46C25.56 17.44 24.32 16.93 22.69 16.93H13.92V28.12ZM13.92 50.08H24.79C26.57 50.08 27.96 49.42 28.97 48.11C29.97 46.8 30.47 45.28 30.47 43.55C30.47 41.9 29.95 40.43 28.91 39.16C27.87 37.88 26.42 37.25 24.56 37.25H13.91V50.08H13.92Z" fill="#003581"/>
<path d="M50.72 51.8C49.03 48.92 48.19 45.6401 48.19 41.9901C48.19 38.3301 49.03 35.0701 50.72 32.2001C52.41 29.3301 54.67 27.13 57.51 25.61C60.35 24.09 63.48 23.3201 66.91 23.3201C69.44 23.3201 71.83 23.7801 74.08 24.7101C76.33 25.6401 78.28 26.9101 79.94 28.5401C81.59 30.1701 82.9 32.1601 83.86 34.5301C84.82 36.9001 85.31 39.4701 85.31 42.2401C85.31 43.1901 85.26 44.2901 85.16 45.5401H58.85C59.1 47.4901 60.11 48.9901 61.87 50.0401C63.63 51.0901 65.58 51.6201 67.71 51.6201C69.26 51.6201 70.74 51.3301 72.16 50.7501C73.58 50.1701 74.71 49.3201 75.56 48.2001L83.33 53.5201C81.65 56 79.34 57.8301 76.39 58.9901C73.44 60.16 70.28 60.7401 66.93 60.7401C63.5 60.7401 60.37 59.9701 57.53 58.4401C54.67 56.9001 52.41 54.69 50.72 51.8ZM58.99 38.86H74.53C74.28 36.91 73.4 35.4301 71.88 34.4301C70.37 33.4301 68.73 32.9301 66.98 32.9301C65.23 32.9301 63.56 33.4201 61.99 34.3901C60.42 35.3701 59.42 36.86 58.99 38.86Z" fill="#003581"/>
<path d="M89.13 32.55V24.1001H95.66V10.3201H106.28V24.1001H113.82V32.55H106.28V59.9901H95.66V32.55H89.13Z" fill="#003581"/>
<path d="M117.17 32.55V24.1001H123.7V10.3201H134.32V24.1001H141.86V32.55H134.32V59.9901H123.7V32.55H117.17Z" fill="#003581"/>
<path d="M148.23 51.8C146.54 48.92 145.7 45.6401 145.7 41.9901C145.7 38.3301 146.54 35.0701 148.23 32.2001C149.92 29.3301 152.18 27.13 155.02 25.61C157.86 24.09 160.99 23.3201 164.42 23.3201C166.95 23.3201 169.34 23.7801 171.59 24.7101C173.84 25.6401 175.79 26.9101 177.45 28.5401C179.1 30.1701 180.41 32.1601 181.37 34.5301C182.33 36.9001 182.82 39.4701 182.82 42.2401C182.82 43.1901 182.77 44.2901 182.67 45.5401H156.36C156.61 47.4901 157.62 48.9901 159.38 50.0401C161.14 51.0901 163.09 51.6201 165.22 51.6201C166.77 51.6201 168.25 51.3301 169.67 50.7501C171.09 50.1701 172.22 49.3201 173.07 48.2001L180.84 53.5201C179.16 56 176.85 57.8301 173.9 58.9901C170.95 60.16 167.79 60.7401 164.44 60.7401C161.01 60.7401 157.88 59.9701 155.04 58.4401C152.19 56.9001 149.92 54.69 148.23 51.8ZM156.51 38.86H172.05C171.8 36.91 170.92 35.4301 169.4 34.4301C167.89 33.4301 166.25 32.9301 164.5 32.9301C162.75 32.9301 161.08 33.4201 159.51 34.3901C157.94 35.3701 156.94 36.86 156.51 38.86Z" fill="#003581"/>
<path d="M190.1 59.9901V24.1101H200.72V32.7101C201.57 29.6301 202.96 27.3001 204.89 25.7101C206.82 24.1201 208.81 23.3301 210.86 23.3301C213.26 23.3301 215.31 23.7701 217.02 24.6401L215.11 34.1801C213.63 33.4501 211.81 33.0901 209.63 33.0901C206.58 33.0901 204.33 34.2801 202.89 36.6701C201.45 39.0501 200.73 42.6401 200.73 47.4301V60.0001H190.1V59.9901Z" fill="#003581"/>
<path d="M238.03 44.4501H249.33C249.41 46.2201 250.14 47.7101 251.53 48.9101C252.92 50.1101 254.83 50.7201 257.25 50.7201C259.55 50.7201 261.42 50.2201 262.84 49.2101C264.27 48.2001 264.99 46.8601 265.02 45.1701C265.07 43.8501 264.64 42.7101 263.75 41.7401C262.85 40.7701 261.15 39.9301 258.65 39.2101L252.33 37.33C243.15 34.51 238.57 29.4501 238.57 22.1501C238.57 17.5201 240.32 13.7401 243.82 10.8201C247.32 7.89007 251.65 6.43005 256.81 6.43005C262.02 6.43005 266.3 7.89007 269.64 10.8201C272.98 13.7501 274.65 17.6901 274.65 22.6401H263.49C263.49 20.8201 262.9 19.3501 261.71 18.2301C260.52 17.1201 258.84 16.5601 256.66 16.5601C254.68 16.5601 253.04 17.0501 251.74 18.0301C250.44 19.0101 249.79 20.2701 249.79 21.8101C249.79 24.3201 251.71 26.1001 255.54 27.1701L261.87 29.05C271.76 31.99 276.56 37.3801 276.26 45.2301C276.23 47.8001 275.67 50.1001 274.56 52.1401C273.45 54.1801 271.99 55.81 270.19 57.05C268.38 58.28 266.38 59.2301 264.17 59.8801C261.96 60.5301 259.67 60.86 257.27 60.86C251.54 60.86 246.9 59.3301 243.36 56.2601C239.81 53.1901 238.03 49.2501 238.03 44.4501Z" fill="#003581"/>
<path d="M284.28 59.9901V4.55005H294.9V59.9901H284.28Z" fill="#003581"/>
<path d="M305.17 51.8C303.48 48.92 302.64 45.6401 302.64 41.9901C302.64 38.3301 303.48 35.0701 305.17 32.2001C306.86 29.3301 309.12 27.13 311.96 25.61C314.8 24.09 317.93 23.3201 321.36 23.3201C323.89 23.3201 326.28 23.7801 328.53 24.7101C330.78 25.6401 332.73 26.9101 334.39 28.5401C336.04 30.1701 337.35 32.1601 338.31 34.5301C339.27 36.9001 339.76 39.4701 339.76 42.2401C339.76 43.1901 339.71 44.2901 339.61 45.5401H313.3C313.55 47.4901 314.56 48.9901 316.32 50.0401C318.08 51.0901 320.03 51.6201 322.16 51.6201C323.71 51.6201 325.19 51.3301 326.61 50.7501C328.03 50.1701 329.16 49.3201 330.01 48.2001L337.78 53.5201C336.1 56 333.79 57.8301 330.84 58.9901C327.89 60.16 324.73 60.7401 321.38 60.7401C317.95 60.7401 314.82 59.9701 311.98 58.4401C309.12 56.9001 306.86 54.69 305.17 51.8ZM313.44 38.86H328.98C328.73 36.91 327.85 35.4301 326.33 34.4301C324.82 33.4301 323.18 32.9301 321.43 32.9301C319.68 32.9301 318.01 33.4201 316.44 34.3901C314.87 35.3701 313.87 36.86 313.44 38.86Z" fill="#003581"/>
<path d="M347.43 51.8C345.74 48.92 344.9 45.6401 344.9 41.9901C344.9 38.3301 345.74 35.0701 347.43 32.2001C349.12 29.3301 351.38 27.13 354.22 25.61C357.06 24.09 360.19 23.3201 363.62 23.3201C366.15 23.3201 368.54 23.7801 370.79 24.7101C373.04 25.6401 374.99 26.9101 376.65 28.5401C378.3 30.1701 379.61 32.1601 380.57 34.5301C381.53 36.9001 382.02 39.4701 382.02 42.2401C382.02 43.1901 381.97 44.2901 381.87 45.5401H355.56C355.81 47.4901 356.82 48.9901 358.58 50.0401C360.34 51.0901 362.29 51.6201 364.42 51.6201C365.97 51.6201 367.45 51.3301 368.87 50.7501C370.29 50.1701 371.42 49.3201 372.27 48.2001L380.04 53.5201C378.36 56 376.05 57.8301 373.1 58.9901C370.15 60.16 366.99 60.7401 363.64 60.7401C360.21 60.7401 357.08 59.9701 354.24 58.4401C351.38 56.9001 349.12 54.69 347.43 51.8ZM355.71 38.86H371.25C371 36.91 370.12 35.4301 368.6 34.4301C367.09 33.4301 365.45 32.9301 363.7 32.9301C361.95 32.9301 360.28 33.4201 358.71 34.3901C357.13 35.3701 356.13 36.86 355.71 38.86Z" fill="#003581"/>
<path d="M389.3 77.5901V24.1001H399.92V28.5301C400.8 26.9001 402.2 25.6301 404.12 24.7001C406.04 23.7701 408.15 23.3101 410.43 23.3101C412.73 23.3101 414.93 23.7501 417.04 24.6401C419.14 25.5301 420.99 26.7601 422.58 28.3501C424.17 29.9401 425.44 31.9001 426.39 34.2501C427.34 36.6001 427.82 39.1501 427.82 41.8901C427.82 44.7001 427.34 47.3001 426.39 49.6901C425.44 52.0801 424.17 54.0801 422.58 55.6701C420.99 57.2601 419.15 58.5001 417.04 59.3901C414.94 60.2801 412.74 60.7201 410.43 60.7201C408.12 60.7201 406.01 60.2601 404.09 59.3401C402.16 58.4201 400.77 57.1501 399.92 55.5401V77.5701H389.3V77.5901ZM400.15 42.1201C400.15 44.6901 400.96 46.7401 402.57 48.2901C404.18 49.8401 406.14 50.61 408.44 50.61C410.77 50.61 412.73 49.8301 414.33 48.2601C415.93 46.6901 416.73 44.6501 416.73 42.1301C416.73 39.5601 415.93 37.4801 414.33 35.8701C412.73 34.2601 410.76 33.4601 408.44 33.4601C406.16 33.4601 404.21 34.2801 402.58 35.9101C400.95 37.5401 400.15 39.6101 400.15 42.1201Z" fill="#003581"/>
<path d="M430.7 67.7601C432.48 65.3101 433.93 62.2801 435.05 58.6801C436.17 55.0801 436.73 51.4601 436.7 47.8301H447.47C447.44 50.6801 447.1 53.3801 446.44 55.9401C445.78 58.4901 444.91 60.6901 443.83 62.5501C442.75 64.4001 441.71 65.9401 440.7 67.1701C439.69 68.4001 438.66 69.4601 437.59 70.3601L430.7 67.7601Z" fill="#003581"/>
<path d="M28.68 137.24V84.28H49.65C54.38 84.28 58.14 85.61 60.95 88.28C63.76 90.95 65.16 94.56 65.16 99.11C65.16 101.09 64.6 103.01 63.49 104.85C62.37 106.69 60.62 108.09 58.22 109.05C61.34 109.87 63.73 111.46 65.4 113.83C67.07 116.2 67.9 118.6 67.9 121.03C67.9 125.56 66.37 129.39 63.32 132.53C60.26 135.67 56.21 137.24 51.17 137.24H28.68ZM39.91 105.38H48.75C50.21 105.38 51.4 104.86 52.33 103.81C53.26 102.77 53.72 101.44 53.72 99.84C53.72 98.11 53.29 96.74 52.42 95.72C51.55 94.7 50.31 94.19 48.68 94.19H39.91V105.38ZM39.91 127.33H50.78C52.56 127.33 53.95 126.67 54.96 125.36C55.96 124.05 56.46 122.53 56.46 120.8C56.46 119.15 55.94 117.68 54.9 116.41C53.86 115.13 52.41 114.5 50.55 114.5H39.9V127.33H39.91Z" fill="#003581"/>
<path d="M76.71 129.06C75.02 126.18 74.18 122.9 74.18 119.25C74.18 115.59 75.02 112.33 76.71 109.46C78.4 106.59 80.66 104.39 83.5 102.87C86.34 101.35 89.47 100.58 92.9 100.58C95.43 100.58 97.82 101.04 100.07 101.97C102.32 102.9 104.27 104.17 105.93 105.8C107.58 107.43 108.89 109.42 109.85 111.79C110.81 114.16 111.3 116.73 111.3 119.5C111.3 120.45 111.25 121.55 111.15 122.8H84.84C85.09 124.75 86.1 126.25 87.86 127.3C89.62 128.35 91.57 128.88 93.7 128.88C95.25 128.88 96.73 128.59 98.15 128.01C99.57 127.43 100.7 126.58 101.55 125.46L109.32 130.78C107.64 133.26 105.33 135.09 102.38 136.25C99.43 137.42 96.27 138 92.92 138C89.49 138 86.36 137.23 83.52 135.7C80.66 134.15 78.4 131.94 76.71 129.06ZM84.99 116.11H100.53C100.28 114.16 99.4 112.68 97.88 111.68C96.37 110.68 94.73 110.18 92.98 110.18C91.23 110.18 89.56 110.67 87.99 111.64C86.41 112.62 85.41 114.11 84.99 116.11Z" fill="#003581"/>
<path d="M115.13 109.81V101.36H121.66V87.5801H132.28V101.36H139.82V109.81H132.28V137.25H121.66V109.81H115.13Z" fill="#003581"/>
<path d="M143.16 109.81V101.36H149.69V87.5801H160.31V101.36H167.85V109.81H160.31V137.25H149.7V109.81H143.16Z" fill="#003581"/>
<path d="M174.23 129.06C172.54 126.18 171.7 122.9 171.7 119.25C171.7 115.59 172.54 112.33 174.23 109.46C175.92 106.59 178.18 104.39 181.02 102.87C183.86 101.35 186.99 100.58 190.42 100.58C192.95 100.58 195.34 101.04 197.59 101.97C199.84 102.9 201.79 104.17 203.45 105.8C205.1 107.43 206.41 109.42 207.37 111.79C208.33 114.16 208.82 116.73 208.82 119.5C208.82 120.45 208.77 121.55 208.67 122.8H182.36C182.61 124.75 183.62 126.25 185.38 127.3C187.14 128.35 189.09 128.88 191.22 128.88C192.77 128.88 194.25 128.59 195.67 128.01C197.09 127.43 198.22 126.58 199.07 125.46L206.84 130.78C205.16 133.26 202.85 135.09 199.9 136.25C196.95 137.42 193.79 138 190.44 138C187.01 138 183.88 137.23 181.04 135.7C178.18 134.15 175.91 131.94 174.23 129.06ZM182.5 116.11H198.04C197.79 114.16 196.91 112.68 195.39 111.68C193.88 110.68 192.24 110.18 190.49 110.18C188.74 110.18 187.07 110.67 185.5 111.64C183.93 112.62 182.93 114.11 182.5 116.11Z" fill="#003581"/>
<path d="M216.1 137.24V101.36H226.72V109.96C227.57 106.88 228.96 104.55 230.89 102.96C232.82 101.37 234.81 100.58 236.86 100.58C239.26 100.58 241.31 101.02 243.02 101.89L241.11 111.43C239.63 110.7 237.81 110.34 235.63 110.34C232.58 110.34 230.33 111.53 228.89 113.92C227.45 116.3 226.73 119.89 226.73 124.68V137.25H216.1V137.24Z" fill="#003581"/>
<path d="M274.99 84.28H288.39L301.15 104.1L314.06 84.28H327.42L306.89 113.41V137.24H295.44V113.26L274.99 84.28Z" fill="#003581"/>
<path d="M321.27 119.17C321.27 115.52 322.12 112.26 323.81 109.4C325.5 106.54 327.76 104.35 330.58 102.84C333.4 101.33 336.5 100.57 339.87 100.57C343.24 100.57 346.34 101.33 349.16 102.85C351.99 104.37 354.26 106.57 355.97 109.45C357.68 112.33 358.54 115.57 358.54 119.16C358.54 122.75 357.68 126 355.97 128.9C354.26 131.8 351.99 134.01 349.16 135.54C346.33 137.07 343.24 137.83 339.87 137.83C336.5 137.83 333.4 137.07 330.58 135.56C327.76 134.04 325.5 131.85 323.81 128.98C322.11 126.13 321.27 122.85 321.27 119.17ZM331.82 119.17C331.82 121.56 332.6 123.5 334.16 125C335.72 126.5 337.62 127.25 339.87 127.25C342.17 127.25 344.1 126.5 345.66 125.02C347.22 123.53 348 121.58 348 119.17C348 116.83 347.21 114.91 345.64 113.41C344.07 111.91 342.15 111.16 339.87 111.16C337.62 111.16 335.72 111.91 334.16 113.41C332.59 114.91 331.82 116.83 331.82 119.17Z" fill="#003581"/>
<path d="M365.82 122.79V101.36H376.44V120.67C376.44 122.03 376.65 123.21 377.06 124.21C377.47 125.21 378.02 125.95 378.7 126.44C379.38 126.93 380.05 127.29 380.73 127.52C381.41 127.75 382.1 127.86 382.8 127.86C384.66 127.86 386.21 127.27 387.45 126.08C388.69 124.89 389.31 123.03 389.31 120.48V101.36H399.93V137.24H389.31V132.44C388.38 134.16 387.05 135.51 385.3 136.5C383.56 137.49 381.78 137.99 379.97 137.99C375.76 137.99 372.35 136.69 369.73 134.09C367.13 131.49 365.82 127.72 365.82 122.79Z" fill="#003581"/>
<path d="M409.02 131.54C409.02 129.71 409.66 128.19 410.95 126.98C412.24 125.77 413.8 125.16 415.62 125.16C417.45 125.16 419.02 125.77 420.33 127C421.64 128.23 422.3 129.74 422.3 131.54C422.3 133.39 421.64 134.93 420.33 136.16C419.02 137.39 417.45 138 415.62 138C413.79 138 412.24 137.39 410.95 136.16C409.67 134.93 409.02 133.39 409.02 131.54Z" fill="#003581"/>
<path d="M0.380005 56.31V3.34998H21.35C26.08 3.34998 29.84 4.67998 32.65 7.34998C35.46 10.02 36.86 13.63 36.86 18.18C36.86 20.16 36.3 22.08 35.19 23.92C34.07 25.76 32.32 27.16 29.92 28.12C33.04 28.94 35.43 30.53 37.1 32.9C38.77 35.27 39.6 37.67 39.6 40.1C39.6 44.63 38.07 48.46 35.02 51.6C31.96 54.74 27.91 56.31 22.87 56.31H0.380005ZM11.61 24.44H20.45C21.91 24.44 23.1 23.92 24.03 22.87C24.96 21.83 25.42 20.5 25.42 18.9C25.42 17.17 24.99 15.8 24.12 14.78C23.25 13.76 22.01 13.25 20.38 13.25H11.61V24.44ZM11.61 46.4H22.48C24.26 46.4 25.65 45.74 26.66 44.43C27.66 43.12 28.16 41.6 28.16 39.87C28.16 38.22 27.64 36.75 26.6 35.48C25.56 34.2 24.11 33.57 22.25 33.57H11.6V46.4H11.61Z" fill="white"/>
<path d="M48.41 48.12C46.72 45.24 45.88 41.96 45.88 38.31C45.88 34.65 46.72 31.39 48.41 28.52C50.1 25.65 52.36 23.45 55.2 21.93C58.04 20.41 61.17 19.64 64.6 19.64C67.13 19.64 69.52 20.1 71.77 21.03C74.02 21.96 75.97 23.23 77.63 24.86C79.28 26.49 80.59 28.48 81.55 30.85C82.51 33.22 83 35.79 83 38.56C83 39.51 82.95 40.61 82.85 41.86H56.54C56.79 43.81 57.8 45.31 59.56 46.36C61.32 47.41 63.27 47.94 65.4 47.94C66.95 47.94 68.43 47.65 69.85 47.07C71.27 46.49 72.4 45.64 73.25 44.52L81.02 49.84C79.34 52.32 77.03 54.15 74.08 55.31C71.13 56.48 67.97 57.06 64.62 57.06C61.19 57.06 58.06 56.29 55.22 54.76C52.36 53.22 50.1 51.01 48.41 48.12ZM56.69 35.17H72.23C71.98 33.22 71.1 31.74 69.58 30.74C68.07 29.74 66.43 29.24 64.68 29.24C62.93 29.24 61.26 29.73 59.69 30.7C58.11 31.68 57.11 33.17 56.69 35.17Z" fill="white"/>
<path d="M86.82 28.87V20.42H93.35V6.64001H103.97V20.42H111.51V28.87H103.97V56.31H93.35V28.87H86.82Z" fill="white"/>
<path d="M114.86 28.87V20.42H121.39V6.64001H132.01V20.42H139.55V28.87H132.01V56.31H121.39V28.87H114.86Z" fill="white"/>
<path d="M145.92 48.12C144.23 45.24 143.39 41.96 143.39 38.31C143.39 34.65 144.23 31.39 145.92 28.52C147.61 25.65 149.87 23.45 152.71 21.93C155.55 20.41 158.68 19.64 162.11 19.64C164.64 19.64 167.03 20.1 169.28 21.03C171.53 21.96 173.48 23.23 175.14 24.86C176.79 26.49 178.1 28.48 179.06 30.85C180.02 33.22 180.51 35.79 180.51 38.56C180.51 39.51 180.46 40.61 180.36 41.86H154.05C154.3 43.81 155.31 45.31 157.07 46.36C158.83 47.41 160.78 47.94 162.91 47.94C164.46 47.94 165.94 47.65 167.36 47.07C168.78 46.49 169.91 45.64 170.76 44.52L178.53 49.84C176.85 52.32 174.54 54.15 171.59 55.31C168.64 56.48 165.48 57.06 162.13 57.06C158.7 57.06 155.57 56.29 152.73 54.76C149.88 53.22 147.61 51.01 145.92 48.12ZM154.2 35.17H169.74C169.49 33.22 168.61 31.74 167.09 30.74C165.58 29.74 163.94 29.24 162.19 29.24C160.44 29.24 158.77 29.73 157.2 30.7C155.63 31.68 154.63 33.17 154.2 35.17Z" fill="white"/>
<path d="M187.79 56.31V20.43H198.41V29.03C199.26 25.95 200.65 23.62 202.58 22.03C204.51 20.44 206.5 19.65 208.55 19.65C210.95 19.65 213 20.09 214.71 20.96L212.8 30.5C211.32 29.77 209.5 29.41 207.32 29.41C204.27 29.41 202.02 30.6 200.58 32.99C199.14 35.37 198.42 38.96 198.42 43.75V56.32H187.79V56.31Z" fill="white"/>
<path d="M235.73 40.77H247.03C247.11 42.54 247.84 44.03 249.23 45.23C250.62 46.43 252.53 47.04 254.95 47.04C257.25 47.04 259.12 46.54 260.54 45.53C261.97 44.52 262.69 43.18 262.72 41.49C262.77 40.17 262.34 39.03 261.45 38.06C260.55 37.09 258.85 36.25 256.35 35.53L250.03 33.65C240.85 30.83 236.27 25.77 236.27 18.47C236.27 13.84 238.02 10.06 241.52 7.14001C245.02 4.21001 249.35 2.75 254.51 2.75C259.72 2.75 264 4.21001 267.34 7.14001C270.68 10.07 272.35 14.01 272.35 18.96H261.19C261.19 17.14 260.6 15.67 259.41 14.55C258.22 13.44 256.54 12.88 254.36 12.88C252.38 12.88 250.74 13.37 249.44 14.35C248.14 15.33 247.49 16.59 247.49 18.13C247.49 20.64 249.41 22.42 253.24 23.49L259.57 25.37C269.46 28.31 274.26 33.7 273.96 41.55C273.93 44.12 273.37 46.42 272.26 48.46C271.15 50.5 269.69 52.13 267.89 53.37C266.08 54.6 264.08 55.55 261.87 56.2C259.66 56.85 257.37 57.18 254.97 57.18C249.24 57.18 244.6 55.65 241.06 52.58C237.5 49.51 235.73 45.57 235.73 40.77Z" fill="white"/>
<path d="M281.97 56.31V0.869995H292.59V56.31H281.97Z" fill="white"/>
<path d="M302.86 48.12C301.17 45.24 300.33 41.96 300.33 38.31C300.33 34.65 301.17 31.39 302.86 28.52C304.55 25.65 306.81 23.45 309.65 21.93C312.49 20.41 315.62 19.64 319.05 19.64C321.58 19.64 323.97 20.1 326.22 21.03C328.47 21.96 330.42 23.23 332.08 24.86C333.73 26.49 335.04 28.48 336 30.85C336.96 33.22 337.45 35.79 337.45 38.56C337.45 39.51 337.4 40.61 337.3 41.86H310.99C311.24 43.81 312.25 45.31 314.01 46.36C315.77 47.41 317.72 47.94 319.85 47.94C321.4 47.94 322.88 47.65 324.3 47.07C325.72 46.49 326.85 45.64 327.7 44.52L335.47 49.84C333.79 52.32 331.48 54.15 328.53 55.31C325.58 56.48 322.42 57.06 319.07 57.06C315.64 57.06 312.51 56.29 309.67 54.76C306.81 53.22 304.55 51.01 302.86 48.12ZM311.13 35.17H326.67C326.42 33.22 325.54 31.74 324.02 30.74C322.51 29.74 320.87 29.24 319.12 29.24C317.37 29.24 315.7 29.73 314.13 30.7C312.56 31.68 311.56 33.17 311.13 35.17Z" fill="white"/>
<path d="M345.12 48.12C343.43 45.24 342.59 41.96 342.59 38.31C342.59 34.65 343.43 31.39 345.12 28.52C346.81 25.65 349.07 23.45 351.91 21.93C354.75 20.41 357.88 19.64 361.31 19.64C363.84 19.64 366.23 20.1 368.48 21.03C370.73 21.96 372.68 23.23 374.34 24.86C375.99 26.49 377.3 28.48 378.26 30.85C379.22 33.22 379.71 35.79 379.71 38.56C379.71 39.51 379.66 40.61 379.56 41.86H353.25C353.5 43.81 354.51 45.31 356.27 46.36C358.03 47.41 359.98 47.94 362.11 47.94C363.66 47.94 365.14 47.65 366.56 47.07C367.98 46.49 369.11 45.64 369.96 44.52L377.73 49.84C376.05 52.32 373.74 54.15 370.79 55.31C367.84 56.48 364.68 57.06 361.33 57.06C357.9 57.06 354.77 56.29 351.93 54.76C349.07 53.22 346.81 51.01 345.12 48.12ZM353.4 35.17H368.94C368.69 33.22 367.81 31.74 366.29 30.74C364.78 29.74 363.14 29.24 361.39 29.24C359.64 29.24 357.97 29.73 356.4 30.7C354.82 31.68 353.82 33.17 353.4 35.17Z" fill="white"/>
<path d="M386.99 73.91V20.42H397.61V24.85C398.49 23.22 399.89 21.95 401.81 21.02C403.73 20.09 405.84 19.63 408.12 19.63C410.42 19.63 412.62 20.07 414.73 20.96C416.83 21.85 418.68 23.08 420.27 24.67C421.86 26.26 423.13 28.22 424.08 30.57C425.03 32.92 425.51 35.47 425.51 38.21C425.51 41.02 425.03 43.62 424.08 46.01C423.13 48.4 421.86 50.4 420.27 51.99C418.68 53.58 416.84 54.82 414.73 55.71C412.63 56.6 410.43 57.04 408.12 57.04C405.81 57.04 403.7 56.58 401.78 55.66C399.85 54.74 398.46 53.47 397.61 51.86V73.89H386.99V73.91ZM397.84 38.44C397.84 41.01 398.65 43.06 400.26 44.61C401.87 46.16 403.83 46.93 406.13 46.93C408.46 46.93 410.42 46.15 412.02 44.58C413.62 43.01 414.42 40.97 414.42 38.45C414.42 35.88 413.62 33.8 412.02 32.19C410.42 30.58 408.45 29.78 406.13 29.78C403.85 29.78 401.9 30.6 400.27 32.23C398.64 33.86 397.84 35.92 397.84 38.44Z" fill="white"/>
<path d="M428.39 64.08C430.17 61.63 431.62 58.6 432.74 55C433.86 51.4 434.42 47.78 434.39 44.15H445.16C445.13 47 444.79 49.7 444.13 52.26C443.47 54.81 442.6 57.01 441.52 58.87C440.44 60.72 439.4 62.26 438.39 63.49C437.38 64.72 436.35 65.78 435.28 66.68L428.39 64.08Z" fill="white"/>
<path d="M26.37 133.56V80.6H47.34C52.07 80.6 55.83 81.93 58.64 84.6C61.45 87.27 62.85 90.88 62.85 95.43C62.85 97.41 62.29 99.33 61.18 101.17C60.06 103.01 58.31 104.41 55.91 105.37C59.03 106.19 61.42 107.78 63.09 110.15C64.76 112.52 65.59 114.92 65.59 117.35C65.59 121.88 64.06 125.71 61.01 128.85C57.95 131.99 53.9 133.56 48.86 133.56H26.37ZM37.6 101.69H46.44C47.9 101.69 49.09 101.17 50.02 100.12C50.95 99.08 51.41 97.75 51.41 96.15C51.41 94.42 50.98 93.05 50.11 92.03C49.24 91.01 48 90.5 46.37 90.5H37.6V101.69ZM37.6 123.65H48.47C50.25 123.65 51.64 122.99 52.65 121.68C53.65 120.37 54.15 118.85 54.15 117.12C54.15 115.47 53.63 114 52.59 112.73C51.55 111.45 50.1 110.82 48.24 110.82H37.6V123.65Z" fill="white"/>
<path d="M74.4 125.38C72.71 122.5 71.87 119.22 71.87 115.57C71.87 111.91 72.71 108.65 74.4 105.78C76.09 102.91 78.35 100.71 81.19 99.19C84.03 97.67 87.16 96.9 90.59 96.9C93.12 96.9 95.51 97.36 97.76 98.29C100.01 99.22 101.96 100.49 103.62 102.12C105.27 103.75 106.58 105.74 107.54 108.11C108.5 110.48 108.99 113.05 108.99 115.82C108.99 116.77 108.94 117.87 108.84 119.12H82.53C82.78 121.07 83.79 122.57 85.55 123.62C87.31 124.67 89.26 125.2 91.39 125.2C92.94 125.2 94.42 124.91 95.84 124.33C97.26 123.75 98.39 122.9 99.24 121.78L107.01 127.1C105.33 129.58 103.02 131.41 100.07 132.57C97.12 133.74 93.96 134.32 90.61 134.32C87.18 134.32 84.05 133.55 81.21 132.02C78.35 130.47 76.09 128.26 74.4 125.38ZM82.68 112.43H98.22C97.97 110.48 97.09 109 95.57 108C94.06 107 92.42 106.5 90.67 106.5C88.92 106.5 87.25 106.99 85.68 107.96C84.1 108.94 83.1 110.43 82.68 112.43Z" fill="white"/>
<path d="M112.82 106.12V97.67H119.35V83.9H129.97V97.68H137.51V106.13H129.97V133.57H119.35V106.13H112.82V106.12Z" fill="white"/>
<path d="M140.86 106.12V97.67H147.39V83.9H158.01V97.68H165.55V106.13H158.01V133.57H147.39V106.13H140.86V106.12Z" fill="white"/>
<path d="M171.92 125.38C170.23 122.5 169.39 119.22 169.39 115.57C169.39 111.91 170.23 108.65 171.92 105.78C173.61 102.91 175.87 100.71 178.71 99.19C181.55 97.67 184.68 96.9 188.11 96.9C190.64 96.9 193.03 97.36 195.28 98.29C197.53 99.22 199.48 100.49 201.14 102.12C202.79 103.75 204.1 105.74 205.06 108.11C206.02 110.48 206.51 113.05 206.51 115.82C206.51 116.77 206.46 117.87 206.36 119.12H180.05C180.3 121.07 181.31 122.57 183.07 123.62C184.83 124.67 186.78 125.2 188.91 125.2C190.46 125.2 191.94 124.91 193.36 124.33C194.78 123.75 195.91 122.9 196.76 121.78L204.53 127.1C202.85 129.58 200.54 131.41 197.59 132.57C194.64 133.74 191.48 134.32 188.13 134.32C184.7 134.32 181.57 133.55 178.73 132.02C175.87 130.47 173.61 128.26 171.92 125.38ZM180.19 112.43H195.73C195.48 110.48 194.6 109 193.08 108C191.57 107 189.93 106.5 188.18 106.5C186.43 106.5 184.76 106.99 183.19 107.96C181.62 108.94 180.62 110.43 180.19 112.43Z" fill="white"/>
<path d="M213.79 133.56V97.68H224.41V106.28C225.26 103.2 226.65 100.87 228.58 99.28C230.51 97.69 232.5 96.9 234.55 96.9C236.95 96.9 239 97.34 240.71 98.21L238.8 107.75C237.32 107.02 235.5 106.66 233.32 106.66C230.27 106.66 228.02 107.85 226.58 110.24C225.14 112.62 224.42 116.21 224.42 121V133.57H213.79V133.56Z" fill="white"/>
<path d="M272.68 80.6H286.08L298.84 100.42L311.75 80.6H325.11L304.58 109.73V133.56H293.13V109.58L272.68 80.6Z" fill="white"/>
<path d="M318.96 115.49C318.96 111.84 319.81 108.58 321.5 105.72C323.19 102.86 325.45 100.67 328.27 99.16C331.09 97.65 334.19 96.89 337.56 96.89C340.93 96.89 344.03 97.65 346.85 99.17C349.68 100.69 351.95 102.89 353.66 105.77C355.37 108.65 356.23 111.89 356.23 115.48C356.23 119.07 355.37 122.32 353.66 125.22C351.95 128.12 349.68 130.33 346.85 131.86C344.02 133.39 340.93 134.15 337.56 134.15C334.19 134.15 331.09 133.39 328.27 131.88C325.45 130.36 323.19 128.17 321.5 125.3C319.8 122.45 318.96 119.17 318.96 115.49ZM329.51 115.49C329.51 117.88 330.29 119.82 331.85 121.32C333.41 122.82 335.31 123.57 337.56 123.57C339.86 123.57 341.79 122.82 343.35 121.34C344.91 119.85 345.69 117.9 345.69 115.49C345.69 113.15 344.9 111.23 343.33 109.73C341.76 108.23 339.84 107.48 337.56 107.48C335.31 107.48 333.41 108.23 331.85 109.73C330.28 111.23 329.51 113.15 329.51 115.49Z" fill="white"/>
<path d="M363.51 119.11V97.6799H374.13V116.99C374.13 118.35 374.34 119.53 374.75 120.53C375.16 121.53 375.71 122.27 376.39 122.76C377.07 123.25 377.74 123.61 378.42 123.84C379.1 124.07 379.79 124.18 380.49 124.18C382.35 124.18 383.9 123.59 385.14 122.4C386.38 121.21 387 119.35 387 116.8V97.6799H397.62V133.56H387V128.76C386.07 130.48 384.74 131.83 382.99 132.82C381.25 133.81 379.47 134.31 377.66 134.31C373.45 134.31 370.04 133.01 367.42 130.41C364.82 127.81 363.51 124.04 363.51 119.11Z" fill="white"/>
<path d="M406.71 127.86C406.71 126.03 407.35 124.51 408.64 123.3C409.93 122.09 411.49 121.48 413.31 121.48C415.14 121.48 416.71 122.09 418.02 123.32C419.33 124.55 419.99 126.06 419.99 127.86C419.99 129.71 419.33 131.25 418.02 132.48C416.71 133.71 415.14 134.32 413.31 134.32C411.48 134.32 409.93 133.71 408.64 132.48C407.36 131.25 406.71 129.71 406.71 127.86Z" fill="white"/>
</svg>
