<svg width="258" height="129" viewBox="0 0 258 129" fill="none" xmlns="http://www.w3.org/2000/svg">
<path d="M28.43 72.8101V71.08L33.59 69.21V88.34H31.69V71.6801L28.43 72.8101Z" fill="#10376D"/>
<path d="M37.87 84.67L39.51 83.48C39.87 84.41 40.5 85.18 41.42 85.8C42.34 86.42 43.29 86.73 44.29 86.73C45.78 86.73 46.95 86.32 47.81 85.5C48.67 84.68 49.1 83.64 49.1 82.37C49.1 81.73 48.97 81.14 48.71 80.6C48.45 80.06 48.12 79.62 47.7 79.29C47.28 78.96 46.82 78.7 46.32 78.52C45.82 78.34 45.31 78.25 44.78 78.25C43.85 78.25 43.04 78.36 42.33 78.58C41.62 78.8 40.68 79.2101 39.51 79.8101L38.77 78.74L40.44 69.24H49.78V71.14H42.07L40.92 77.47C42.48 76.72 43.76 76.35 44.75 76.35C45.88 76.35 46.92 76.58 47.85 77.04C48.78 77.5 49.54 78.19 50.12 79.12C50.7 80.05 50.99 81.14 50.99 82.38C50.99 84.29 50.39 85.8099 49.18 86.9399C47.98 88.0699 46.34 88.63 44.28 88.63C42.96 88.63 41.7 88.26 40.52 87.52C39.33 86.78 38.45 85.83 37.87 84.67Z" fill="#10376D"/>
<path d="M53.28 91.74C54.53 89.97 55.14 87.95 55.09 85.67H57.31C57.21 87.2 56.9 88.52 56.38 89.64C55.86 90.76 55.27 91.59 54.6 92.13L53.28 91.74Z" fill="#10376D"/>
<path d="M61.26 78.8199C61.26 77.6699 61.32 76.6299 61.44 75.6899C61.56 74.7599 61.78 73.87 62.1 73.01C62.42 72.16 62.83 71.44 63.33 70.87C63.83 70.29 64.48 69.83 65.29 69.49C66.1 69.15 67.03 68.98 68.09 68.98C69.15 68.98 70.08 69.15 70.88 69.49C71.68 69.83 72.33 70.29 72.83 70.87C73.33 71.45 73.74 72.16 74.04 73.02C74.34 73.88 74.56 74.77 74.69 75.7C74.81 76.63 74.87 77.6699 74.87 78.8199C74.87 79.9599 74.81 81.0001 74.69 81.9301C74.57 82.8601 74.35 83.75 74.04 84.61C73.73 85.47 73.33 86.18 72.83 86.75C72.33 87.32 71.68 87.78 70.88 88.12C70.08 88.46 69.15 88.63 68.09 88.63C67.03 88.63 66.1 88.46 65.29 88.12C64.48 87.78 63.83 87.32 63.33 86.74C62.83 86.16 62.42 85.45 62.1 84.6C61.78 83.75 61.56 82.8601 61.44 81.9301C61.32 81.0001 61.26 79.9599 61.26 78.8199ZM63.29 76.3C63.2 77.05 63.16 77.8899 63.16 78.8199C63.16 79.7499 63.2 80.58 63.29 81.33C63.38 82.07 63.54 82.79 63.76 83.49C63.98 84.18 64.28 84.76 64.64 85.22C65.01 85.68 65.48 86.0499 66.06 86.3199C66.64 86.5999 67.31 86.73 68.08 86.73C68.85 86.73 69.52 86.5899 70.1 86.3199C70.68 86.0399 71.15 85.68 71.5 85.22C71.86 84.76 72.15 84.19 72.37 83.49C72.6 82.8 72.75 82.08 72.83 81.33C72.91 80.59 72.96 79.7499 72.96 78.8199C72.96 77.8799 72.92 77.04 72.83 76.3C72.75 75.56 72.59 74.84 72.37 74.14C72.15 73.45 71.85 72.87 71.5 72.41C71.14 71.95 70.68 71.58 70.1 71.3C69.52 71.02 68.85 70.89 68.08 70.89C67.31 70.89 66.64 71.03 66.06 71.3C65.48 71.58 65.01 71.95 64.64 72.41C64.27 72.87 63.98 73.45 63.76 74.14C63.53 74.82 63.38 75.55 63.29 76.3Z" fill="#10376D"/>
<path d="M78.8 78.8199C78.8 77.6699 78.86 76.6299 78.98 75.6899C79.1 74.7599 79.32 73.87 79.64 73.01C79.96 72.16 80.37 71.44 80.87 70.87C81.37 70.29 82.02 69.83 82.83 69.49C83.64 69.15 84.57 68.98 85.63 68.98C86.69 68.98 87.62 69.15 88.42 69.49C89.22 69.83 89.87 70.29 90.37 70.87C90.87 71.45 91.28 72.16 91.58 73.02C91.89 73.88 92.1 74.77 92.23 75.7C92.35 76.63 92.41 77.6699 92.41 78.8199C92.41 79.9599 92.35 81.0001 92.23 81.9301C92.11 82.8601 91.89 83.75 91.58 84.61C91.27 85.47 90.87 86.18 90.37 86.75C89.87 87.32 89.22 87.78 88.42 88.12C87.62 88.46 86.69 88.63 85.63 88.63C84.57 88.63 83.64 88.46 82.83 88.12C82.02 87.78 81.37 87.32 80.87 86.74C80.37 86.16 79.96 85.45 79.64 84.6C79.32 83.75 79.1 82.8601 78.98 81.9301C78.86 81.0001 78.8 79.9599 78.8 78.8199ZM80.83 76.3C80.74 77.05 80.7 77.8899 80.7 78.8199C80.7 79.7499 80.74 80.58 80.83 81.33C80.92 82.07 81.08 82.79 81.3 83.49C81.52 84.18 81.82 84.76 82.18 85.22C82.55 85.68 83.02 86.0499 83.6 86.3199C84.18 86.5999 84.85 86.73 85.62 86.73C86.39 86.73 87.06 86.5899 87.64 86.3199C88.22 86.0399 88.69 85.68 89.04 85.22C89.4 84.76 89.69 84.19 89.91 83.49C90.14 82.8 90.29 82.08 90.37 81.33C90.45 80.59 90.5 79.7499 90.5 78.8199C90.5 77.8799 90.46 77.04 90.37 76.3C90.29 75.56 90.13 74.84 89.91 74.14C89.69 73.45 89.39 72.87 89.04 72.41C88.68 71.95 88.22 71.58 87.64 71.3C87.06 71.02 86.39 70.89 85.62 70.89C84.85 70.89 84.18 71.03 83.6 71.3C83.02 71.58 82.55 71.95 82.18 72.41C81.81 72.87 81.52 73.45 81.3 74.14C81.08 74.82 80.92 75.55 80.83 76.3Z" fill="#10376D"/>
<path d="M96.35 78.8199C96.35 77.6699 96.41 76.6299 96.53 75.6899C96.65 74.7599 96.87 73.87 97.19 73.01C97.51 72.16 97.92 71.44 98.42 70.87C98.92 70.29 99.57 69.83 100.38 69.49C101.19 69.15 102.12 68.98 103.18 68.98C104.24 68.98 105.17 69.15 105.97 69.49C106.77 69.83 107.42 70.29 107.92 70.87C108.42 71.45 108.83 72.16 109.13 73.02C109.43 73.88 109.65 74.77 109.78 75.7C109.9 76.63 109.96 77.6699 109.96 78.8199C109.96 79.9599 109.9 81.0001 109.78 81.9301C109.66 82.8601 109.44 83.75 109.13 84.61C108.82 85.47 108.42 86.18 107.92 86.75C107.42 87.32 106.77 87.78 105.97 88.12C105.17 88.46 104.24 88.63 103.18 88.63C102.12 88.63 101.19 88.46 100.38 88.12C99.57 87.78 98.92 87.32 98.42 86.74C97.92 86.16 97.51 85.45 97.19 84.6C96.87 83.75 96.65 82.8601 96.53 81.9301C96.41 81.0001 96.35 79.9599 96.35 78.8199ZM98.38 76.3C98.29 77.05 98.25 77.8899 98.25 78.8199C98.25 79.7499 98.29 80.58 98.38 81.33C98.47 82.07 98.63 82.79 98.85 83.49C99.07 84.18 99.37 84.76 99.73 85.22C100.1 85.68 100.57 86.0499 101.15 86.3199C101.73 86.5999 102.4 86.73 103.17 86.73C103.94 86.73 104.61 86.5899 105.19 86.3199C105.77 86.0399 106.24 85.68 106.59 85.22C106.95 84.76 107.24 84.19 107.46 83.49C107.69 82.8 107.84 82.08 107.92 81.33C108 80.59 108.05 79.7499 108.05 78.8199C108.05 77.8799 108.01 77.04 107.92 76.3C107.84 75.56 107.68 74.84 107.46 74.14C107.24 73.45 106.94 72.87 106.59 72.41C106.23 71.95 105.77 71.58 105.19 71.3C104.61 71.02 103.94 70.89 103.17 70.89C102.4 70.89 101.73 71.03 101.15 71.3C100.57 71.58 100.1 71.95 99.73 72.41C99.36 72.87 99.07 73.45 98.85 74.14C98.63 74.82 98.47 75.55 98.38 76.3Z" fill="#10376D"/>
<path d="M113.67 81.67V79.86H118.53V74.91H120.43V79.86H125.32V81.67H120.43V86.64H118.53V81.67H113.67Z" fill="#10376D"/>
<path d="M137.48 88.35V68.53H144.83C145.79 68.53 146.64 68.7 147.37 69.04C148.1 69.38 148.67 69.8501 149.09 70.4301C149.51 71.0201 149.82 71.66 150.02 72.35C150.22 73.05 150.32 73.79 150.32 74.59C150.32 75.21 150.26 75.8 150.14 76.35C150.02 76.91 149.83 77.44 149.56 77.96C149.29 78.48 148.96 78.92 148.56 79.3C148.16 79.68 147.66 79.99 147.06 80.22C146.46 80.45 145.79 80.58 145.03 80.6L150.51 88.34H148.18L142.71 80.6H139.36V88.34H137.48V88.35ZM139.38 78.71H144.68C145.35 78.71 145.94 78.6 146.44 78.37C146.94 78.15 147.33 77.8299 147.61 77.4399C147.89 77.0399 148.1 76.61 148.23 76.13C148.36 75.66 148.43 75.14 148.43 74.59C148.43 74.04 148.36 73.52 148.23 73.04C148.1 72.56 147.9 72.12 147.62 71.72C147.35 71.32 146.97 71 146.49 70.76C146.01 70.53 145.45 70.41 144.82 70.41H139.37V78.71H139.38Z" fill="#10376D"/>
<path d="M152.89 81.5699C152.89 79.4899 153.54 77.81 154.83 76.53C156.12 75.25 157.74 74.62 159.69 74.62C161.63 74.62 163.21 75.25 164.44 76.52C165.67 77.79 166.28 79.4699 166.28 81.5699C166.28 81.9999 166.27 82.3 166.25 82.47H154.79C154.97 83.76 155.5 84.7899 156.39 85.5699C157.28 86.3399 158.36 86.73 159.62 86.73C160.53 86.73 161.35 86.52 162.09 86.11C162.83 85.7 163.41 85.13 163.82 84.4C164.04 84.46 164.37 84.53 164.82 84.63C165.27 84.73 165.58 84.8 165.74 84.83C165.2 86.02 164.38 86.95 163.29 87.62C162.2 88.29 160.97 88.62 159.62 88.62C158.35 88.62 157.2 88.33 156.17 87.75C155.15 87.17 154.34 86.35 153.76 85.27C153.18 84.2 152.89 82.9599 152.89 81.5699ZM154.79 80.66H164.25C164.06 79.38 163.55 78.38 162.73 77.63C161.9 76.89 160.87 76.51 159.63 76.51C158.37 76.51 157.29 76.89 156.41 77.64C155.51 78.4 154.98 79.41 154.79 80.66Z" fill="#10376D"/>
<path d="M167.94 74.92H169.96L174.53 86.1L179.08 74.92H181.12L173.49 88.35L167.94 74.92Z" fill="#10376D"/>
<path d="M182.83 81.5699C182.83 79.4899 183.48 77.81 184.77 76.53C186.06 75.25 187.68 74.62 189.63 74.62C191.57 74.62 193.15 75.25 194.38 76.52C195.61 77.79 196.22 79.4699 196.22 81.5699C196.22 81.9999 196.21 82.3 196.19 82.47H184.73C184.91 83.76 185.44 84.7899 186.33 85.5699C187.22 86.3399 188.3 86.73 189.56 86.73C190.47 86.73 191.29 86.52 192.03 86.11C192.77 85.7 193.35 85.13 193.76 84.4C193.98 84.46 194.31 84.53 194.76 84.63C195.21 84.73 195.52 84.8 195.68 84.83C195.14 86.02 194.32 86.95 193.23 87.62C192.14 88.29 190.91 88.62 189.56 88.62C188.29 88.62 187.14 88.33 186.11 87.75C185.09 87.17 184.28 86.35 183.7 85.27C183.12 84.2 182.83 82.9599 182.83 81.5699ZM184.73 80.66H194.19C194 79.38 193.49 78.38 192.67 77.63C191.84 76.89 190.81 76.51 189.57 76.51C188.31 76.51 187.23 76.89 186.35 77.64C185.45 78.4 184.91 79.41 184.73 80.66Z" fill="#10376D"/>
<path d="M197.93 74.92H199.98L203.86 85.3L207.72 74.92H209.79L213.67 85.3L217.53 74.92H219.57L214.54 88.35H212.92L208.75 77.5601L204.73 88.35H203.11L197.93 74.92Z" fill="#10376D"/>
<path d="M221.41 84.5H223.14C223.52 86.05 224.57 86.8199 226.29 86.8199C227.15 86.8199 227.84 86.63 228.36 86.24C228.88 85.85 229.14 85.34 229.14 84.7C229.14 84.22 228.98 83.8001 228.67 83.4301C228.36 83.0601 227.87 82.79 227.2 82.62L225.33 82.2C224.94 82.11 224.59 82 224.29 81.89C223.99 81.78 223.67 81.61 223.32 81.38C222.97 81.16 222.7 80.89 222.49 80.59C222.28 80.29 222.12 79.9 222.01 79.42C221.9 78.94 221.87 78.4 221.94 77.8C222.08 76.85 222.57 76.09 223.4 75.5C224.23 74.91 225.21 74.62 226.32 74.62C227.42 74.62 228.36 74.91 229.13 75.48C229.9 76.06 230.37 76.93 230.54 78.1H228.67C228.56 77.59 228.28 77.18 227.85 76.88C227.41 76.58 226.9 76.4301 226.31 76.4301C225.67 76.4301 225.1 76.59 224.63 76.9C224.15 77.21 223.88 77.61 223.82 78.09C223.76 78.39 223.77 78.67 223.83 78.91C223.89 79.16 223.99 79.35 224.11 79.5C224.23 79.65 224.39 79.79 224.6 79.91C224.81 80.03 225 80.1201 225.18 80.1801C225.36 80.2401 225.55 80.29 225.78 80.35L227.61 80.78C229.88 81.32 231.02 82.6201 231.03 84.6801C231.03 85.8301 230.56 86.78 229.63 87.51C228.7 88.25 227.53 88.61 226.12 88.61C224.91 88.61 223.83 88.23 222.9 87.48C221.96 86.74 221.46 85.74 221.41 84.5Z" fill="#10376D"/>
<path d="M0.820007 121.43L8.45001 101.61H10.46L18.09 121.43H16.04L14.03 116.25H4.85999L2.87 121.43H0.820007ZM5.54001 114.44H13.37L9.45001 104.25L5.54001 114.44Z" fill="#10376D"/>
<path d="M18.64 108H20.66L25.23 119.18L29.78 108H31.82L24.19 121.43L18.64 108Z" fill="#10376D"/>
<path d="M33.53 114.66C33.53 112.58 34.18 110.9 35.47 109.62C36.76 108.34 38.38 107.71 40.33 107.71C42.27 107.71 43.85 108.34 45.08 109.61C46.31 110.88 46.92 112.56 46.92 114.66C46.92 115.09 46.91 115.39 46.89 115.56H35.43C35.61 116.85 36.14 117.88 37.03 118.66C37.92 119.43 39 119.82 40.26 119.82C41.17 119.82 41.99 119.61 42.73 119.2C43.47 118.79 44.0501 118.22 44.4601 117.49C44.6801 117.55 45.0101 117.62 45.4601 117.72C45.9101 117.82 46.22 117.89 46.38 117.92C45.84 119.11 45.02 120.04 43.93 120.71C42.84 121.38 41.61 121.71 40.26 121.71C38.99 121.71 37.84 121.42 36.81 120.84C35.79 120.26 34.98 119.44 34.4 118.36C33.82 117.28 33.53 116.05 33.53 114.66ZM35.43 113.75H44.89C44.7 112.48 44.19 111.47 43.37 110.72C42.54 109.98 41.51 109.6 40.27 109.6C39.01 109.6 37.93 109.98 37.05 110.73C36.15 111.49 35.62 112.49 35.43 113.75Z" fill="#10376D"/>
<path d="M50.48 121.43V108H52.38V111.02C52.71 109.89 53.19 109.05 53.82 108.51C54.45 107.97 55.26 107.7 56.24 107.7C56.68 107.7 57.12 107.76 57.55 107.87C57.99 107.98 58.27 108.1 58.41 108.22L58.18 110.07C57.57 109.76 56.92 109.61 56.23 109.61C55.36 109.61 54.62 109.94 54.02 110.59C53.42 111.24 52.99 112.07 52.74 113.06C52.49 114.06 52.36 115.18 52.36 116.43V121.44H50.48V121.43Z" fill="#10376D"/>
<path d="M59.99 114.67C59.99 112.59 60.64 110.91 61.95 109.63C63.26 108.35 64.89 107.71 66.84 107.71C67.88 107.71 68.86 107.92 69.79 108.34C70.71 108.76 71.42 109.38 71.91 110.18V108H73.81V121.43H71.91V119.15C71.42 119.96 70.71 120.59 69.78 121.04C68.85 121.49 67.87 121.71 66.85 121.71C64.91 121.71 63.29 121.06 61.97 119.76C60.64 118.46 59.99 116.76 59.99 114.67ZM61.88 114.67C61.88 116.16 62.35 117.39 63.3 118.36C64.25 119.33 65.42 119.81 66.83 119.81C68.26 119.81 69.47 119.35 70.44 118.44C71.41 117.53 71.9 116.27 71.9 114.67C71.9 113.87 71.75 113.14 71.45 112.48C71.15 111.82 70.76 111.29 70.27 110.88C69.78 110.47 69.24 110.15 68.65 109.93C68.06 109.71 67.45 109.6 66.84 109.6C65.41 109.6 64.23 110.07 63.29 111C62.35 111.93 61.88 113.16 61.88 114.67Z" fill="#10376D"/>
<path d="M77.59 114.74C77.59 112.66 78.25 110.96 79.56 109.66C80.87 108.36 82.5 107.71 84.44 107.71C85.46 107.71 86.44 107.93 87.37 108.38C88.3 108.83 89.01 109.46 89.5 110.26V108H91.4V119.29C91.4 125.18 89.01 128.13 84.23 128.13C83.07 128.13 81.98 127.85 80.97 127.29C79.95 126.73 79.12 125.9 78.48 124.8L80.1 123.84C80.58 124.64 81.18 125.23 81.91 125.63C82.64 126.03 83.41 126.23 84.24 126.23C84.89 126.23 85.47 126.15 85.99 126C86.51 125.85 86.99 125.6 87.45 125.25C87.9 124.9 88.28 124.45 88.58 123.9C88.88 123.35 89.11 122.66 89.28 121.83C89.45 121 89.53 120.04 89.52 118.97C89.1 119.82 88.41 120.49 87.45 120.98C86.49 121.47 85.49 121.71 84.46 121.71C82.51 121.71 80.88 121.07 79.57 119.79C78.24 118.51 77.59 116.82 77.59 114.74ZM79.48 114.76C79.48 116.28 79.95 117.5 80.89 118.43C81.83 119.36 83.01 119.82 84.44 119.82C85.06 119.82 85.66 119.71 86.25 119.49C86.84 119.27 87.38 118.96 87.87 118.55C88.36 118.15 88.75 117.61 89.05 116.95C89.35 116.29 89.5 115.56 89.5 114.76C89.5 113.16 89.02 111.9 88.04 110.98C87.07 110.06 85.87 109.6 84.43 109.6C83.02 109.6 81.85 110.08 80.9 111.06C79.96 112.03 79.48 113.26 79.48 114.76Z" fill="#10376D"/>
<path d="M95.16 114.66C95.16 112.58 95.81 110.9 97.1 109.62C98.39 108.34 100.01 107.71 101.96 107.71C103.9 107.71 105.48 108.34 106.71 109.61C107.94 110.88 108.55 112.56 108.55 114.66C108.55 115.09 108.54 115.39 108.52 115.56H97.06C97.24 116.85 97.77 117.88 98.66 118.66C99.55 119.43 100.63 119.82 101.89 119.82C102.8 119.82 103.62 119.61 104.36 119.2C105.1 118.79 105.68 118.22 106.09 117.49C106.31 117.55 106.64 117.62 107.09 117.72C107.54 117.82 107.85 117.89 108.01 117.92C107.47 119.11 106.65 120.04 105.56 120.71C104.47 121.38 103.24 121.71 101.89 121.71C100.62 121.71 99.47 121.42 98.44 120.84C97.42 120.26 96.61 119.44 96.03 118.36C95.45 117.28 95.16 116.05 95.16 114.66ZM97.06 113.75H106.52C106.33 112.48 105.82 111.47 105 110.72C104.17 109.98 103.14 109.6 101.9 109.6C100.64 109.6 99.56 109.98 98.68 110.73C97.78 111.49 97.25 112.49 97.06 113.75Z" fill="#10376D"/>
<path d="M119.78 118.37C119.14 117.28 118.82 116.05 118.82 114.67C118.82 113.29 119.14 112.07 119.78 111C120.42 109.93 121.27 109.11 122.33 108.55C123.39 107.99 124.56 107.71 125.84 107.71C127.12 107.71 128.3 107.99 129.36 108.55C130.42 109.11 131.27 109.93 131.91 111C132.55 112.07 132.87 113.3 132.87 114.67C132.87 116.05 132.55 117.28 131.91 118.37C131.27 119.46 130.41 120.29 129.35 120.86C128.29 121.43 127.12 121.72 125.84 121.72C124.57 121.72 123.4 121.43 122.34 120.86C121.27 120.28 120.42 119.46 119.78 118.37ZM122.19 111C121.21 111.93 120.71 113.16 120.71 114.67C120.71 116.18 121.21 117.42 122.19 118.38C123.18 119.34 124.39 119.81 125.83 119.81C127.27 119.81 128.48 119.33 129.47 118.38C130.46 117.42 130.96 116.19 130.96 114.67C130.96 113.15 130.46 111.93 129.48 111C128.49 110.07 127.27 109.6 125.83 109.6C124.39 109.6 123.18 110.07 122.19 111Z" fill="#10376D"/>
<path d="M134.88 109.7V108H137.53V106.44C137.53 102.62 139.09 100.71 142.22 100.71H143.65V102.52H142.21C141.72 102.52 141.3 102.6 140.94 102.77C140.58 102.93 140.31 103.14 140.11 103.38C139.92 103.62 139.77 103.93 139.66 104.3C139.55 104.67 139.48 105.02 139.45 105.34C139.42 105.66 139.41 106.03 139.42 106.44V108H142.75V109.7H139.42V121.43H137.52V109.7H134.88Z" fill="#10376D"/>
<path d="M152 117.34L162.51 102.29H163.91V115.64H166.79V117.34H163.91V121.43H162.01V117.34H152ZM155.49 115.64H162.02V106.1L155.49 115.64Z" fill="#10376D"/>
<path d="M170.57 121.28C170.26 120.99 170.1 120.64 170.1 120.22C170.1 119.8 170.26 119.44 170.57 119.15C170.88 118.86 171.26 118.71 171.69 118.71C172.12 118.71 172.49 118.86 172.81 119.15C173.12 119.44 173.28 119.8 173.28 120.22C173.28 120.64 173.12 120.99 172.81 121.28C172.5 121.57 172.12 121.71 171.69 121.71C171.25 121.71 170.88 121.57 170.57 121.28Z" fill="#10376D"/>
<path d="M176.95 121.43L186.47 104.19H177.03V102.29H189.72L179.18 121.42H176.95V121.43Z" fill="#10376D"/>
<path d="M199.13 117.58H200.86C201.24 119.13 202.29 119.9 204.01 119.9C204.87 119.9 205.56 119.71 206.08 119.32C206.6 118.93 206.86 118.42 206.86 117.78C206.86 117.3 206.7 116.88 206.39 116.51C206.08 116.14 205.59 115.87 204.92 115.7L203.05 115.28C202.66 115.19 202.31 115.08 202.01 114.97C201.71 114.86 201.39 114.69 201.04 114.46C200.69 114.24 200.42 113.97 200.21 113.67C200 113.37 199.84 112.98 199.73 112.5C199.62 112.02 199.59 111.48 199.66 110.88C199.8 109.93 200.29 109.17 201.12 108.58C201.95 107.99 202.93 107.7 204.04 107.7C205.14 107.7 206.08 107.99 206.85 108.56C207.62 109.14 208.09 110.01 208.26 111.18H206.39C206.28 110.67 206 110.26 205.57 109.96C205.13 109.66 204.62 109.51 204.03 109.51C203.39 109.51 202.82 109.67 202.35 109.98C201.87 110.29 201.6 110.69 201.54 111.17C201.48 111.47 201.49 111.75 201.55 111.99C201.61 112.24 201.71 112.43 201.83 112.58C201.95 112.73 202.11 112.87 202.32 112.99C202.53 113.11 202.72 113.2 202.9 113.26C203.08 113.32 203.27 113.37 203.5 113.43L205.33 113.86C207.6 114.4 208.74 115.7 208.75 117.76C208.75 118.91 208.28 119.86 207.35 120.59C206.42 121.33 205.25 121.69 203.84 121.69C202.63 121.69 201.55 121.31 200.62 120.56C199.69 119.83 199.19 118.83 199.13 117.58Z" fill="#10376D"/>
<path d="M210.82 109.7V108H213.28V102.94H215.18V108H218.06V109.7H215.18V121.43H213.28V109.7H210.82Z" fill="#10376D"/>
<path d="M220.06 114.67C220.06 112.59 220.71 110.91 222.02 109.63C223.33 108.35 224.96 107.71 226.91 107.71C227.95 107.71 228.93 107.92 229.86 108.34C230.78 108.76 231.49 109.38 231.98 110.18V108H233.88V121.43H231.98V119.15C231.49 119.96 230.78 120.59 229.85 121.04C228.92 121.49 227.94 121.71 226.92 121.71C224.98 121.71 223.36 121.06 222.04 119.76C220.72 118.46 220.06 116.76 220.06 114.67ZM221.96 114.67C221.96 116.16 222.43 117.39 223.38 118.36C224.33 119.33 225.5 119.81 226.91 119.81C228.34 119.81 229.55 119.35 230.52 118.44C231.49 117.53 231.98 116.27 231.98 114.67C231.98 113.87 231.83 113.14 231.53 112.48C231.23 111.82 230.84 111.29 230.35 110.88C229.86 110.47 229.32 110.15 228.73 109.93C228.14 109.71 227.53 109.6 226.92 109.6C225.49 109.6 224.31 110.07 223.37 111C222.43 111.93 221.96 113.16 221.96 114.67Z" fill="#10376D"/>
<path d="M238.59 121.43V108H240.49V111.02C240.82 109.89 241.3 109.05 241.93 108.51C242.56 107.97 243.37 107.7 244.35 107.7C244.79 107.7 245.23 107.76 245.66 107.87C246.1 107.98 246.38 108.1 246.52 108.22L246.29 110.07C245.68 109.76 245.03 109.61 244.34 109.61C243.47 109.61 242.73 109.94 242.13 110.59C241.53 111.24 241.1 112.07 240.85 113.06C240.6 114.06 240.47 115.18 240.47 116.43V121.44H238.59V121.43Z" fill="#10376D"/>
<path d="M248.37 117.58H250.1C250.48 119.13 251.53 119.9 253.25 119.9C254.11 119.9 254.8 119.71 255.32 119.32C255.84 118.93 256.1 118.42 256.1 117.78C256.1 117.3 255.94 116.88 255.63 116.51C255.32 116.14 254.83 115.87 254.16 115.7L252.29 115.28C251.9 115.19 251.55 115.08 251.25 114.97C250.95 114.86 250.63 114.69 250.28 114.46C249.93 114.24 249.66 113.97 249.45 113.67C249.24 113.37 249.08 112.98 248.97 112.5C248.86 112.02 248.83 111.48 248.9 110.88C249.04 109.93 249.53 109.17 250.36 108.58C251.19 107.99 252.17 107.7 253.28 107.7C254.38 107.7 255.32 107.99 256.09 108.56C256.86 109.14 257.33 110.01 257.5 111.18H255.63C255.52 110.67 255.24 110.26 254.81 109.96C254.37 109.66 253.86 109.51 253.27 109.51C252.63 109.51 252.06 109.67 251.59 109.98C251.11 110.29 250.84 110.69 250.78 111.17C250.72 111.47 250.73 111.75 250.79 111.99C250.85 112.24 250.95 112.43 251.07 112.58C251.19 112.73 251.35 112.87 251.56 112.99C251.77 113.11 251.96 113.2 252.14 113.26C252.32 113.32 252.51 113.37 252.74 113.43L254.57 113.86C256.84 114.4 257.98 115.7 257.99 117.76C257.99 118.91 257.52 119.86 256.59 120.59C255.66 121.33 254.49 121.69 253.08 121.69C251.87 121.69 250.79 121.31 249.86 120.56C248.92 119.83 248.43 118.83 248.37 117.58Z" fill="#10376D"/>
<path d="M69.67 30.9399C69.93 30.9399 70.13 30.85 70.26 30.66C70.4 30.47 70.46 30.25 70.46 29.97C70.46 29.8 70.45 29.67 70.44 29.58L68.76 19.9301L75.84 13.1C76.18 12.77 76.35 12.46 76.35 12.17C76.35 11.69 75.99 11.4 75.26 11.28L65.47 9.87L61.08 1.08997C60.83 0.559966 60.51 0.300049 60.12 0.300049C59.73 0.300049 59.41 0.559966 59.16 1.08997L54.77 9.87L44.98 11.28C44.25 11.4 43.89 11.69 43.89 12.17C43.89 12.44 44.05 12.75 44.38 13.1L51.48 19.9301L49.8 29.58L49.76 29.97C49.76 30.24 49.83 30.47 49.96 30.66C50.1 30.85 50.3 30.9399 50.57 30.9399C50.8 30.9399 51.06 30.86 51.35 30.71L60.11 26.15L68.87 30.71C69.15 30.86 69.42 30.9399 69.67 30.9399ZM108.36 30.9399C108.62 30.9399 108.82 30.85 108.95 30.66C109.09 30.47 109.15 30.25 109.15 29.97C109.15 29.8 109.14 29.67 109.13 29.58L107.45 19.9301L114.53 13.1C114.87 12.77 115.04 12.46 115.04 12.17C115.04 11.69 114.68 11.4 113.95 11.28L104.16 9.87L99.77 1.08997C99.52 0.559966 99.2 0.300049 98.81 0.300049C98.42 0.300049 98.1 0.559966 97.85 1.08997L93.47 9.87L83.68 11.28C82.95 11.39 82.59 11.69 82.59 12.17C82.59 12.44 82.75 12.75 83.08 13.1L90.18 19.9301L88.5 29.58L88.46 29.97C88.46 30.24 88.53 30.47 88.66 30.66C88.8 30.85 89 30.9399 89.27 30.9399C89.5 30.9399 89.76 30.86 90.05 30.71L98.81 26.15L107.57 30.71C107.85 30.86 108.11 30.9399 108.36 30.9399ZM147.06 30.9399C147.32 30.9399 147.52 30.85 147.65 30.66C147.79 30.47 147.85 30.25 147.85 29.97C147.85 29.8 147.84 29.67 147.83 29.58L146.15 19.9301L153.23 13.1C153.57 12.77 153.74 12.46 153.74 12.17C153.74 11.69 153.38 11.4 152.65 11.28L142.86 9.87L138.47 1.08997C138.22 0.559966 137.9 0.300049 137.51 0.300049C137.12 0.300049 136.8 0.559966 136.55 1.08997L132.16 9.87L122.37 11.28C121.64 11.39 121.28 11.69 121.28 12.17C121.28 12.44 121.44 12.75 121.77 13.1L128.87 19.9301L127.19 29.58L127.15 29.97C127.15 30.24 127.22 30.47 127.35 30.66C127.49 30.85 127.69 30.9399 127.96 30.9399C128.19 30.9399 128.45 30.86 128.74 30.71L137.5 26.15L146.26 30.71C146.55 30.86 146.81 30.9399 147.06 30.9399ZM185.75 30.9399C186.01 30.9399 186.21 30.85 186.34 30.66C186.48 30.47 186.54 30.25 186.54 29.97C186.54 29.8 186.53 29.67 186.52 29.58L184.84 19.9301L191.92 13.1C192.26 12.77 192.43 12.46 192.43 12.17C192.43 11.69 192.07 11.4 191.34 11.28L181.55 9.87L177.16 1.08997C176.91 0.559966 176.59 0.300049 176.2 0.300049C175.81 0.300049 175.49 0.559966 175.24 1.08997L170.85 9.87L161.06 11.28C160.33 11.39 159.97 11.69 159.97 12.17C159.97 12.44 160.13 12.75 160.46 13.1L167.56 19.9301L165.88 29.58L165.84 29.97C165.84 30.24 165.91 30.47 166.04 30.66C166.17 30.85 166.38 30.9399 166.65 30.9399C166.88 30.9399 167.14 30.86 167.43 30.71L176.19 26.15L184.95 30.71C185.24 30.86 185.5 30.9399 185.75 30.9399ZM205.37 30.9399C205.6 30.9399 205.86 30.86 206.15 30.71L214.91 26.15V0.310059C214.52 0.310059 214.2 0.569976 213.95 1.09998L209.56 9.88L199.77 11.29C199.04 11.4 198.68 11.7001 198.68 12.1801C198.68 12.4501 198.84 12.76 199.17 13.11L206.27 19.9399L204.59 29.59L204.55 29.98C204.55 30.25 204.62 30.48 204.75 30.67C204.89 30.85 205.1 30.9399 205.37 30.9399Z" fill="#10376D"/>
</svg>
