<svg width="233" height="130" viewBox="0 0 233 130" fill="none" xmlns="http://www.w3.org/2000/svg">
<path d="M32.4301 95.23V75.76H39.51C41.07 75.76 42.3 76.1901 43.2 77.0601C44.1 77.9301 44.55 79.1 44.55 80.59C44.55 81.24 44.48 81.83 44.34 82.37C44.2 82.91 43.94 83.4 43.58 83.85C43.22 84.3 42.7501 84.63 42.1801 84.83C43.1401 85.01 43.95 85.6 44.61 86.6C45.27 87.6 45.6 88.65 45.6 89.77C45.6 91.31 45.11 92.6 44.13 93.65C43.15 94.7 41.83 95.22 40.15 95.22H32.4301V95.23ZM34.3 84.01H39.73C40.69 84.01 41.4201 83.68 41.9301 83.02C42.4401 82.36 42.7 81.55 42.7 80.59C42.7 79.64 42.39 78.91 41.77 78.39C41.15 77.87 40.3301 77.62 39.3101 77.62H34.29V84.01H34.3ZM34.3 93.36H40.13C41.2 93.36 42.07 93.01 42.74 92.3C43.41 91.6 43.75 90.75 43.75 89.77C43.75 89.16 43.6 88.56 43.3 87.96C43 87.36 42.56 86.85 41.97 86.42C41.39 86 40.73 85.79 40.01 85.79H34.29V93.36H34.3Z" fill="#10376D"/>
<path d="M48.52 88.58C48.52 86.53 49.15 84.88 50.42 83.63C51.69 82.38 53.2799 81.75 55.1899 81.75C57.0899 81.75 58.65 82.37 59.85 83.62C61.05 84.86 61.66 86.52 61.66 88.58C61.66 89 61.65 89.29 61.63 89.46H50.37C50.54 90.73 51.0699 91.74 51.9399 92.5C52.8099 93.26 53.87 93.64 55.11 93.64C56 93.64 56.81 93.44 57.54 93.03C58.27 92.63 58.83 92.06 59.24 91.35C59.45 91.41 59.78 91.48 60.23 91.58C60.68 91.68 60.98 91.74 61.13 91.78C60.6 92.95 59.79 93.86 58.72 94.52C57.65 95.18 56.45 95.51 55.11 95.51C53.86 95.51 52.73 95.23 51.73 94.66C50.72 94.09 49.94 93.28 49.36 92.22C48.78 91.16 48.52 89.94 48.52 88.58ZM50.38 87.6801H59.66C59.48 86.4301 58.98 85.44 58.16 84.71C57.35 83.98 56.33 83.61 55.12 83.61C53.88 83.61 52.82 83.98 51.95 84.72C51.08 85.46 50.57 86.4501 50.38 87.6801Z" fill="#10376D"/>
<path d="M64.11 91.45H65.8101C66.1901 92.97 67.22 93.73 68.91 93.73C69.75 93.73 70.4299 93.54 70.9399 93.16C71.4499 92.78 71.7 92.28 71.7 91.65C71.7 91.18 71.55 90.77 71.24 90.4C70.93 90.03 70.45 89.77 69.8 89.61L67.97 89.2C67.58 89.11 67.24 89.01 66.95 88.9C66.66 88.79 66.34 88.62 66 88.4C65.66 88.18 65.3901 87.92 65.1801 87.63C64.9701 87.34 64.81 86.95 64.7 86.49C64.59 86.02 64.57 85.49 64.63 84.9C64.77 83.97 65.2501 83.22 66.0601 82.64C66.8801 82.06 67.8301 81.77 68.9301 81.77C70.0101 81.77 70.9299 82.05 71.6899 82.62C72.4499 83.19 72.9099 84.0399 73.0699 85.1899H71.24C71.13 84.6899 70.8599 84.28 70.4399 83.99C70.0099 83.7 69.5101 83.55 68.9301 83.55C68.3001 83.55 67.75 83.7 67.28 84.01C66.81 84.32 66.55 84.7001 66.48 85.1801C66.42 85.4801 66.43 85.75 66.49 85.99C66.55 86.23 66.64 86.4299 66.76 86.5699C66.88 86.7199 67.04 86.85 67.24 86.97C67.44 87.09 67.63 87.18 67.8 87.23C67.97 87.29 68.17 87.34 68.39 87.4L70.1899 87.8199C72.4199 88.3499 73.54 89.63 73.55 91.65C73.55 92.78 73.0901 93.7101 72.1801 94.4301C71.2701 95.1501 70.12 95.51 68.73 95.51C67.54 95.51 66.4801 95.14 65.5601 94.4C64.6501 93.65 64.16 92.67 64.11 91.45Z" fill="#10376D"/>
<path d="M75.59 83.71V82.04H78V77.0699H79.86V82.04H82.6899V83.71H79.86V95.23H78V83.71H75.59Z" fill="#10376D"/>
<path d="M92.2 95.23L94.58 75.76H96.4399L103.85 90.9399L111.21 75.76H113.07L115.44 95.23H113.61L111.65 79.1L104.78 93.1H102.92L96.02 79.1L94.05 95.23H92.2Z" fill="#10376D"/>
<path d="M118.35 88.59C118.35 86.55 118.99 84.9 120.28 83.64C121.57 82.38 123.16 81.75 125.08 81.75C126.1 81.75 127.07 81.96 127.97 82.37C128.88 82.78 129.57 83.3901 130.05 84.1801V82.04H131.91V95.23H130.05V92.99C129.57 93.78 128.87 94.4 127.96 94.84C127.04 95.28 126.08 95.5 125.08 95.5C123.18 95.5 121.58 94.86 120.29 93.58C119 92.3 118.35 90.64 118.35 88.59ZM120.22 88.59C120.22 90.05 120.68 91.26 121.62 92.21C122.55 93.16 123.71 93.64 125.09 93.64C126.5 93.64 127.68 93.19 128.63 92.3C129.58 91.4 130.06 90.17 130.06 88.6C130.06 87.81 129.91 87.1 129.62 86.45C129.33 85.8 128.94 85.28 128.46 84.88C127.98 84.48 127.45 84.17 126.87 83.95C126.29 83.73 125.7 83.62 125.09 83.62C123.69 83.62 122.53 84.08 121.61 84.99C120.68 85.9 120.22 87.1 120.22 88.59Z" fill="#10376D"/>
<path d="M135 83.71V82.04H137.41V77.0699H139.27V82.04H142.1V83.71H139.27V95.23H137.41V83.71H135Z" fill="#10376D"/>
<path d="M143.7 83.71V82.04H146.11V77.0699H147.97V82.04H150.8V83.71H147.97V95.23H146.11V83.71H143.7Z" fill="#10376D"/>
<path d="M153.93 95.23V82.04H155.79V85.01C156.11 83.9 156.58 83.07 157.2 82.55C157.82 82.03 158.61 81.76 159.58 81.76C160.01 81.76 160.44 81.8101 160.87 81.9301C161.3 82.0401 161.58 82.15 161.72 82.27L161.5 84.08C160.9 83.78 160.26 83.62 159.58 83.62C158.72 83.62 158 83.94 157.41 84.58C156.82 85.22 156.4 86.03 156.16 87.01C155.91 87.99 155.79 89.0901 155.79 90.3101V95.23H153.93Z" fill="#10376D"/>
<path d="M163.27 88.58C163.27 86.53 163.9 84.88 165.17 83.63C166.44 82.38 168.03 81.75 169.94 81.75C171.84 81.75 173.4 82.37 174.6 83.62C175.8 84.86 176.41 86.52 176.41 88.58C176.41 89 176.4 89.29 176.38 89.46H165.12C165.29 90.73 165.82 91.74 166.69 92.5C167.56 93.26 168.62 93.64 169.86 93.64C170.75 93.64 171.56 93.44 172.29 93.03C173.02 92.63 173.58 92.06 173.99 91.35C174.2 91.41 174.53 91.48 174.98 91.58C175.43 91.68 175.73 91.74 175.88 91.78C175.35 92.95 174.54 93.86 173.47 94.52C172.4 95.18 171.2 95.51 169.86 95.51C168.61 95.51 167.48 95.23 166.48 94.66C165.47 94.09 164.69 93.28 164.11 92.22C163.53 91.16 163.27 89.94 163.27 88.58ZM165.13 87.6801H174.41C174.23 86.4301 173.73 85.44 172.91 84.71C172.1 83.98 171.08 83.61 169.87 83.61C168.63 83.61 167.57 83.98 166.7 84.72C165.83 85.46 165.32 86.4501 165.13 87.6801Z" fill="#10376D"/>
<path d="M178.86 91.45H180.56C180.94 92.97 181.97 93.73 183.66 93.73C184.5 93.73 185.18 93.54 185.69 93.16C186.2 92.78 186.45 92.28 186.45 91.65C186.45 91.18 186.3 90.77 185.99 90.4C185.68 90.03 185.2 89.77 184.55 89.61L182.72 89.2C182.33 89.11 181.99 89.01 181.7 88.9C181.41 88.79 181.09 88.62 180.75 88.4C180.41 88.18 180.14 87.92 179.93 87.63C179.72 87.34 179.56 86.95 179.45 86.49C179.34 86.02 179.32 85.49 179.38 84.9C179.52 83.97 180 83.22 180.81 82.64C181.63 82.06 182.58 81.77 183.68 81.77C184.76 81.77 185.68 82.05 186.44 82.62C187.2 83.19 187.66 84.0399 187.82 85.1899H185.99C185.88 84.6899 185.61 84.28 185.19 83.99C184.76 83.7 184.26 83.55 183.68 83.55C183.05 83.55 182.5 83.7 182.03 84.01C181.56 84.32 181.3 84.7001 181.23 85.1801C181.17 85.4801 181.18 85.75 181.24 85.99C181.3 86.23 181.39 86.4299 181.51 86.5699C181.63 86.7199 181.79 86.85 181.99 86.97C182.19 87.09 182.38 87.18 182.55 87.23C182.72 87.29 182.92 87.34 183.14 87.4L184.94 87.8199C187.17 88.3499 188.29 89.63 188.3 91.65C188.3 92.78 187.84 93.7101 186.93 94.4301C186.02 95.1501 184.87 95.51 183.48 95.51C182.29 95.51 181.23 95.14 180.31 94.4C179.4 93.65 178.91 92.67 178.86 91.45Z" fill="#10376D"/>
<path d="M190.83 91.45H192.53C192.91 92.97 193.94 93.73 195.63 93.73C196.47 93.73 197.15 93.54 197.66 93.16C198.17 92.78 198.42 92.28 198.42 91.65C198.42 91.18 198.27 90.77 197.96 90.4C197.65 90.03 197.17 89.77 196.52 89.61L194.69 89.2C194.3 89.11 193.96 89.01 193.67 88.9C193.38 88.79 193.06 88.62 192.72 88.4C192.38 88.18 192.11 87.92 191.9 87.63C191.69 87.34 191.53 86.95 191.42 86.49C191.31 86.02 191.29 85.49 191.35 84.9C191.49 83.97 191.97 83.22 192.78 82.64C193.6 82.06 194.55 81.77 195.65 81.77C196.73 81.77 197.65 82.05 198.41 82.62C199.17 83.19 199.63 84.0399 199.79 85.1899H197.96C197.85 84.6899 197.58 84.28 197.16 83.99C196.73 83.7 196.23 83.55 195.65 83.55C195.02 83.55 194.47 83.7 194 84.01C193.53 84.32 193.27 84.7001 193.2 85.1801C193.14 85.4801 193.15 85.75 193.21 85.99C193.27 86.23 193.36 86.4299 193.48 86.5699C193.6 86.7199 193.76 86.85 193.96 86.97C194.16 87.09 194.35 87.18 194.52 87.23C194.69 87.29 194.89 87.34 195.11 87.4L196.91 87.8199C199.14 88.3499 200.26 89.63 200.27 91.65C200.27 92.78 199.81 93.7101 198.9 94.4301C197.99 95.1501 196.84 95.51 195.45 95.51C194.26 95.51 193.2 95.14 192.28 94.4C191.38 93.65 190.89 92.67 190.83 91.45Z" fill="#10376D"/>
<path d="M73.34 126.12C72.71 125.05 72.4 123.84 72.4 122.49C72.4 121.14 72.71 119.94 73.34 118.88C73.97 117.82 74.8 117.02 75.84 116.47C76.88 115.92 78.03 115.64 79.29 115.64C80.55 115.64 81.7 115.92 82.74 116.47C83.78 117.02 84.62 117.82 85.25 118.88C85.88 119.93 86.2 121.14 86.2 122.49C86.2 123.84 85.88 125.05 85.25 126.12C84.62 127.19 83.78 128 82.74 128.56C81.7 129.12 80.55 129.4 79.29 129.4C78.04 129.4 76.89 129.12 75.85 128.56C74.81 128 73.97 127.19 73.34 126.12ZM75.71 118.89C74.74 119.81 74.26 121.01 74.26 122.5C74.26 123.99 74.75 125.2 75.72 126.14C76.69 127.08 77.88 127.55 79.29 127.55C80.7 127.55 81.89 127.08 82.87 126.14C83.85 125.2 84.33 123.99 84.33 122.5C84.33 121.01 83.84 119.81 82.87 118.89C81.9 117.97 80.7 117.52 79.29 117.52C77.87 117.51 76.68 117.97 75.71 118.89Z" fill="#10376D"/>
<path d="M88.17 117.61V115.94H90.78V114.41C90.78 110.66 92.32 108.78 95.39 108.78H96.8V110.56H95.38C94.9 110.56 94.48 110.64 94.13 110.8C93.78 110.96 93.5099 111.16 93.3199 111.4C93.1299 111.64 92.98 111.94 92.88 112.3C92.78 112.66 92.7101 113 92.6801 113.32C92.6501 113.64 92.64 114 92.65 114.4V115.93H95.92V117.6H92.65V129.12H90.79V117.6H88.17V117.61Z" fill="#10376D"/>
<path d="M105.7 114.55C105.92 113.2 106.55 112.12 107.6 111.32C108.65 110.52 109.9 110.12 111.35 110.12C112.96 110.12 114.32 110.62 115.43 111.63C116.54 112.64 117.09 113.92 117.09 115.49C117.09 117.15 116.42 118.75 115.07 120.29L109.18 127.27H117.12V129.13H105.85V128.48L113.72 118.96C114.74 117.75 115.26 116.6 115.26 115.48C115.26 114.43 114.88 113.59 114.13 112.94C113.38 112.3 112.45 111.97 111.35 111.97C110.33 111.97 109.44 112.24 108.7 112.79C107.95 113.34 107.52 114.07 107.4 114.99L105.7 114.55Z" fill="#10376D"/>
<path d="M120.92 119.78C120.92 118.65 120.98 117.63 121.1 116.71C121.22 115.79 121.44 114.92 121.75 114.08C122.06 113.24 122.46 112.54 122.96 111.98C123.45 111.41 124.09 110.96 124.88 110.63C125.67 110.3 126.59 110.13 127.63 110.13C128.67 110.13 129.58 110.3 130.37 110.63C131.16 110.97 131.8 111.42 132.29 111.98C132.78 112.55 133.18 113.25 133.48 114.09C133.78 114.93 133.99 115.81 134.11 116.72C134.23 117.63 134.29 118.65 134.29 119.78C134.29 120.9 134.23 121.92 134.11 122.83C133.99 123.74 133.78 124.62 133.48 125.46C133.18 126.3 132.78 127 132.29 127.56C131.8 128.12 131.16 128.57 130.37 128.9C129.58 129.23 128.67 129.4 127.63 129.4C126.59 129.4 125.68 129.23 124.88 128.9C124.08 128.57 123.45 128.11 122.96 127.55C122.47 126.98 122.07 126.28 121.75 125.45C121.43 124.62 121.22 123.74 121.1 122.83C120.98 121.92 120.92 120.9 120.92 119.78ZM122.91 117.3C122.82 118.04 122.78 118.87 122.78 119.78C122.78 120.69 122.82 121.51 122.91 122.24C123 122.97 123.15 123.68 123.37 124.36C123.59 125.04 123.88 125.61 124.24 126.06C124.6 126.51 125.06 126.87 125.63 127.14C126.2 127.41 126.86 127.55 127.62 127.55C128.38 127.55 129.04 127.42 129.61 127.14C130.18 126.86 130.64 126.51 130.99 126.06C131.34 125.61 131.62 125.04 131.85 124.36C132.08 123.68 132.22 122.97 132.31 122.24C132.39 121.51 132.43 120.69 132.43 119.78C132.43 118.86 132.39 118.03 132.31 117.3C132.23 116.57 132.08 115.86 131.85 115.18C131.62 114.5 131.34 113.93 130.99 113.48C130.64 113.02 130.18 112.66 129.61 112.39C129.04 112.12 128.38 111.98 127.62 111.98C126.86 111.98 126.2 112.12 125.63 112.39C125.06 112.66 124.59 113.02 124.24 113.48C123.88 113.94 123.59 114.5 123.37 115.18C123.15 115.86 123 116.56 122.91 117.3Z" fill="#10376D"/>
<path d="M137.76 114.55C137.98 113.2 138.61 112.12 139.66 111.32C140.71 110.52 141.96 110.12 143.41 110.12C145.02 110.12 146.38 110.62 147.49 111.63C148.6 112.64 149.15 113.92 149.15 115.49C149.15 117.15 148.48 118.75 147.13 120.29L141.24 127.27H149.18V129.13H137.91V128.48L145.78 118.96C146.8 117.75 147.32 116.6 147.32 115.48C147.32 114.43 146.94 113.59 146.19 112.94C145.44 112.3 144.51 111.97 143.41 111.97C142.39 111.97 141.5 112.24 140.76 112.79C140.01 113.34 139.58 114.07 139.46 114.99L137.76 114.55Z" fill="#10376D"/>
<path d="M152.23 113.87V112.17L157.29 110.34V129.13H155.43V112.77L152.23 113.87Z" fill="#10376D"/>
<path d="M35.4399 6.63H32.1801V35.08H26.0601L11.17 15.71V28.77H14.4301V35.09H0.660034V28.77H3.92004V6.64001H0.660034V0.319946H11.16L25.03 18.37V6.63H21.77V0.310059H35.54C35.44 0.310059 35.4399 6.63 35.4399 6.63ZM57.27 22.85C57.27 23.36 57.27 23.87 57.27 24.48H42.0699C41.6599 29.37 43.5 30.8 46.25 30.8C48.6 30.8 50.33 29.27 50.33 26.83H56.86C56.75 31.11 54.51 36.01 45.84 36.01C37.27 36.01 33.3 29.79 33.3 22.86C33.3 16.64 37.38 10.01 45.74 10.01C53.7 10 57.27 15.61 57.27 22.85ZM94.79 16.63H92.55L86.9399 35.5H79.49L76.02 25.2L72.86 35.5H65.3199L59.1 16.63H56.86V10.21H70.01V16.63H66.75L70.22 26.62L74.71 10.2H78.79L84.29 26.62L87.25 16.63H83.99V10.21H95C94.79 10.2 94.79 16.63 94.79 16.63ZM104.07 16.83C104.07 17.75 104.79 18.3599 107.23 19.0699L110.8 20.1899C114.06 21.3099 118.04 23.66 118.04 28.14C118.04 33.34 114.16 35.89 109.27 35.89C105.39 35.89 102.44 34.05 101.62 33.13V35.27H95.2V26.5H101.52C101.72 29.35 104.28 30.88 106.52 30.88C108.36 30.88 109.28 30.07 109.28 29.15C109.28 28.03 108.56 27.31 105.4 26.3L102.24 25.28C99.08 24.26 95.51 21.91 95.51 17.63C95.51 12.43 100.1 9.88 103.97 9.88C108.05 9.88 109.99 11 111.01 12.12V10.1899H117.43V18.04H110.81C110.7 15.9 108.67 14.98 106.53 14.98C104.79 15.09 104.07 15.81 104.07 16.83ZM156.49 16.63H154.25L148.64 35.5H141.19L137.72 25.2L134.56 35.5H127.02L120.8 16.63H118.56V10.21H131.71V16.63H128.45L131.92 26.62L136.3 10.2H140.38L145.88 26.62L148.84 16.63H145.48V10.21H156.49V16.63ZM179.74 22.85C179.74 23.36 179.74 23.87 179.74 24.48H164.64C164.23 29.37 166.07 30.8 168.82 30.8C171.17 30.8 172.9 29.27 172.9 26.83H179.43C179.32 31.11 176.98 36.01 168.41 36.01C159.74 36.01 155.76 29.79 155.76 22.86C155.76 16.64 159.94 10.01 168.3 10.01C176.27 10 179.74 15.51 179.74 22.85ZM204.62 22.74C204.62 23.25 204.62 23.76 204.62 24.37H189.52C189.11 29.26 190.95 30.6899 193.7 30.6899C196.05 30.6899 197.78 29.16 197.78 26.72H204.31C204.2 31 201.86 35.9 193.29 35.9C184.62 35.9 180.64 29.68 180.64 22.75C180.64 16.53 184.82 9.90002 193.18 9.90002C201.15 9.90002 204.62 15.4 204.62 22.74ZM232.05 35.39H224.51L216.66 25.09L214.11 27.02V29.0601H216.35V35.48H204.62V29.16H206.86V6.72998H203.6V0.310059H214.1V20.5L219.4 16.62H216.14V10.2H230.11V16.62H227.87L222.37 20.7L228.69 28.96H231.95C232.05 29.07 232.05 35.39 232.05 35.39ZM189.53 20.3H197.79C197.79 16.73 195.44 15.3 193.82 15.3C191.77 15.3 189.63 16.93 189.53 20.3ZM164.64 20.3H172.9C172.9 16.73 170.55 15.3 168.82 15.3C166.89 15.4 164.75 17.04 164.64 20.3ZM42.17 20.4H50.4301C50.4301 16.83 48.08 15.4 46.35 15.4C44.32 15.4 42.28 17.04 42.17 20.4Z" fill="#10376D"/>
</svg>
