<svg width="256" height="132" viewBox="0 0 256 132" fill="none" xmlns="http://www.w3.org/2000/svg">
<path fill-rule="evenodd" clip-rule="evenodd" d="M162.72 11.61C165.95 10.05 170.36 9.93999 173.22 11.36C176.44 12.96 178.33 16.1701 178.81 20.8101C178.87 21.3601 178.9 21.91 178.89 22.46L178.86 22.98L163.46 23.03L163.49 23.9301C163.56 26.0201 164.01 27.88 164.85 29.49C165.23 30.22 165.53 30.62 166.27 31.36C167.93 33.03 169.59 33.6801 172.2 33.6801C174.09 33.6801 175.46 33.3 176.88 32.39C177.28 32.14 177.68 31.92 177.78 31.92C178 31.92 178.5 32.56 178.5 32.84C178.5 33.29 177.01 34.77 175.55 35.74C174.36 36.54 172.47 37.2701 170.82 37.55C169.67 37.75 167.09 37.74 165.96 37.54C160.8 36.61 157.1 32.98 155.9 27.62C155.75 26.93 155.68 26.16 155.64 24.67C155.58 22.31 155.77 20.85 156.38 19.03C157.56 15.56 159.67 13.09 162.72 11.61ZM137.67 0.0699463C137.77 0.0699463 137.78 1.41995 137.73 6.06995L137.72 12.08C137.75 12.08 138.14 11.91 138.58 11.71C139.92 11.09 141.16 10.83 142.95 10.76C144.15 10.72 144.7 10.75 145.31 10.87C149.32 11.7 152.29 14.9601 153.32 19.6801C153.59 20.9101 153.69 23.97 153.51 25.51C153.36 26.82 152.92 28.58 152.47 29.72C150.76 34.03 147.08 36.85 142.2 37.58C141.08 37.75 137.55 37.77 136.03 37.62C134.26 37.39 132.49 37.1 130.74 36.75L129.98 36.58L130.04 32.53L130.11 12.29L129.8 5.93994C129.55 4.98994 129.19 4.33002 128.76 4.02002C128.59 3.90002 128.14 3.73001 127.75 3.64001C126.45 3.35001 126.52 3.40006 126.49 2.81006C126.47 2.47006 126.51 2.25005 126.59 2.18005C126.71 2.09005 137.34 0.0699561 137.68 0.0799561L137.67 0.0699463ZM88.03 11.72C91.91 9.78997 97.37 9.91001 100.96 12.01C104.19 13.9 106.15 17.26 106.69 21.85C106.86 23.25 106.75 26.2101 106.49 27.4301C105.42 32.4301 102.29 35.93 97.72 37.24C97.16 37.4 96.59 37.52 96.02 37.61C95.09 37.74 92.24 37.74 91.33 37.61C88.81 37.25 86.6 36.18 84.91 34.52C83.51 33.14 82.59 31.61 81.92 29.53C80.87 26.27 80.87 22.09 81.92 18.9C82.94 15.81 85.23 13.12 88.03 11.72ZM198.29 11.58L198.67 11.74L198.74 13.85L198.82 17.3L198.84 18.65L198.34 18.84C197.54 19.13 197.49 19.1001 197.05 17.9301C195.81 14.6601 194.36 13.11 192.12 12.64C190.75 12.35 189.6 12.66 188.77 13.54C188.12 14.23 187.87 14.84 187.81 15.87C187.74 16.98 187.94 17.59 188.63 18.33C189.47 19.25 190.86 20.0401 193.61 21.1801C196.99 22.5801 198.6 23.77 199.47 25.51C200.04 26.64 200.2 27.54 200.14 29.28C200.1 30.58 200.06 30.85 199.76 31.74C198.79 34.59 196.59 36.47 193.2 37.35C192.05 37.65 191.89 37.6599 189.6 37.6899C188.3 37.6999 187.02 37.7 186.79 37.67C184.94 37.47 181.98 36.83 181 36.41L180.52 36.2L180.45 33.84L180.36 29.98L180.33 28.48L180.62 28.34C180.76 28.26 181.1 28.2001 181.34 28.1801L181.76 28.16L182.12 29.04C183.52 32.47 185.17 34.32 187.31 34.88C188.13 35.09 189.67 35.1 190.27 34.88C191.97 34.28 192.9 33.01 192.91 31.26C192.92 29.26 191.85 28.2601 187.86 26.6801L187.45 26.52C184.77 25.48 183.84 24.9501 182.72 23.8101C181.52 22.5901 180.94 21.2 180.84 19.26C180.7 16.92 181.45 14.95 183.08 13.27C184.72 11.58 186.85 10.66 189.76 10.4C192.32 10.17 196.24 10.7001 198.3 11.5601L198.29 11.58ZM70.41 0.719971L84.77 0.75L84.84 1.16003C84.88 1.39003 84.94 3.71998 84.97 6.34998L85.04 11.12L84.3 11.34C83.19 11.68 83.19 11.68 82.69 10.36C81.46 7.11999 80.05 5.26006 78.12 4.31006C76.84 3.68006 76.22 3.58996 72.81 3.57996H69.13L69.07 4.12C68.97 5.1 68.81 11.27 68.8 14.47V17.86L69.76 17.85L72.08 17.76C73.2 17.69 73.54 17.63 74.01 17.42C75.16 16.89 75.95 15.7199 76.43 13.8199L76.68 12.84L77.53 12.8101L78.38 12.78V25.21L76.68 25.15L76.44 24.17C75.99 22.33 75.11 21 74.04 20.53C73.54 20.31 72.31 20.19 69.93 20.12L68.81 20.09V22.4301L69.13 30.28C69.38 32.89 70.05 34.32 71.25 34.84C71.48 34.94 72.21 35.1 72.86 35.2C73.52 35.2999 74.14 35.42 74.24 35.47C74.49 35.61 74.51 36.9501 74.26 37.05C74.06 37.1301 55.7 37.12 55.51 37.04C55.42 37.01 55.37 36.75 55.37 36.27V36.04C55.38 35.42 55.48 35.42 56.98 35.15C58.26 34.91 58.72 34.6699 59.3 33.9399C60.4 32.5099 60.63 29.76 60.63 18.45C60.63 7.81995 60.43 5.58994 59.29 3.93994C58.79 3.20994 57.94 2.82002 56.52 2.65002L55.43 2.51001L55.4 1.66003L55.38 0.829956L55.72 0.77002C55.89 0.72002 62.51 0.699971 70.41 0.719971ZM125.47 10.3199C126.9 10.3199 128.34 10.78 128.34 11.25C128.34 11.56 125.81 18.2 125.67 18.25C125.6 18.28 125.11 18.09 124.57 17.83C123.46 17.3 122.41 17.04 121.39 17.04C120.12 17.04 118.71 17.51 118.15 18.1C117.91 18.35 117.91 18.37 117.85 22.17C117.79 25.93 117.92 30.52 118.13 32.37C118.31 33.94 118.73 34.72 119.6 35.08C119.89 35.2 121.72 35.45 122.32 35.45C122.36 35.45 122.39 35.81 122.37 36.25L122.34 37.05L114.64 37.08C110.4 37.09 106.88 37.07 106.8 37.02C106.71 36.96 106.67 36.72 106.7 36.22L106.73 35.51L107.09 35.4301C107.29 35.3901 107.72 35.3 108.05 35.24C109.06 35.05 109.64 34.5099 109.96 33.4399C110.22 32.5699 110.34 29.8 110.35 24.22V23.26C110.34 17.25 110.18 15.75 109.52 14.88C109.14 14.38 108.87 14.2399 107.96 14.0699L106.91 13.87C106.7 13.83 106.68 13.76 106.68 13.25C106.68 12.76 106.71 12.67 106.91 12.58C107.22 12.45 117.53 10.4 117.86 10.4H118.12L118.07 11.9301L117.97 14.64L117.92 15.83L118.29 15.16C119.49 13.02 120.83 11.69 122.61 10.87C123.6 10.45 124.26 10.3099 125.47 10.3199ZM96.05 13.05C95.06 12.16 93.52 11.87 92.41 12.36C90.79 13.08 89.75 15.2 89.25 18.8C88.9 21.36 88.94 26.5899 89.32 28.9399C89.93 32.6499 91.14 34.99 92.85 35.76C93.54 36.07 94.8 36.05 95.51 35.72C97.48 34.81 98.53 32.19 98.87 27.37C99.36 20.64 98.25 15.02 96.05 13.05ZM141.87 13.89C140.93 13.45 139.61 13.39 138.4 13.75L137.57 13.99L137.48 17.25C137.36 21.36 137.55 35.4 137.73 35.61C137.79 35.69 138.02 35.77 138.23 35.79C139.17 35.89 140.22 35.86 140.72 35.71C141.48 35.49 142.46 34.7999 143.05 34.0699C144.26 32.5699 145.13 30.24 145.61 27.23C145.84 25.79 145.87 21.7301 145.66 20.5601C145.02 16.9801 143.78 14.78 141.9 13.9L141.87 13.89ZM167.83 12.09C167.71 12.09 167.36 12.16 167.05 12.26C166.62 12.39 166.35 12.56 165.8 13.13C164.78 14.15 164.04 15.81 163.57 18.11C163.38 19.06 163.18 20.9 163.26 21.03C163.32 21.12 167.98 21.0599 170.16 20.9399L171.24 20.88L171.18 19.23C171.05 15.95 170.41 13.74 169.28 12.71C168.85 12.33 168.3 12.08 167.82 12.08V12.09H167.83Z" fill="#10376D"/>
<path d="M0.150024 79.27V77.4H14.56V79.27H8.28998V96.9301H6.41998V79.27H0.150024Z" fill="#10376D"/>
<path d="M17.67 96.9301V76.52H19.54V85.87C19.92 85.07 20.53 84.46 21.38 84.04C22.23 83.62 23.08 83.41 23.95 83.41C25.55 83.41 26.8 83.93 27.7 84.96C28.6 85.99 29.04 87.41 29.02 89.22V96.9301H27.15V89.22C27.15 87.99 26.87 87.03 26.3 86.33C25.74 85.63 24.95 85.28 23.94 85.28C23.39 85.28 22.86 85.36 22.35 85.53C21.85 85.7 21.38 85.95 20.95 86.28C20.52 86.61 20.18 87.07 19.92 87.66C19.66 88.25 19.53 88.93 19.53 89.71V96.9301H17.67Z" fill="#10376D"/>
<path d="M32.56 90.26C32.56 88.21 33.2 86.55 34.47 85.29C35.74 84.03 37.34 83.41 39.26 83.41C41.17 83.41 42.73 84.03 43.94 85.28C45.15 86.53 45.75 88.19 45.75 90.26C45.75 90.68 45.74 90.98 45.72 91.15H34.43C34.6 92.42 35.13 93.44 36.01 94.2C36.89 94.96 37.95 95.34 39.19 95.34C40.08 95.34 40.9 95.14 41.63 94.73C42.36 94.32 42.93 93.76 43.33 93.04C43.54 93.1 43.87 93.17 44.32 93.27C44.77 93.37 45.07 93.43 45.23 93.47C44.7 94.64 43.89 95.56 42.82 96.22C41.74 96.88 40.54 97.21 39.2 97.21C37.95 97.21 36.81 96.93 35.8 96.36C34.79 95.79 34 94.98 33.43 93.91C32.85 92.84 32.56 91.63 32.56 90.26ZM34.43 89.36H43.74C43.55 88.1 43.05 87.11 42.24 86.38C41.42 85.65 40.41 85.28 39.19 85.28C37.94 85.28 36.89 85.65 36.01 86.39C35.14 87.13 34.61 88.12 34.43 89.36Z" fill="#10376D"/>
<path d="M56.35 83.21C56.45 81.82 56.74 80.58 57.21 79.49C57.69 78.41 58.21 77.63 58.78 77.17L59.86 77.53C59.35 78.23 58.95 79.07 58.65 80.04C58.35 81.01 58.21 82.07 58.21 83.21H56.35ZM59.64 83.21C59.74 81.82 60.03 80.58 60.51 79.49C60.98 78.41 61.51 77.63 62.08 77.17L63.16 77.53C62.65 78.23 62.25 79.07 61.95 80.04C61.65 81.01 61.5 82.07 61.51 83.21H59.64Z" fill="#10376D"/>
<path d="M63.51 96.9301L71.02 77.4H73L80.51 96.9301H78.49L76.51 91.8199H67.47L65.5 96.9301H63.51ZM68.15 90.04H75.86L72 80L68.15 90.04Z" fill="#10376D"/>
<path d="M83.34 103.33V83.6899H85.21V85.95C85.69 85.15 86.39 84.5199 87.32 84.0699C88.24 83.6199 89.21 83.4 90.22 83.4C92.13 83.4 93.74 84.05 95.03 85.34C96.32 86.64 96.97 88.31 96.97 90.37C96.97 92.42 96.33 94.0699 95.04 95.3199C93.75 96.5699 92.15 97.2 90.23 97.2C89.2 97.2 88.23 96.99 87.31 96.58C86.39 96.17 85.7 95.57 85.22 94.79V103.33H83.34ZM85.2 90.38C85.2 91.17 85.35 91.88 85.64 92.53C85.93 93.18 86.33 93.7 86.81 94.1C87.29 94.5 87.83 94.81 88.41 95.02C88.99 95.23 89.59 95.34 90.2 95.34C91.6 95.34 92.77 94.89 93.69 93.98C94.61 93.08 95.08 91.88 95.08 90.38C95.08 88.9 94.61 87.69 93.68 86.72C92.75 85.76 91.59 85.27 90.2 85.27C88.79 85.27 87.6 85.73 86.64 86.63C85.68 87.55 85.2 88.8 85.2 90.38Z" fill="#10376D"/>
<path d="M100.68 103.33V83.6899H102.55V85.95C103.03 85.15 103.73 84.5199 104.66 84.0699C105.58 83.6199 106.55 83.4 107.56 83.4C109.47 83.4 111.08 84.05 112.37 85.34C113.66 86.64 114.31 88.31 114.31 90.37C114.31 92.42 113.67 94.0699 112.38 95.3199C111.09 96.5699 109.49 97.2 107.57 97.2C106.54 97.2 105.57 96.99 104.65 96.58C103.73 96.17 103.04 95.57 102.56 94.79V103.33H100.68ZM102.54 90.38C102.54 91.17 102.69 91.88 102.98 92.53C103.28 93.18 103.67 93.7 104.15 94.1C104.63 94.5 105.17 94.81 105.75 95.02C106.33 95.23 106.93 95.34 107.54 95.34C108.94 95.34 110.11 94.89 111.03 93.98C111.95 93.08 112.42 91.88 112.42 90.38C112.42 88.9 111.95 87.69 111.02 86.72C110.09 85.76 108.93 85.27 107.54 85.27C106.13 85.27 104.94 85.73 103.98 86.63C103.02 87.55 102.54 88.8 102.54 90.38Z" fill="#10376D"/>
<path d="M118.02 96.9301V76.52H119.89V96.9301H118.02Z" fill="#10376D"/>
<path d="M123.55 90.26C123.55 88.21 124.19 86.55 125.46 85.29C126.73 84.03 128.33 83.41 130.25 83.41C132.16 83.41 133.72 84.03 134.93 85.28C136.14 86.53 136.74 88.19 136.74 90.26C136.74 90.68 136.73 90.98 136.71 91.15H125.42C125.59 92.42 126.12 93.44 127 94.2C127.88 94.96 128.94 95.34 130.18 95.34C131.07 95.34 131.89 95.14 132.62 94.73C133.35 94.32 133.92 93.76 134.32 93.04C134.53 93.1 134.86 93.17 135.31 93.27C135.76 93.37 136.06 93.43 136.22 93.47C135.69 94.64 134.88 95.56 133.81 96.22C132.73 96.88 131.53 97.21 130.19 97.21C128.94 97.21 127.8 96.93 126.79 96.36C125.78 95.79 124.99 94.98 124.42 93.91C123.84 92.84 123.55 91.63 123.55 90.26ZM125.42 89.36H134.73C134.54 88.1 134.04 87.11 133.23 86.38C132.41 85.65 131.4 85.28 130.18 85.28C128.93 85.28 127.88 85.65 127 86.39C126.13 87.13 125.61 88.12 125.42 89.36Z" fill="#10376D"/>
<path d="M147.09 91.3101H148.96C148.96 91.8001 149.07 92.28 149.28 92.76C149.49 93.24 149.78 93.67 150.16 94.05C150.53 94.43 151 94.74 151.57 94.98C152.14 95.22 152.75 95.33 153.4 95.33C154.76 95.33 155.86 95.01 156.69 94.38C157.52 93.75 158.02 93 158.2 92.13C158.37 91.01 158.11 90.1199 157.4 89.4399C156.69 88.7599 155.72 88.28 154.48 87.99L151.86 87.4C148.79 86.71 147.26 85.07 147.26 82.5C147.26 81.48 147.55 80.55 148.15 79.72C148.74 78.89 149.5 78.2599 150.43 77.8199C151.36 77.3799 152.34 77.16 153.39 77.16C155.15 77.16 156.61 77.67 157.78 78.7C158.94 79.72 159.52 81.07 159.52 82.74H157.65C157.65 81.62 157.25 80.73 156.44 80.05C155.63 79.37 154.62 79.03 153.39 79.03C152.26 79.03 151.27 79.35 150.42 80C149.57 80.65 149.14 81.48 149.14 82.48C149.14 82.78 149.18 83.0599 149.25 83.3199C149.32 83.5799 149.46 83.86 149.66 84.16C149.86 84.46 150.18 84.73 150.62 84.98C151.06 85.22 151.61 85.4199 152.26 85.5699L154.93 86.16C155.75 86.35 156.49 86.6 157.14 86.92C157.79 87.24 158.37 87.65 158.87 88.15C159.37 88.65 159.73 89.26 159.95 89.99C160.17 90.72 160.21 91.5399 160.07 92.4399C159.95 93.0299 159.72 93.6 159.39 94.14C159.06 94.69 158.63 95.19 158.1 95.65C157.57 96.11 156.9 96.48 156.09 96.76C155.28 97.04 154.39 97.1801 153.42 97.1801C152.18 97.1801 151.07 96.89 150.09 96.29C149.11 95.7 148.36 94.9599 147.86 94.0699C147.34 93.2099 147.09 92.2801 147.09 91.3101Z" fill="#10376D"/>
<path d="M162.18 85.37V83.7H164.6V78.72H166.47V83.7H169.31V85.37H166.47V96.9301H164.6V85.37H162.18Z" fill="#10376D"/>
<path d="M172.23 93.91C171.6 92.84 171.28 91.63 171.28 90.27C171.28 88.91 171.6 87.71 172.23 86.65C172.86 85.59 173.7 84.79 174.74 84.24C175.78 83.69 176.93 83.41 178.2 83.41C179.47 83.41 180.62 83.69 181.66 84.24C182.7 84.79 183.54 85.6 184.17 86.65C184.8 87.7 185.12 88.91 185.12 90.27C185.12 91.63 184.8 92.84 184.17 93.91C183.54 94.98 182.7 95.8 181.65 96.36C180.6 96.92 179.45 97.2 178.19 97.2C176.93 97.2 175.78 96.92 174.74 96.36C173.7 95.8 172.86 94.98 172.23 93.91ZM174.61 86.65C173.64 87.57 173.15 88.77 173.15 90.27C173.15 91.76 173.64 92.98 174.61 93.92C175.58 94.86 176.78 95.33 178.19 95.33C179.6 95.33 180.8 94.86 181.78 93.92C182.76 92.98 183.25 91.76 183.25 90.27C183.25 88.77 182.76 87.57 181.79 86.65C180.82 85.73 179.62 85.27 178.19 85.27C176.76 85.27 175.58 85.73 174.61 86.65Z" fill="#10376D"/>
<path d="M188.8 96.9301V83.7H190.67V86.6801C190.99 85.5601 191.47 84.74 192.09 84.21C192.71 83.68 193.51 83.41 194.48 83.41C194.91 83.41 195.34 83.4599 195.77 83.5699C196.2 83.6799 196.48 83.79 196.62 83.91L196.4 85.73C195.8 85.42 195.16 85.27 194.48 85.27C193.62 85.27 192.9 85.59 192.31 86.23C191.72 86.87 191.3 87.68 191.05 88.66C190.8 89.64 190.68 90.75 190.68 91.98V96.92H188.8V96.9301Z" fill="#10376D"/>
<path d="M198.17 90.26C198.17 88.21 198.81 86.55 200.08 85.29C201.35 84.03 202.95 83.41 204.87 83.41C206.78 83.41 208.34 84.03 209.55 85.28C210.76 86.53 211.36 88.19 211.36 90.26C211.36 90.68 211.35 90.98 211.33 91.15H200.04C200.21 92.42 200.74 93.44 201.62 94.2C202.5 94.96 203.56 95.34 204.8 95.34C205.69 95.34 206.51 95.14 207.24 94.73C207.97 94.32 208.54 93.76 208.94 93.04C209.15 93.1 209.48 93.17 209.93 93.27C210.38 93.37 210.68 93.43 210.84 93.47C210.31 94.64 209.5 95.56 208.43 96.22C207.35 96.88 206.15 97.21 204.81 97.21C203.55 97.21 202.42 96.93 201.41 96.36C200.4 95.79 199.61 94.98 199.04 93.91C198.46 92.84 198.17 91.63 198.17 90.26ZM200.04 89.36H209.35C209.16 88.1 208.66 87.11 207.85 86.38C207.03 85.65 206.02 85.28 204.8 85.28C203.55 85.28 202.5 85.65 201.62 86.39C200.75 87.13 200.23 88.12 200.04 89.36Z" fill="#10376D"/>
<path d="M213.65 82.84C214.78 81.29 215.32 79.4001 215.3 77.1801H217.17C217.07 78.5701 216.78 79.81 216.31 80.9C215.84 81.99 215.31 82.76 214.74 83.22L213.65 82.84ZM216.93 82.84C218.06 81.29 218.6 79.4001 218.58 77.1801H220.45C220.35 78.5701 220.06 79.81 219.59 80.9C219.12 81.99 218.59 82.76 218.02 83.22L216.93 82.84Z" fill="#10376D"/>
<path d="M231.82 93.91C231.19 92.84 230.87 91.63 230.87 90.27C230.87 88.91 231.19 87.71 231.82 86.65C232.45 85.59 233.29 84.79 234.33 84.24C235.37 83.69 236.52 83.41 237.79 83.41C239.06 83.41 240.21 83.69 241.25 84.24C242.29 84.79 243.13 85.6 243.76 86.65C244.39 87.7 244.71 88.91 244.71 90.27C244.71 91.63 244.39 92.84 243.76 93.91C243.13 94.98 242.29 95.8 241.24 96.36C240.19 96.92 239.04 97.2 237.78 97.2C236.52 97.2 235.37 96.92 234.33 96.36C233.29 95.8 232.45 94.98 231.82 93.91ZM234.2 86.65C233.23 87.57 232.74 88.77 232.74 90.27C232.74 91.76 233.23 92.98 234.2 93.92C235.17 94.86 236.37 95.33 237.78 95.33C239.19 95.33 240.39 94.86 241.37 93.92C242.35 92.98 242.84 91.76 242.84 90.27C242.84 88.77 242.35 87.57 241.38 86.65C240.41 85.73 239.21 85.27 237.78 85.27C236.35 85.27 235.17 85.73 234.2 86.65Z" fill="#10376D"/>
<path d="M246.69 85.37V83.7H249.3V82.16C249.3 78.4 250.84 76.51 253.92 76.51H255.33V78.29H253.91C253.43 78.29 253.01 78.37 252.66 78.53C252.31 78.69 252.04 78.89 251.85 79.13C251.66 79.37 251.51 79.67 251.4 80.04C251.29 80.4 251.23 80.7501 251.2 81.0601C251.17 81.3801 251.16 81.74 251.17 82.15V83.6899H254.45V85.36H251.17V96.92H249.3V85.36H246.69V85.37Z" fill="#10376D"/>
<path d="M24.78 131.13L27.17 111.6H29.04L36.47 126.82L43.86 111.6H45.73L48.11 131.13H46.27L44.3 114.95L37.4 129H35.53L28.61 114.95L26.63 131.13H24.78Z" fill="#10376D"/>
<path d="M51.02 124.47C51.02 122.42 51.67 120.77 52.95 119.5C54.24 118.24 55.84 117.6 57.76 117.6C58.78 117.6 59.75 117.81 60.66 118.22C61.57 118.64 62.27 119.24 62.75 120.04V117.89H64.62V131.12H62.75V128.87C62.27 129.66 61.57 130.28 60.65 130.73C59.73 131.17 58.77 131.4 57.76 131.4C55.85 131.4 54.25 130.76 52.96 129.48C51.67 128.2 51.02 126.53 51.02 124.47ZM52.89 124.47C52.89 125.94 53.36 127.15 54.29 128.1C55.22 129.06 56.38 129.53 57.77 129.53C59.18 129.53 60.37 129.08 61.32 128.18C62.28 127.28 62.75 126.04 62.75 124.46C62.75 123.67 62.6 122.95 62.31 122.3C62.01 121.65 61.63 121.12 61.15 120.72C60.67 120.32 60.14 120.01 59.56 119.79C58.98 119.57 58.38 119.46 57.77 119.46C56.37 119.46 55.2 119.92 54.28 120.84C53.35 121.77 52.89 122.98 52.89 124.47Z" fill="#10376D"/>
<path d="M67.73 119.57V117.9H70.15V112.92H72.02V117.9H74.86V119.57H72.02V131.13H70.15V119.57H67.73Z" fill="#10376D"/>
<path d="M76.44 119.57V117.9H78.86V112.92H80.73V117.9H83.57V119.57H80.73V131.13H78.86V119.57H76.44Z" fill="#10376D"/>
<path d="M86.71 131.13V117.9H88.58V120.88C88.9 119.76 89.38 118.94 90 118.41C90.62 117.88 91.42 117.61 92.39 117.61C92.82 117.61 93.25 117.66 93.68 117.77C94.11 117.88 94.39 117.99 94.53 118.11L94.31 119.93C93.71 119.62 93.07 119.47 92.39 119.47C91.53 119.47 90.81 119.79 90.22 120.43C89.63 121.07 89.21 121.88 88.96 122.86C88.71 123.84 88.59 124.95 88.59 126.18V131.12H86.71V131.13Z" fill="#10376D"/>
<path d="M96.08 124.46C96.08 122.41 96.72 120.75 97.99 119.49C99.26 118.23 100.86 117.61 102.78 117.61C104.69 117.61 106.25 118.23 107.46 119.48C108.67 120.73 109.27 122.39 109.27 124.46C109.27 124.88 109.26 125.18 109.24 125.35H97.95C98.12 126.62 98.65 127.64 99.53 128.4C100.41 129.16 101.47 129.54 102.71 129.54C103.6 129.54 104.42 129.34 105.15 128.93C105.88 128.52 106.45 127.96 106.85 127.24C107.06 127.3 107.39 127.37 107.84 127.47C108.29 127.57 108.59 127.63 108.75 127.67C108.22 128.84 107.41 129.76 106.34 130.42C105.26 131.08 104.06 131.41 102.72 131.41C101.47 131.41 100.33 131.13 99.32 130.56C98.31 129.99 97.52 129.18 96.95 128.11C96.38 127.04 96.08 125.83 96.08 124.46ZM97.95 123.56H107.26C107.07 122.31 106.57 121.31 105.76 120.58C104.94 119.85 103.93 119.48 102.71 119.48C101.46 119.48 100.41 119.85 99.53 120.59C98.66 121.33 98.13 122.32 97.95 123.56Z" fill="#10376D"/>
<path d="M111.72 127.34H113.42C113.8 128.86 114.83 129.62 116.53 129.62C117.38 129.62 118.06 129.43 118.57 129.05C119.08 128.67 119.34 128.16 119.34 127.54C119.34 127.07 119.19 126.65 118.88 126.29C118.57 125.93 118.09 125.66 117.43 125.49L115.59 125.07C115.2 124.98 114.86 124.88 114.57 124.77C114.28 124.66 113.96 124.49 113.62 124.27C113.28 124.05 113.01 123.79 112.8 123.5C112.59 123.21 112.43 122.82 112.32 122.35C112.21 121.88 112.19 121.35 112.25 120.76C112.39 119.83 112.87 119.07 113.69 118.49C114.51 117.91 115.47 117.62 116.57 117.62C117.66 117.62 118.58 117.9 119.34 118.47C120.1 119.04 120.56 119.9 120.73 121.05H118.89C118.78 120.54 118.51 120.14 118.08 119.85C117.65 119.55 117.15 119.41 116.57 119.41C115.94 119.41 115.38 119.56 114.91 119.87C114.44 120.18 114.17 120.57 114.11 121.04C114.05 121.34 114.06 121.61 114.12 121.85C114.18 122.09 114.28 122.29 114.39 122.43C114.51 122.58 114.67 122.71 114.87 122.83C115.08 122.95 115.26 123.04 115.44 123.1C115.61 123.16 115.81 123.21 116.03 123.27L117.84 123.7C120.08 124.23 121.2 125.51 121.21 127.55C121.21 128.69 120.75 129.62 119.83 130.34C118.91 131.07 117.76 131.43 116.37 131.43C115.17 131.43 114.11 131.06 113.19 130.32C112.27 129.55 111.78 128.56 111.72 127.34Z" fill="#10376D"/>
<path d="M123.73 127.34H125.43C125.81 128.86 126.84 129.62 128.54 129.62C129.39 129.62 130.07 129.43 130.58 129.05C131.09 128.67 131.35 128.16 131.35 127.54C131.35 127.07 131.2 126.65 130.89 126.29C130.58 125.93 130.1 125.66 129.44 125.49L127.6 125.07C127.21 124.98 126.87 124.88 126.58 124.77C126.29 124.66 125.97 124.49 125.63 124.27C125.29 124.05 125.02 123.79 124.81 123.5C124.6 123.21 124.44 122.82 124.33 122.35C124.22 121.88 124.2 121.35 124.26 120.76C124.4 119.83 124.88 119.07 125.7 118.49C126.52 117.91 127.48 117.62 128.58 117.62C129.67 117.62 130.59 117.9 131.35 118.47C132.11 119.04 132.57 119.9 132.74 121.05H130.9C130.79 120.54 130.52 120.14 130.09 119.85C129.66 119.55 129.16 119.41 128.58 119.41C127.95 119.41 127.39 119.56 126.92 119.87C126.45 120.18 126.18 120.57 126.12 121.04C126.06 121.34 126.07 121.61 126.13 121.85C126.19 122.09 126.29 122.29 126.4 122.43C126.52 122.58 126.68 122.71 126.88 122.83C127.09 122.95 127.27 123.04 127.45 123.1C127.62 123.16 127.82 123.21 128.04 123.27L129.85 123.7C132.09 124.23 133.21 125.51 133.22 127.55C133.22 128.69 132.76 129.62 131.84 130.34C130.92 131.07 129.77 131.43 128.38 131.43C127.18 131.43 126.12 131.06 125.2 130.32C124.28 129.55 123.79 128.56 123.73 127.34Z" fill="#10376D"/>
<path d="M143.65 125.51H145.52C145.52 126 145.63 126.48 145.84 126.96C146.05 127.44 146.34 127.87 146.72 128.25C147.09 128.63 147.56 128.94 148.13 129.18C148.7 129.42 149.31 129.53 149.96 129.53C151.32 129.53 152.42 129.21 153.25 128.58C154.08 127.95 154.58 127.2 154.76 126.33C154.93 125.21 154.67 124.32 153.96 123.64C153.25 122.96 152.28 122.48 151.04 122.19L148.42 121.6C145.35 120.91 143.82 119.27 143.82 116.7C143.82 115.68 144.11 114.75 144.71 113.92C145.3 113.09 146.06 112.46 146.99 112.02C147.92 111.58 148.9 111.36 149.95 111.36C151.71 111.36 153.17 111.87 154.34 112.9C155.5 113.92 156.08 115.27 156.08 116.94H154.21C154.21 115.82 153.81 114.93 153 114.25C152.19 113.57 151.18 113.23 149.95 113.23C148.82 113.23 147.83 113.55 146.98 114.2C146.13 114.85 145.7 115.68 145.7 116.68C145.7 116.98 145.74 117.26 145.81 117.52C145.88 117.78 146.02 118.06 146.22 118.36C146.42 118.66 146.74 118.93 147.18 119.18C147.62 119.42 148.17 119.62 148.82 119.77L151.49 120.36C152.31 120.55 153.05 120.8 153.7 121.12C154.35 121.44 154.93 121.85 155.43 122.35C155.93 122.85 156.29 123.46 156.51 124.19C156.73 124.92 156.77 125.74 156.63 126.64C156.51 127.23 156.28 127.8 155.95 128.34C155.62 128.89 155.19 129.39 154.66 129.85C154.13 130.31 153.46 130.68 152.65 130.96C151.84 131.24 150.95 131.38 149.98 131.38C148.74 131.38 147.63 131.09 146.65 130.49C145.67 129.89 144.92 129.16 144.42 128.27C143.9 127.41 143.65 126.48 143.65 125.51Z" fill="#10376D"/>
<path d="M160.25 131.13V117.9H162.12V120.88C162.44 119.76 162.92 118.94 163.54 118.41C164.16 117.88 164.96 117.61 165.93 117.61C166.36 117.61 166.79 117.66 167.22 117.77C167.65 117.88 167.93 117.99 168.07 118.11L167.85 119.93C167.25 119.62 166.61 119.47 165.93 119.47C165.07 119.47 164.35 119.79 163.76 120.43C163.17 121.07 162.75 121.88 162.5 122.86C162.25 123.84 162.13 124.95 162.13 126.18V131.12H160.25V131.13Z" fill="#10376D"/>
<path d="M170.57 128.11C169.94 127.04 169.62 125.83 169.62 124.47C169.62 123.11 169.94 121.91 170.57 120.85C171.2 119.79 172.04 118.99 173.08 118.44C174.12 117.89 175.27 117.61 176.54 117.61C177.81 117.61 178.96 117.89 180 118.44C181.04 118.99 181.88 119.8 182.51 120.85C183.14 121.9 183.46 123.11 183.46 124.47C183.46 125.83 183.14 127.04 182.51 128.11C181.88 129.18 181.04 130 179.99 130.56C178.94 131.12 177.79 131.4 176.53 131.4C175.27 131.4 174.12 131.12 173.08 130.56C172.04 130 171.2 129.18 170.57 128.11ZM172.95 120.85C171.98 121.77 171.49 122.97 171.49 124.47C171.49 125.96 171.98 127.18 172.95 128.12C173.92 129.06 175.12 129.53 176.53 129.53C177.94 129.53 179.14 129.06 180.12 128.12C181.1 127.18 181.59 125.96 181.59 124.47C181.59 122.97 181.1 121.77 180.13 120.85C179.16 119.93 177.96 119.47 176.53 119.47C175.1 119.47 173.92 119.94 172.95 120.85Z" fill="#10376D"/>
<path d="M185.46 119.57V117.9H187.88V112.92H189.75V117.9H192.59V119.57H189.75V131.13H187.88V119.57H185.46Z" fill="#10376D"/>
<path d="M195.72 131.13V117.9H197.59V120.88C197.91 119.76 198.39 118.94 199.01 118.41C199.63 117.88 200.43 117.61 201.4 117.61C201.83 117.61 202.26 117.66 202.69 117.77C203.12 117.88 203.4 117.99 203.54 118.11L203.32 119.93C202.72 119.62 202.08 119.47 201.4 119.47C200.54 119.47 199.82 119.79 199.23 120.43C198.64 121.07 198.22 121.88 197.97 122.86C197.72 123.84 197.6 124.95 197.6 126.18V131.12H195.72V131.13Z" fill="#10376D"/>
<path d="M205.09 124.46C205.09 122.41 205.73 120.75 207 119.49C208.27 118.23 209.87 117.61 211.79 117.61C213.7 117.61 215.26 118.23 216.47 119.48C217.68 120.73 218.28 122.39 218.28 124.46C218.28 124.88 218.27 125.18 218.25 125.35H206.96C207.13 126.62 207.66 127.64 208.54 128.4C209.42 129.16 210.48 129.54 211.72 129.54C212.61 129.54 213.43 129.34 214.16 128.93C214.89 128.52 215.46 127.96 215.86 127.24C216.07 127.3 216.4 127.37 216.85 127.47C217.3 127.57 217.6 127.63 217.76 127.67C217.23 128.84 216.42 129.76 215.35 130.42C214.27 131.08 213.07 131.41 211.73 131.41C210.48 131.41 209.34 131.13 208.33 130.56C207.32 129.99 206.53 129.18 205.96 128.11C205.38 127.04 205.09 125.83 205.09 124.46ZM206.96 123.56H216.27C216.08 122.31 215.58 121.31 214.77 120.58C213.95 119.85 212.94 119.48 211.72 119.48C210.47 119.48 209.42 119.85 208.54 120.59C207.67 121.33 207.15 122.32 206.96 123.56Z" fill="#10376D"/>
<path d="M220.73 127.34H222.43C222.81 128.86 223.84 129.62 225.54 129.62C226.39 129.62 227.07 129.43 227.58 129.05C228.09 128.67 228.35 128.16 228.35 127.54C228.35 127.07 228.2 126.65 227.89 126.29C227.58 125.93 227.1 125.66 226.44 125.49L224.6 125.07C224.21 124.98 223.87 124.88 223.58 124.77C223.29 124.66 222.97 124.49 222.63 124.27C222.29 124.05 222.02 123.79 221.81 123.5C221.6 123.21 221.44 122.82 221.33 122.35C221.22 121.88 221.2 121.35 221.26 120.76C221.4 119.83 221.88 119.07 222.7 118.49C223.52 117.91 224.48 117.62 225.58 117.62C226.67 117.62 227.59 117.9 228.35 118.47C229.11 119.04 229.57 119.9 229.74 121.05H227.9C227.79 120.54 227.52 120.14 227.09 119.85C226.66 119.55 226.16 119.41 225.58 119.41C224.95 119.41 224.39 119.56 223.92 119.87C223.45 120.18 223.18 120.57 223.12 121.04C223.06 121.34 223.07 121.61 223.13 121.85C223.19 122.09 223.29 122.29 223.4 122.43C223.52 122.58 223.68 122.71 223.88 122.83C224.09 122.95 224.27 123.04 224.45 123.1C224.62 123.16 224.82 123.21 225.04 123.27L226.85 123.7C229.09 124.23 230.21 125.51 230.22 127.55C230.22 128.69 229.76 129.62 228.84 130.34C227.92 131.07 226.77 131.43 225.38 131.43C224.18 131.43 223.12 131.06 222.2 130.32C221.28 129.58 220.79 128.56 220.73 127.34Z" fill="#10376D"/>
</svg>
