<svg width="278" height="132" viewBox="0 0 278 132" fill="none" xmlns="http://www.w3.org/2000/svg">
<path d="M0.22998 73.89V71.99H14.85V73.89H8.48999V91.8199H6.58997V73.89H0.22998Z" fill="#10376D"/>
<path d="M14.15 85.0601C14.15 82.9801 14.8 81.3 16.11 80.02C17.42 78.74 19.05 78.1 21 78.1C22.04 78.1 23.02 78.31 23.95 78.73C24.87 79.15 25.5799 79.7699 26.0699 80.5699V78.39H27.97V91.8199H26.0699V89.54C25.5799 90.35 24.8699 90.9801 23.9399 91.4301C23.0099 91.8801 22.03 92.1 21.01 92.1C19.07 92.1 17.45 91.45 16.13 90.15C14.81 88.84 14.15 87.1501 14.15 85.0601ZM16.05 85.0601C16.05 86.5501 16.52 87.78 17.47 88.75C18.42 89.72 19.59 90.2 21 90.2C22.43 90.2 23.64 89.74 24.61 88.83C25.58 87.92 26.0699 86.6601 26.0699 85.0601C26.0699 84.2601 25.92 83.53 25.62 82.87C25.32 82.21 24.9299 81.68 24.4399 81.27C23.9499 80.86 23.4099 80.5399 22.8199 80.3199C22.2299 80.0999 21.62 79.99 21.01 79.99C19.58 79.99 18.4 80.46 17.46 81.39C16.52 82.32 16.05 83.5401 16.05 85.0601Z" fill="#10376D"/>
<path d="M32.6801 91.8199V71.1H34.58V91.8199H32.6801Z" fill="#10376D"/>
<path d="M39.23 91.8199V71.1H41.13V83.7L46.45 78.39H49.15L43.4 84.14L50.6801 91.8199H48.0699L41.13 84.49V91.8199H39.23Z" fill="#10376D"/>
<path d="M53.12 74.36C52.83 74.09 52.6801 73.76 52.6801 73.37C52.6801 72.98 52.83 72.65 53.12 72.39C53.41 72.13 53.76 72 54.16 72C54.56 72 54.9099 72.13 55.1899 72.39C55.4799 72.65 55.62 72.98 55.62 73.37C55.62 73.76 55.4799 74.09 55.1899 74.36C54.8999 74.63 54.56 74.76 54.16 74.76C53.76 74.76 53.41 74.63 53.12 74.36ZM53.1801 91.8199V78.39H55.08V91.8199H53.1801Z" fill="#10376D"/>
<path d="M59.72 91.8199V78.39H61.62V80.6C62 79.79 62.63 79.16 63.48 78.74C64.34 78.31 65.21 78.1 66.09 78.1C67.71 78.1 68.98 78.62 69.89 79.67C70.8 80.72 71.25 82.16 71.23 84V91.83H69.33V84C69.33 82.75 69.04 81.7801 68.47 81.0601C67.9 80.3401 67.1 79.99 66.08 79.99C65.52 79.99 64.98 80.07 64.47 80.24C63.96 80.41 63.49 80.66 63.05 81C62.61 81.34 62.26 81.81 62 82.4C61.74 83 61.61 83.69 61.61 84.48V91.8101H59.72V91.8199Z" fill="#10376D"/>
<path d="M74.84 85.12C74.84 83.04 75.5001 81.34 76.8101 80.04C78.1201 78.74 79.7499 78.09 81.6899 78.09C82.7099 78.09 83.69 78.31 84.62 78.76C85.55 79.21 86.26 79.84 86.75 80.64V78.38H88.65V89.67C88.65 95.56 86.26 98.51 81.48 98.51C80.32 98.51 79.23 98.23 78.22 97.67C77.2 97.11 76.37 96.2801 75.73 95.1801L77.35 94.22C77.83 95.02 78.43 95.61 79.16 96.01C79.89 96.41 80.66 96.61 81.49 96.61C82.14 96.61 82.72 96.53 83.24 96.38C83.76 96.23 84.24 95.98 84.7 95.63C85.15 95.28 85.53 94.83 85.83 94.28C86.13 93.73 86.36 93.04 86.53 92.21C86.7 91.38 86.78 90.42 86.77 89.35C86.35 90.2 85.66 90.87 84.7 91.35C83.74 91.84 82.74 92.08 81.71 92.08C79.76 92.08 78.1299 91.44 76.8199 90.16C75.4899 88.89 74.84 87.21 74.84 85.12ZM76.73 85.14C76.73 86.66 77.2 87.8801 78.14 88.8101C79.08 89.7401 80.2599 90.2 81.6899 90.2C82.3099 90.2 82.91 90.09 83.5 89.87C84.09 89.65 84.63 89.3401 85.12 88.9301C85.61 88.5301 86 87.99 86.3 87.33C86.6 86.67 86.75 85.94 86.75 85.14C86.75 83.54 86.27 82.28 85.29 81.36C84.32 80.44 83.1201 79.98 81.6801 79.98C80.2701 79.98 79.1 80.4599 78.15 81.4399C77.21 82.4099 76.73 83.65 76.73 85.14Z" fill="#10376D"/>
<path d="M98.65 73.89V71.99H113.27V73.89H106.91V91.8199H105.01V73.89H98.65Z" fill="#10376D"/>
<path d="M116.43 91.8199V71.1H118.33V80.6C118.71 79.79 119.34 79.16 120.19 78.74C121.05 78.31 121.92 78.1 122.8 78.1C124.42 78.1 125.69 78.62 126.6 79.67C127.51 80.72 127.96 82.16 127.94 84V91.83H126.04V84C126.04 82.75 125.75 81.7801 125.18 81.0601C124.61 80.3401 123.81 79.99 122.79 79.99C122.23 79.99 121.69 80.07 121.18 80.24C120.67 80.41 120.2 80.66 119.76 81C119.32 81.34 118.97 81.81 118.71 82.4C118.45 83 118.32 83.69 118.32 84.48V91.8101H116.43V91.8199Z" fill="#10376D"/>
<path d="M131.55 85.04C131.55 82.96 132.2 81.28 133.49 80C134.78 78.72 136.4 78.09 138.35 78.09C140.29 78.09 141.87 78.72 143.1 79.99C144.33 81.26 144.94 82.94 144.94 85.04C144.94 85.47 144.93 85.7699 144.91 85.9399H133.45C133.63 87.2299 134.16 88.26 135.05 89.04C135.94 89.81 137.02 90.2 138.28 90.2C139.19 90.2 140.01 89.99 140.75 89.58C141.49 89.17 142.07 88.6 142.48 87.87C142.7 87.93 143.03 88 143.48 88.1C143.93 88.2 144.24 88.27 144.4 88.3C143.86 89.49 143.04 90.42 141.95 91.09C140.86 91.76 139.63 92.09 138.28 92.09C137.01 92.09 135.86 91.8 134.83 91.22C133.81 90.64 133 89.82 132.42 88.74C131.84 87.67 131.55 86.43 131.55 85.04ZM133.45 84.13H142.91C142.72 82.86 142.21 81.85 141.38 81.1C140.55 80.36 139.52 79.98 138.28 79.98C137.02 79.98 135.94 80.36 135.06 81.11C134.17 81.87 133.63 82.88 133.45 84.13Z" fill="#10376D"/>
<path d="M155.56 91.8199L157.98 72H159.88L167.42 87.45L174.92 72H176.82L179.24 91.8199H177.37L175.37 75.4L168.37 89.66H166.47L159.44 75.4L157.43 91.8199H155.56Z" fill="#10376D"/>
<path d="M182.19 85.0601C182.19 82.9801 182.84 81.3 184.15 80.02C185.46 78.74 187.09 78.1 189.04 78.1C190.08 78.1 191.06 78.31 191.99 78.73C192.91 79.15 193.62 79.7699 194.11 80.5699V78.39H196.01V91.8199H194.11V89.54C193.62 90.35 192.91 90.9801 191.98 91.4301C191.05 91.8801 190.07 92.1 189.05 92.1C187.11 92.1 185.49 91.45 184.17 90.15C182.85 88.84 182.19 87.1501 182.19 85.0601ZM184.09 85.0601C184.09 86.5501 184.56 87.78 185.51 88.75C186.46 89.72 187.63 90.2 189.04 90.2C190.47 90.2 191.68 89.74 192.65 88.83C193.62 87.92 194.11 86.6601 194.11 85.0601C194.11 84.2601 193.96 83.53 193.66 82.87C193.36 82.21 192.97 81.68 192.48 81.27C191.99 80.86 191.45 80.5399 190.86 80.3199C190.27 80.0999 189.66 79.99 189.05 79.99C187.62 79.99 186.44 80.46 185.5 81.39C184.56 82.32 184.09 83.5401 184.09 85.0601Z" fill="#10376D"/>
<path d="M199.15 80.09V78.39H201.61V73.33H203.51V78.39H206.39V80.09H203.51V91.8199H201.61V80.09H199.15Z" fill="#10376D"/>
<path d="M208 80.09V78.39H210.46V73.33H212.36V78.39H215.24V80.09H212.36V91.8199H210.46V80.09H208Z" fill="#10376D"/>
<path d="M218.42 91.8199V78.39H220.32V81.41C220.65 80.28 221.13 79.44 221.76 78.9C222.39 78.36 223.2 78.09 224.18 78.09C224.62 78.09 225.06 78.15 225.49 78.26C225.93 78.37 226.21 78.49 226.35 78.61L226.12 80.46C225.51 80.15 224.86 80 224.17 80C223.3 80 222.56 80.33 221.96 80.98C221.36 81.63 220.93 82.46 220.68 83.45C220.43 84.45 220.3 85.5699 220.3 86.8199V91.83H218.42V91.8199Z" fill="#10376D"/>
<path d="M227.93 85.04C227.93 82.96 228.58 81.28 229.87 80C231.16 78.72 232.78 78.09 234.73 78.09C236.67 78.09 238.25 78.72 239.48 79.99C240.71 81.26 241.32 82.94 241.32 85.04C241.32 85.47 241.31 85.7699 241.29 85.9399H229.83C230.01 87.2299 230.54 88.26 231.43 89.04C232.32 89.81 233.4 90.2 234.66 90.2C235.57 90.2 236.39 89.99 237.13 89.58C237.87 89.17 238.45 88.6 238.86 87.87C239.08 87.93 239.41 88 239.86 88.1C240.31 88.2 240.62 88.27 240.78 88.3C240.24 89.49 239.42 90.42 238.33 91.09C237.24 91.76 236.01 92.09 234.66 92.09C233.39 92.09 232.24 91.8 231.21 91.22C230.19 90.64 229.38 89.82 228.8 88.74C228.22 87.67 227.93 86.43 227.93 85.04ZM229.83 84.13H239.29C239.1 82.86 238.59 81.85 237.77 81.1C236.94 80.36 235.91 79.98 234.67 79.98C233.41 79.98 232.33 80.36 231.45 81.11C230.55 81.87 230.02 82.88 229.83 84.13Z" fill="#10376D"/>
<path d="M243.81 87.97H245.54C245.92 89.52 246.97 90.29 248.69 90.29C249.55 90.29 250.24 90.1 250.76 89.71C251.28 89.32 251.54 88.81 251.54 88.17C251.54 87.69 251.38 87.27 251.07 86.9C250.76 86.53 250.27 86.26 249.6 86.09L247.73 85.67C247.34 85.58 246.99 85.47 246.69 85.36C246.39 85.25 246.07 85.08 245.72 84.85C245.37 84.63 245.1 84.3601 244.89 84.0601C244.68 83.7601 244.52 83.37 244.41 82.89C244.3 82.41 244.27 81.87 244.34 81.27C244.48 80.32 244.97 79.56 245.8 78.97C246.63 78.38 247.61 78.09 248.72 78.09C249.82 78.09 250.76 78.38 251.53 78.95C252.3 79.53 252.77 80.3999 252.94 81.5699H251.07C250.96 81.0599 250.68 80.65 250.25 80.35C249.81 80.05 249.3 79.9 248.71 79.9C248.07 79.9 247.5 80.06 247.03 80.37C246.55 80.68 246.28 81.0801 246.22 81.5601C246.16 81.8601 246.17 82.14 246.23 82.38C246.29 82.63 246.39 82.82 246.51 82.97C246.63 83.12 246.79 83.26 247 83.38C247.21 83.5 247.4 83.59 247.58 83.65C247.76 83.71 247.95 83.7599 248.18 83.8199L250.01 84.25C252.28 84.79 253.42 86.09 253.43 88.15C253.43 89.3 252.96 90.25 252.03 90.98C251.1 91.72 249.93 92.08 248.52 92.08C247.31 92.08 246.23 91.7 245.3 90.95C244.36 90.21 243.86 89.21 243.81 87.97Z" fill="#10376D"/>
<path d="M256 87.97H257.73C258.11 89.52 259.16 90.29 260.88 90.29C261.74 90.29 262.43 90.1 262.95 89.71C263.47 89.32 263.73 88.81 263.73 88.17C263.73 87.69 263.57 87.27 263.26 86.9C262.95 86.53 262.46 86.26 261.79 86.09L259.92 85.67C259.53 85.58 259.18 85.47 258.88 85.36C258.58 85.25 258.26 85.08 257.91 84.85C257.56 84.63 257.29 84.3601 257.08 84.0601C256.87 83.7601 256.71 83.37 256.6 82.89C256.49 82.41 256.46 81.87 256.53 81.27C256.67 80.32 257.16 79.56 257.99 78.97C258.82 78.38 259.8 78.09 260.91 78.09C262.01 78.09 262.95 78.38 263.72 78.95C264.49 79.53 264.96 80.3999 265.13 81.5699H263.26C263.15 81.0599 262.87 80.65 262.44 80.35C262 80.05 261.49 79.9 260.9 79.9C260.26 79.9 259.69 80.06 259.22 80.37C258.74 80.68 258.47 81.0801 258.41 81.5601C258.35 81.8601 258.36 82.14 258.42 82.38C258.48 82.63 258.58 82.82 258.7 82.97C258.82 83.12 258.98 83.26 259.19 83.38C259.4 83.5 259.59 83.59 259.77 83.65C259.95 83.71 260.14 83.7599 260.37 83.8199L262.2 84.25C264.47 84.79 265.61 86.09 265.62 88.15C265.62 89.3 265.15 90.25 264.22 90.98C263.29 91.72 262.12 92.08 260.71 92.08C259.5 92.08 258.42 91.7 257.49 90.95C256.56 90.21 256.06 89.21 256 87.97Z" fill="#10376D"/>
<path d="M268.2 87.97H269.93C270.31 89.52 271.36 90.29 273.08 90.29C273.94 90.29 274.63 90.1 275.15 89.71C275.67 89.32 275.93 88.81 275.93 88.17C275.93 87.69 275.77 87.27 275.46 86.9C275.15 86.53 274.66 86.26 273.99 86.09L272.12 85.67C271.73 85.58 271.38 85.47 271.08 85.36C270.78 85.25 270.46 85.08 270.11 84.85C269.76 84.63 269.49 84.3601 269.28 84.0601C269.07 83.7601 268.91 83.37 268.8 82.89C268.69 82.41 268.66 81.87 268.73 81.27C268.87 80.32 269.36 79.56 270.19 78.97C271.02 78.38 272 78.09 273.11 78.09C274.21 78.09 275.15 78.38 275.92 78.95C276.69 79.53 277.16 80.3999 277.33 81.5699H275.46C275.35 81.0599 275.07 80.65 274.64 80.35C274.2 80.05 273.69 79.9 273.1 79.9C272.46 79.9 271.89 80.06 271.42 80.37C270.94 80.68 270.67 81.0801 270.61 81.5601C270.55 81.8601 270.56 82.14 270.62 82.38C270.68 82.63 270.78 82.82 270.9 82.97C271.02 83.12 271.18 83.26 271.39 83.38C271.6 83.5 271.79 83.59 271.97 83.65C272.15 83.71 272.34 83.7599 272.57 83.8199L274.4 84.25C276.67 84.79 277.81 86.09 277.82 88.15C277.82 89.3 277.35 90.25 276.42 90.98C275.49 91.72 274.32 92.08 272.91 92.08C271.7 92.08 270.62 91.7 269.69 90.95C268.75 90.21 268.25 89.21 268.2 87.97Z" fill="#10376D"/>
<path d="M28.37 124.9V105.08H30.27V124.9H28.37Z" fill="#10376D"/>
<path d="M35.46 124.9V111.47H37.36V113.68C37.74 112.87 38.37 112.24 39.22 111.82C40.08 111.39 40.95 111.18 41.83 111.18C43.45 111.18 44.72 111.7 45.63 112.75C46.54 113.8 46.99 115.24 46.97 117.08V124.91H45.0699V117.08C45.0699 115.83 44.78 114.86 44.21 114.14C43.64 113.43 42.8399 113.07 41.8199 113.07C41.2599 113.07 40.72 113.15 40.21 113.32C39.7 113.49 39.23 113.74 38.79 114.08C38.35 114.42 38 114.89 37.74 115.48C37.48 116.08 37.35 116.77 37.35 117.56V124.89H35.46V124.9Z" fill="#10376D"/>
<path d="M50.58 118.14C50.58 116.06 51.23 114.38 52.54 113.1C53.85 111.82 55.4801 111.18 57.4301 111.18C58.4701 111.18 59.45 111.39 60.38 111.81C61.3 112.23 62.01 112.85 62.5 113.65V104.18H64.4V124.9H62.5V122.62C62.01 123.43 61.3 124.06 60.37 124.51C59.44 124.96 58.4599 125.18 57.4399 125.18C55.4999 125.18 53.8801 124.53 52.5601 123.23C51.2301 121.93 50.58 120.23 50.58 118.14ZM52.47 118.14C52.47 119.63 52.94 120.86 53.89 121.83C54.84 122.8 56.01 123.28 57.42 123.28C58.85 123.28 60.06 122.82 61.03 121.91C62 121 62.49 119.74 62.49 118.14C62.49 117.34 62.34 116.61 62.04 115.95C61.74 115.29 61.35 114.76 60.86 114.35C60.37 113.94 59.83 113.62 59.24 113.4C58.65 113.18 58.0401 113.07 57.4301 113.07C56.0001 113.07 54.82 113.54 53.88 114.47C52.94 115.4 52.47 116.63 52.47 118.14Z" fill="#10376D"/>
<path d="M68.94 119.3V111.48H70.84V119.3C70.84 120.55 71.12 121.52 71.69 122.23C72.26 122.94 73.06 123.29 74.09 123.29C74.65 123.29 75.19 123.21 75.7 123.04C76.21 122.88 76.68 122.62 77.12 122.28C77.56 121.94 77.9101 121.47 78.1701 120.87C78.4301 120.28 78.5601 119.59 78.5601 118.8V111.47H80.46V124.9H78.5601V122.68C78.1801 123.5 77.55 124.12 76.7 124.54C75.84 124.97 74.97 125.18 74.09 125.18C72.47 125.18 71.2001 124.66 70.2901 123.61C69.3701 122.57 68.92 121.13 68.94 119.3Z" fill="#10376D"/>
<path d="M84.08 121.05H85.8101C86.1901 122.6 87.24 123.37 88.96 123.37C89.82 123.37 90.51 123.18 91.03 122.79C91.55 122.4 91.8101 121.89 91.8101 121.25C91.8101 120.77 91.65 120.35 91.34 119.98C91.03 119.61 90.54 119.34 89.87 119.17L88 118.75C87.61 118.66 87.26 118.55 86.96 118.44C86.66 118.33 86.34 118.16 85.99 117.93C85.64 117.71 85.37 117.44 85.16 117.14C84.95 116.84 84.7901 116.45 84.6801 115.97C84.5701 115.49 84.54 114.95 84.61 114.35C84.75 113.4 85.2399 112.64 86.0699 112.05C86.8999 111.46 87.88 111.17 88.99 111.17C90.09 111.17 91.03 111.46 91.8 112.03C92.57 112.61 93.04 113.48 93.21 114.65H91.34C91.23 114.14 90.95 113.73 90.52 113.43C90.08 113.13 89.57 112.98 88.98 112.98C88.34 112.98 87.77 113.14 87.3 113.45C86.82 113.76 86.55 114.16 86.49 114.64C86.43 114.94 86.44 115.22 86.5 115.46C86.56 115.71 86.66 115.9 86.78 116.05C86.9 116.2 87.06 116.34 87.27 116.46C87.48 116.58 87.67 116.67 87.85 116.73C88.03 116.79 88.22 116.84 88.45 116.9L90.28 117.33C92.55 117.87 93.69 119.17 93.7 121.23C93.7 122.38 93.23 123.33 92.3 124.06C91.37 124.8 90.2 125.16 88.79 125.16C87.58 125.16 86.4999 124.78 85.5699 124.03C84.6299 123.3 84.14 122.3 84.08 121.05Z" fill="#10376D"/>
<path d="M95.77 113.17V111.47H98.23V106.41H100.13V111.47H103.01V113.17H100.13V124.9H98.23V113.17H95.77Z" fill="#10376D"/>
<path d="M106.19 124.9V111.47H108.09V114.49C108.42 113.36 108.9 112.52 109.53 111.98C110.16 111.44 110.97 111.17 111.95 111.17C112.39 111.17 112.83 111.23 113.26 111.34C113.7 111.45 113.98 111.57 114.12 111.69L113.89 113.54C113.28 113.23 112.63 113.08 111.94 113.08C111.07 113.08 110.33 113.41 109.73 114.06C109.13 114.71 108.7 115.54 108.45 116.53C108.2 117.53 108.07 118.65 108.07 119.9V124.91H106.19V124.9Z" fill="#10376D"/>
<path d="M115.39 111.47H117.41L121.95 122.4L126.53 111.47H128.57L120.22 131.4H118.24L120.91 124.87L115.39 111.47Z" fill="#10376D"/>
<path d="M138.49 124.9V104.18H140.39V113.65C140.88 112.84 141.59 112.23 142.51 111.81C143.44 111.39 144.42 111.18 145.46 111.18C146.73 111.18 147.88 111.46 148.92 112.02C149.96 112.58 150.78 113.4 151.39 114.46C152 115.53 152.31 116.76 152.31 118.14C152.31 120.23 151.65 121.92 150.34 123.23C149.03 124.53 147.4 125.18 145.46 125.18C144.44 125.18 143.46 124.96 142.52 124.51C141.58 124.06 140.87 123.43 140.38 122.62V124.9H138.49ZM140.39 118.14C140.39 119.74 140.88 121 141.85 121.91C142.83 122.82 144.03 123.28 145.47 123.28C146.88 123.28 148.05 122.8 149 121.83C149.95 120.86 150.42 119.63 150.42 118.14C150.42 116.62 149.95 115.4 149.01 114.47C148.07 113.54 146.89 113.07 145.46 113.07C144.84 113.07 144.23 113.18 143.64 113.4C143.04 113.62 142.5 113.94 142.02 114.35C141.53 114.76 141.14 115.29 140.84 115.95C140.54 116.61 140.39 117.34 140.39 118.14Z" fill="#10376D"/>
<path d="M154.1 111.47H156.12L160.66 122.4L165.24 111.47H167.28L158.93 131.4H156.95L159.62 124.87L154.1 111.47Z" fill="#10376D"/>
<path d="M176.5 119.2H178.4C178.4 119.7 178.51 120.19 178.72 120.68C178.94 121.17 179.23 121.6 179.61 121.99C179.99 122.38 180.47 122.69 181.04 122.93C181.62 123.17 182.24 123.29 182.9 123.29C184.29 123.29 185.4 122.97 186.24 122.33C187.08 121.69 187.59 120.93 187.77 120.05C187.95 118.92 187.68 118.01 186.95 117.32C186.23 116.63 185.24 116.14 183.99 115.85L181.33 115.25C178.21 114.55 176.66 112.89 176.66 110.27C176.66 109.23 176.96 108.29 177.56 107.45C178.16 106.61 178.93 105.97 179.87 105.53C180.81 105.09 181.81 104.86 182.87 104.86C184.66 104.86 186.14 105.38 187.32 106.42C188.5 107.46 189.09 108.83 189.09 110.52H187.19C187.19 109.39 186.78 108.48 185.96 107.79C185.14 107.1 184.11 106.76 182.86 106.76C181.72 106.76 180.71 107.09 179.85 107.75C178.98 108.41 178.55 109.25 178.55 110.27C178.55 110.58 178.59 110.86 178.66 111.13C178.74 111.39 178.87 111.67 179.08 111.98C179.28 112.28 179.6 112.56 180.05 112.81C180.5 113.06 181.05 113.26 181.72 113.41L184.43 114.01C185.26 114.2 186.01 114.46 186.67 114.78C187.33 115.11 187.92 115.53 188.43 116.03C188.94 116.54 189.31 117.16 189.53 117.9C189.75 118.64 189.79 119.47 189.65 120.39C189.53 120.99 189.3 121.57 188.96 122.12C188.62 122.67 188.19 123.19 187.65 123.65C187.11 124.12 186.43 124.49 185.61 124.78C184.79 125.06 183.89 125.2 182.9 125.2C181.65 125.2 180.52 124.9 179.52 124.3C178.52 123.7 177.77 122.95 177.26 122.05C176.76 121.13 176.5 120.18 176.5 119.2Z" fill="#10376D"/>
<path d="M191.82 113.17V111.47H194.28V106.41H196.18V111.47H199.06V113.17H196.18V124.9H194.28V113.17H191.82Z" fill="#10376D"/>
<path d="M202.02 121.84C201.38 120.75 201.06 119.52 201.06 118.15C201.06 116.77 201.38 115.55 202.02 114.48C202.66 113.41 203.51 112.59 204.57 112.03C205.63 111.47 206.8 111.19 208.08 111.19C209.36 111.19 210.54 111.47 211.6 112.03C212.66 112.59 213.51 113.41 214.15 114.48C214.79 115.55 215.11 116.78 215.11 118.15C215.11 119.53 214.79 120.76 214.15 121.84C213.51 122.93 212.65 123.76 211.59 124.33C210.53 124.9 209.36 125.19 208.08 125.19C206.81 125.19 205.64 124.9 204.58 124.33C203.51 123.75 202.66 122.93 202.02 121.84ZM204.43 114.47C203.45 115.4 202.95 116.63 202.95 118.14C202.95 119.65 203.45 120.89 204.43 121.85C205.42 122.81 206.63 123.28 208.07 123.28C209.51 123.28 210.72 122.8 211.71 121.85C212.7 120.89 213.2 119.66 213.2 118.14C213.2 116.62 212.7 115.4 211.72 114.47C210.73 113.54 209.51 113.07 208.07 113.07C206.63 113.07 205.42 113.54 204.43 114.47Z" fill="#10376D"/>
<path d="M218.84 124.9V111.47H220.74V114.49C221.07 113.36 221.55 112.52 222.18 111.98C222.81 111.44 223.62 111.17 224.6 111.17C225.04 111.17 225.48 111.23 225.91 111.34C226.35 111.45 226.63 111.57 226.77 111.69L226.54 113.54C225.93 113.23 225.28 113.08 224.59 113.08C223.72 113.08 222.98 113.41 222.38 114.06C221.78 114.71 221.35 115.54 221.1 116.53C220.85 117.53 220.72 118.65 220.72 119.9V124.91H218.84V124.9Z" fill="#10376D"/>
<path d="M229.69 124.9V111.47H231.59V113.68C231.84 113.14 232.26 112.67 232.84 112.27C233.42 111.87 233.98 111.59 234.54 111.43C235.1 111.27 235.61 111.18 236.07 111.18C237.19 111.18 238.14 111.43 238.93 111.94C239.72 112.45 240.31 113.17 240.7 114.12C240.98 113.52 241.34 113.01 241.77 112.6C242.21 112.19 242.67 111.89 243.15 111.69C243.64 111.5 244.08 111.36 244.48 111.29C244.88 111.22 245.28 111.18 245.68 111.18C247.3 111.18 248.57 111.7 249.48 112.75C250.39 113.8 250.84 115.24 250.82 117.08V124.91H248.92V117.08C248.92 115.83 248.63 114.86 248.06 114.14C247.49 113.43 246.69 113.07 245.67 113.07C245.11 113.07 244.57 113.15 244.06 113.32C243.55 113.49 243.07 113.74 242.64 114.08C242.2 114.42 241.85 114.89 241.59 115.48C241.33 116.08 241.2 116.77 241.2 117.56V124.89H239.3V117.06C239.3 115.81 239.01 114.84 238.44 114.12C237.87 113.41 237.07 113.05 236.05 113.05C235.49 113.05 234.95 113.13 234.44 113.3C233.93 113.47 233.46 113.72 233.02 114.06C232.58 114.4 232.23 114.87 231.97 115.46C231.71 116.06 231.58 116.75 231.58 117.54V124.87H229.69V124.9Z" fill="#10376D"/>
<path fill-rule="evenodd" clip-rule="evenodd" d="M167.55 9.18994C170.2 9.20994 179.81 10.0101 180.84 20.3101L170.99 21.4399C170.87 18.5899 170.3 15.58 166.98 15.58C162.74 15.58 162.42 19.26 162.42 22.78V23.1C162.44 26.55 162.85 30.0601 166.98 30.0601C169.2 30.0601 171.16 28.73 171.16 25.92H171.48L180.97 25.9301L180.89 26.8101C179.27 35.1201 172.07 36.42 166.88 36.42C160.52 36.42 154.25 33.88 151.81 28.25V28.12H151.76C151.11 26.58 150.75 24.81 150.75 22.79C150.76 13.34 158.75 9.18005 166.89 9.18005C166.89 9.18005 167.09 9.17004 167.44 9.17004L167.55 9.18994ZM184.32 27.23C186.61 27.23 188.47 29.1701 188.47 31.5601C188.47 33.9501 186.61 35.9 184.32 35.9C182.03 35.9 180.16 33.9599 180.16 31.5699C180.16 29.1799 182.02 27.24 184.32 27.24V27.23ZM128.52 9.04004V14.3C128.75 14.1 128.99 13.8099 129.18 13.5699C131.81 10.4299 134.82 9.30005 138.78 9.30005C144.32 9.30005 148.85 11.65 148.85 18.08V28.16H151.75C151.77 28.2 151.78 28.24 151.8 28.29V35.79H133.98V28.16H137.37V20.1801C137.37 17.7801 135.72 16.7 133.61 16.7C130.93 16.7 128.91 18.76 128.91 21.55V28.15H132.39V35.76H114.13V28.15H117.43V16.66H114.13V9.04004H128.52ZM112.91 0.829956V9.02002H108.54V28.15H112.91V35.77H89.5699V28.16H93.95V9.03003H89.5699V0.839966H112.91V0.829956Z" fill="#10376D"/>
</svg>
