<svg width="89" height="19" viewBox="0 0 89 19" fill="none" xmlns="http://www.w3.org/2000/svg">
<path d="M0.300049 0.869995H11.41V3.87H3.91003V8.57001H10.3199V11.59H3.91003V18.9H0.310059V0.869995H0.300049Z" fill="black"/>
<path d="M26.8 18.89L23.1 12.07H20.59V18.89H16.99V0.869995H23.27C27.05 0.869995 30.04 2.19002 30.04 6.33002C30.04 9.03002 28.68 10.71 26.61 11.52L30.8199 18.9H26.8V18.89ZM20.59 9.21997H22.9301C25.2401 9.21997 26.51 8.25001 26.51 6.32001C26.51 4.37001 25.2401 3.71002 22.9301 3.71002H20.59V9.21997Z" fill="black"/>
<path d="M44.29 14.26H38.45L37.1801 18.89H33.53L39.3 0.869995H43.54L49.34 18.89H45.5601L44.29 14.26ZM43.51 11.46L42.97 9.48999C42.41 7.60999 41.92 5.53998 41.39 3.59998H41.29C40.83 5.56998 40.29 7.61999 39.76 9.48999L39.22 11.46H43.51Z" fill="black"/>
<path d="M53.89 0.869995H57.88L60.95 9.29999C61.34 10.42 61.68 11.61 62.05 12.78H62.17C62.56 11.61 62.88 10.42 63.27 9.29999L66.27 0.869995H70.26V18.89H66.97V11.36C66.97 9.65999 67.24 7.15 67.41 5.44H67.3101L65.85 9.67999L63.0699 17.25H61L58.2 9.67999L56.76 5.44H56.66C56.83 7.15 57.12 9.64999 57.12 11.36V18.89H53.88V0.869995H53.89Z" fill="black"/>
<path d="M77.13 0.869995H88.1899V3.87H80.74V8.03003H87.0699V11.05H80.74V15.87H88.46V18.89H77.14V0.869995H77.13Z" fill="black"/>
</svg>
