<svg width="242" height="46" viewBox="0 0 242 46" fill="none" xmlns="http://www.w3.org/2000/svg">
<path d="M240.37 16.98H208.36V19.45H240.37V16.98Z" fill="black"/>
<path d="M232.49 27.6201L230.74 25.8799L238.5 18.1201L230.93 10.55L232.68 8.80005L242 18.1201L232.49 27.6201Z" fill="black"/>
<path d="M8.34375 12.425H18.2688V18.525H8.34375V12.425ZM14.9688 25.8V21.125H21.4938V9.825H5.11875V21.125H11.6688V25.8H2.91875V28.475H23.7688V25.8H14.9688ZM44.4668 15H31.7418V11.575H44.2918V8.95H28.4668V17.625H44.4668V15ZM31.6918 23.85H28.3918V30.75H44.6418V28.125H31.6918V23.85ZM25.9418 19.5V22.125H46.7668V19.5H25.9418ZM59.1789 18.975H66.6539V10.075H55.7789V12.7H63.2789V16.375H55.8039V25.85H57.8789C62.0539 25.85 65.4289 25.7 69.1789 25.05L68.8289 22.375C65.5789 22.925 62.6789 23.1 59.1789 23.125V18.975ZM70.4289 8.1V31.2H73.7289V8.1H70.4289ZM92.702 16.375H83.227V14.075H92.702V16.375ZM95.952 8.95H92.702V11.475H83.227V8.95H79.952V19H95.952V8.95ZM98.427 21.175H77.577V23.825H82.227V31.175H85.527V23.825H90.452V31.175H93.777V23.825H98.427V21.175ZM111.714 15.725H121.564V18.95H111.714V15.725ZM118.289 25.8V21.575H124.814V9.55H121.564V13.125H111.714V9.55H108.439V21.575H114.989V25.8H106.239V28.475H127.089V25.8H118.289ZM133.287 18.7H140.362V10.075H129.987V12.7H137.087V16.125H130.037V25.875H131.937C135.762 25.875 138.812 25.75 142.237 25.2L141.937 22.525C139.037 23 136.412 23.15 133.287 23.175V18.7ZM145.187 8.1V16.4H141.587V19.075H145.187V31.2H148.512V8.1H145.187ZM153.285 10.475V13.15H160.81C160.21 18.25 157.36 21.9 152.01 24.65L153.86 27.175C161.51 23.3 164.135 17.375 164.135 10.475H153.285ZM173.485 16.9H170.26V8.1H166.96V31.1H170.26V19.625H173.485V16.9ZM176.508 10.5V13.125H184.183C183.708 18.225 181.158 21.825 175.283 24.65L177.008 27.25C185.183 23.3 187.558 17.55 187.558 10.5H176.508ZM191.083 8.1V31.125H194.408V8.1H191.083Z" fill="black"/>
</svg>
