<svg width="91" height="90" viewBox="0 0 91 90" fill="none" xmlns="http://www.w3.org/2000/svg">
<path d="M82.18 45.45C82.18 44.34 82.12 43.24 82.02 42.15L89.38 40.23L86.08 27.63L78.58 29.59C77 26.29 74.94 23.27 72.5 20.62L77.31 14.38L67 6.42004L62.12 12.74C58.97 11.13 55.55 9.95995 51.96 9.31995V1.29004H38.93V9.31995C35.51 9.92995 32.26 11.01 29.24 12.5L24.46 6.10999L14.03 13.92L18.76 20.24C16.96 22.14 15.36 24.23 13.99 26.48L6.67999 23.79L2.17999 36.01L9.34998 38.65C8.93998 40.86 8.71002 43.13 8.71002 45.46C8.71002 46.27 8.74999 47.06 8.79999 47.86L1.51001 49.77L4.81 62.37L11.94 60.5C13.49 63.94 15.54 67.09 18.01 69.87L13.58 75.61L23.89 83.5699L28.25 77.92C31.54 79.66 35.13 80.92 38.92 81.6V88.7H51.95V81.6C55.56 80.95 58.98 79.78 62.14 78.16L66.42 83.88L76.85 76.0699L72.51 70.27C74.35 68.26 75.97 66.05 77.33 63.67L84.21 66.2L88.71 53.98L81.69 51.4C82.01 49.46 82.18 47.47 82.18 45.45ZM45.45 70C31.64 70 20.44 58.8 20.44 44.99C20.44 31.18 31.64 19.98 45.45 19.98C59.26 19.98 70.46 31.18 70.46 44.99C70.46 58.8 59.26 70 45.45 70Z" stroke="#10376D" stroke-width="2" stroke-miterlimit="10"/>
<path d="M72.7 70.0601C67.14 70.1001 61.61 69.3 56.39 67.48C53.09 69.09 49.37 69.99 45.45 69.99C31.64 69.99 20.44 58.79 20.44 44.98C20.44 38.35 23.03 32.32 27.24 27.85C27.29 25.3 27.63 22.75 28.29 20.27C29.15 17.06 30.46 14.04 32.14 11.22C31.15 11.6 30.19 12.02 29.24 12.49L24.46 6.09998L14.03 13.91L18.76 20.23C16.96 22.13 15.36 24.22 14 26.47L6.67999 23.78L2.17999 36L9.34998 38.64C8.93998 40.85 8.71002 43.1199 8.71002 45.45C8.71002 46.26 8.74999 47.05 8.79999 47.85L1.51001 49.76L4.81 62.36L11.94 60.49C13.48 63.93 15.54 67.08 18.01 69.86L13.58 75.6L23.89 83.5601L28.25 77.91C31.54 79.65 35.13 80.91 38.92 81.59V88.6899H51.95V81.59C55.56 80.94 58.98 79.77 62.14 78.15L66.42 83.87L76.85 76.0601L72.51 70.26C72.58 70.2 72.64 70.1301 72.7 70.0601Z" fill="#10376D"/>
</svg>
