<svg width="87" height="86" viewBox="0 0 87 86" fill="none" xmlns="http://www.w3.org/2000/svg">
<path d="M75.46 85.5301H11.59C10.14 85.5301 8.78005 84.9001 7.84005 83.7901C6.89005 82.6801 6.47999 81.2101 6.71999 79.7701C9.11999 64.9001 23.31 52.8301 39.98 51.3001V26.9201L31.05 21.72L37.95 27.4101C38.22 27.6401 38.38 27.97 38.38 28.33V32.9101C38.38 33.4101 38.0601 33.8601 37.59 34.0301C32.5201 35.8301 25.02 37.03 18.07 32.49C6.27003 24.8 0.800039 3.71 0.580039 2.82C0.500039 2.5 0.550012 2.16006 0.740012 1.88006C0.920012 1.60006 1.21 1.41004 1.54 1.36004C2.45 1.21004 23.95 -2.28992 35.74 5.40008C39.35 7.76008 42 11.19 43.54 15.46C45.08 11.19 47.73 7.76008 51.34 5.40008C63.14 -2.28992 84.63 1.20004 85.54 1.36004C85.87 1.42004 86.16 1.60006 86.34 1.88006C86.5201 2.16006 86.58 2.5 86.5 2.82C86.27 3.71 80.8 24.8 69.01 32.49C61.78 37.2 53.98 35.77 48.71 33.74C48.25 33.56 47.95 33.1201 47.95 32.6301V28.32C47.95 27.96 48.11 27.6201 48.39 27.4001L55.27 21.83L46.34 26.9201V51.23C63.3801 52.45 77.89 64.5501 80.35 79.7701C80.58 81.2101 80.17 82.6801 79.23 83.7901C78.27 84.9001 76.9 85.5301 75.46 85.5301ZM19.0301 12.1701C19.2301 12.1701 19.44 12.22 19.63 12.33L41.76 25.21C42.13 25.42 42.35 25.81 42.35 26.24V52.4101C42.35 53.0401 41.86 53.56 41.24 53.6C25.18 54.61 11.35 66.0301 9.07003 80.1601C8.95003 80.9201 9.16 81.6801 9.66 82.2601C10.15 82.8301 10.85 83.1601 11.6 83.1601H75.47C76.22 83.1601 76.93 82.8301 77.41 82.2601C77.9 81.6801 78.12 80.9101 78 80.1601C75.66 65.6901 61.52 54.2601 45.1 53.5501C44.46 53.5201 43.96 53 43.96 52.36V26.2501C43.96 25.8201 44.19 25.42 44.56 25.21L66.82 12.5201C67.36 12.2101 68.04 12.3701 68.39 12.8801C68.74 13.3901 68.64 14.09 68.16 14.48L50.32 28.9001V31.8101C55.04 33.4801 61.65 34.4501 67.71 30.5101C77.14 24.3601 82.4601 8.20009 83.84 3.53009C79.01 2.91009 62.07 1.26009 52.64 7.41009C48.32 10.2301 45.66 14.61 44.71 20.45C44.62 21.03 44.12 21.45 43.54 21.45C42.96 21.45 42.46 21.03 42.37 20.45C41.43 14.61 38.76 10.2301 34.44 7.41009C25.01 1.26009 8.07001 2.91009 3.24001 3.53009C4.61001 8.20009 9.94002 24.3701 19.37 30.5101C25.17 34.2901 31.48 33.53 36.01 32.07V28.9001L18.29 14.2801C17.81 13.8901 17.72 13.1901 18.07 12.6801C18.28 12.3501 18.6501 12.1701 19.0301 12.1701Z" fill="#003581"/>
<path d="M53.01 65.3199C53.9268 65.3199 54.67 64.5768 54.67 63.66C54.67 62.7432 53.9268 62 53.01 62C52.0932 62 51.35 62.7432 51.35 63.66C51.35 64.5768 52.0932 65.3199 53.01 65.3199Z" fill="#003581"/>
<path d="M29.49 66.98C30.4068 66.98 31.15 66.2367 31.15 65.3199C31.15 64.4032 30.4068 63.66 29.49 63.66C28.5732 63.66 27.83 64.4032 27.83 65.3199C27.83 66.2367 28.5732 66.98 29.49 66.98Z" fill="#003581"/>
<path d="M43.24 75.4C44.1568 75.4 44.9 74.6568 44.9 73.74C44.9 72.8232 44.1568 72.08 43.24 72.08C42.3232 72.08 41.58 72.8232 41.58 73.74C41.58 74.6568 42.3232 75.4 43.24 75.4Z" fill="#003581"/>
<path d="M23.66 80.09C24.5768 80.09 25.32 79.3468 25.32 78.4301C25.32 77.5133 24.5768 76.77 23.66 76.77C22.7432 76.77 22 77.5133 22 78.4301C22 79.3468 22.7432 80.09 23.66 80.09Z" fill="#003581"/>
<path d="M66.7 80.09C67.6168 80.09 68.36 79.3468 68.36 78.4301C68.36 77.5133 67.6168 76.77 66.7 76.77C65.7832 76.77 65.04 77.5133 65.04 78.4301C65.04 79.3468 65.7832 80.09 66.7 80.09Z" fill="#003581"/>
</svg>
