<svg width="104" height="78" viewBox="0 0 104 78" fill="none" xmlns="http://www.w3.org/2000/svg">
<path d="M102.36 1.47998H1.47998V76.49H102.36V1.47998Z" stroke="#10376D" stroke-width="2" stroke-miterlimit="10"/>
<path d="M102.35 1.47998H1.46997V10.47H102.35V1.47998Z" fill="#10376D"/>
<path d="M102.35 17.99H1.46997V26.98H102.35V17.99Z" fill="#10376D"/>
<path d="M102.36 34.49H1.47998V43.48H102.36V34.49Z" fill="#10376D"/>
<path d="M102.36 51H1.47998V59.99H102.36V51Z" fill="#10376D"/>
<path d="M102.37 67.5H1.48999V76.49H102.37V67.5Z" fill="#10376D"/>
<path d="M50.05 1.48999H1.46997V35.8101H50.05V1.48999Z" fill="white" stroke="#14327A" stroke-width="2" stroke-miterlimit="10"/>
<path d="M6.62 4.29004L7.11 5.65002L8.48 5.71997L7.41 6.5L7.78 7.77002L6.61 6.90002L5.45 7.77002L5.82001 6.48999L4.75 5.70996L6.12 5.64001L6.62 4.29004Z" fill="#10376D"/>
<path d="M12.74 4.29004L13.23 5.64001L14.59 5.71997L13.53 6.48999L13.89 7.77002L12.73 6.90002L11.56 7.77002L11.93 6.48999L10.87 5.70996L12.24 5.64001L12.74 4.29004Z" fill="#10376D"/>
<path d="M18.85 4.29004L19.34 5.64001L20.71 5.71997L19.64 6.48999L20 7.77002L18.84 6.89001L17.68 7.76001L18.05 6.48999L16.98 5.70996L18.35 5.64001L18.85 4.29004Z" fill="#10376D"/>
<path d="M24.96 4.28003L25.45 5.64001L26.82 5.71997L25.76 6.48999L26.12 7.77002L24.96 6.89001L23.79 7.76001L24.16 6.48999L23.1 5.70996L24.47 5.64001L24.96 4.28003Z" fill="#10376D"/>
<path d="M31.08 4.28003L31.57 5.64001L32.94 5.70996L31.8699 6.48999L32.2299 7.77002L31.07 6.89001L29.91 7.76001L30.28 6.47998L29.21 5.69995L30.58 5.64001L31.08 4.28003Z" fill="#10376D"/>
<path d="M37.19 4.28003L37.6799 5.64001L39.05 5.70996L37.99 6.48999L38.35 7.76001L37.19 6.89001L36.02 7.76001L36.39 6.47998L35.33 5.69995L36.7 5.63L37.19 4.28003Z" fill="#10376D"/>
<path d="M43.3099 4.28003L43.7999 5.63L45.1699 5.70996L44.0999 6.48999L44.4599 7.76001L43.2999 6.89001L42.1399 7.76001L42.5099 6.47998L41.4399 5.69995L42.8099 5.63L43.3099 4.28003Z" fill="#10376D"/>
<path d="M9.72998 9.33997L10.22 10.6899L11.59 10.77L10.52 11.54L10.88 12.8199L9.71999 11.9399L8.55998 12.8101L8.91998 11.54L7.85999 10.76L9.22998 10.6899L9.72998 9.33997Z" fill="#10376D"/>
<path d="M15.84 9.33997L16.33 10.6899L17.7 10.77L16.64 11.54L17 12.8199L15.84 11.9399L14.67 12.8101L15.04 11.54L13.98 10.76L15.35 10.6899L15.84 9.33997Z" fill="#10376D"/>
<path d="M21.96 9.32996L22.45 10.6899L23.82 10.76L22.75 11.54L23.11 12.8199L21.95 11.9399L20.79 12.8101L21.15 11.54L20.09 10.75L21.46 10.6899L21.96 9.32996Z" fill="#10376D"/>
<path d="M28.07 9.32996L28.56 10.6899L29.9299 10.76L28.8699 11.54L29.2299 12.8199L28.07 11.9399L26.8999 12.8101L27.27 11.53L26.21 10.75L27.58 10.6801L28.07 9.32996Z" fill="#10376D"/>
<path d="M34.1899 9.32996L34.6799 10.6899L36.0499 10.76L34.9799 11.54L35.3399 12.8101L34.1799 11.9399L33.0099 12.8101L33.3799 11.53L32.3199 10.75L33.6899 10.6801L34.1899 9.32996Z" fill="#10376D"/>
<path d="M40.2999 9.32996L40.7899 10.6801L42.1599 10.76L41.0999 11.53L41.4599 12.8101L40.2999 11.9399L39.1299 12.8101L39.4999 11.53L38.4399 10.75L39.8099 10.6801L40.2999 9.32996Z" fill="#10376D"/>
<path d="M6.62001 14.39L7.11002 15.74L8.48001 15.8199L7.42001 16.59L7.78001 17.87L6.62001 16.99L5.45001 17.86L5.82002 16.59L4.76001 15.8101L6.13002 15.74L6.62001 14.39Z" fill="#10376D"/>
<path d="M12.74 14.38L13.23 15.74L14.6 15.8199L13.53 16.59L13.89 17.87L12.73 16.99L11.57 17.86L11.93 16.59L10.87 15.8101L12.24 15.74L12.74 14.38Z" fill="#10376D"/>
<path d="M18.85 14.38L19.34 15.74L20.71 15.8101L19.65 16.59L20.01 17.87L18.85 16.99L17.68 17.86L18.05 16.58L16.99 15.8L18.36 15.74L18.85 14.38Z" fill="#10376D"/>
<path d="M24.97 14.38L25.46 15.74L26.83 15.8101L25.76 16.59L26.12 17.86L24.96 16.99L23.79 17.86L24.16 16.58L23.1 15.8L24.47 15.73L24.97 14.38Z" fill="#10376D"/>
<path d="M31.08 14.38L31.57 15.73L32.94 15.8101L31.88 16.59L32.24 17.86L31.08 16.99L29.91 17.86L30.28 16.58L29.22 15.8L30.59 15.73L31.08 14.38Z" fill="#10376D"/>
<path d="M37.2 14.38L37.69 15.73L39.06 15.8101L37.99 16.58L38.35 17.86L37.19 16.98L36.02 17.85L36.39 16.58L35.33 15.8L36.7 15.73L37.2 14.38Z" fill="#10376D"/>
<path d="M43.31 14.38L43.8 15.73L45.17 15.8101L44.1 16.58L44.47 17.86L43.31 16.98L42.14 17.85L42.5099 16.58L41.45 15.8L42.82 15.73L43.31 14.38Z" fill="#10376D"/>
<path d="M9.73 19.4301L10.22 20.79L11.59 20.86L10.52 21.64L10.89 22.92L9.72 22.04L8.56 22.91L8.92999 21.64L7.87 20.85L9.23 20.79L9.73 19.4301Z" fill="#10376D"/>
<path d="M15.85 19.4301L16.34 20.79L17.7 20.86L16.64 21.64L17 22.92L15.84 22.04L14.67 22.91L15.04 21.63L13.98 20.85L15.35 20.78L15.85 19.4301Z" fill="#10376D"/>
<path d="M21.96 19.4301L22.45 20.79L23.82 20.86L22.75 21.64L23.12 22.91L21.95 22.04L20.79 22.91L21.16 21.63L20.09 20.85L21.46 20.78L21.96 19.4301Z" fill="#10376D"/>
<path d="M28.08 19.4301L28.57 20.78L29.9299 20.86L28.8699 21.63L29.2299 22.91L28.07 22.04L26.8999 22.91L27.27 21.63L26.21 20.85L27.58 20.78L28.08 19.4301Z" fill="#10376D"/>
<path d="M34.1901 19.4301L34.6801 20.78L36.0501 20.86L34.9801 21.63L35.3501 22.91L34.1801 22.03L33.0201 22.9L33.3901 21.63L32.3201 20.85L33.6901 20.78L34.1901 19.4301Z" fill="#10376D"/>
<path d="M40.3101 19.4301L40.8001 20.78L42.1601 20.86L41.1001 21.63L41.4601 22.91L40.3001 22.03L39.1301 22.9L39.5001 21.63L38.4401 20.85L39.8101 20.78L40.3101 19.4301Z" fill="#10376D"/>
<path d="M6.63002 24.48L7.12001 25.84L8.48001 25.91L7.42001 26.6899L7.78001 27.97L6.62001 27.09L5.45001 27.96L5.82002 26.6899L4.76001 25.9L6.13002 25.84L6.63002 24.48Z" fill="#10376D"/>
<path d="M12.74 24.48L13.23 25.84L14.6 25.91L13.53 26.6899L13.9 27.96L12.73 27.09L11.57 27.96L11.94 26.6801L10.87 25.9L12.24 25.83L12.74 24.48Z" fill="#10376D"/>
<path d="M18.86 24.48L19.35 25.83L20.71 25.91L19.65 26.6899L20.01 27.96L18.85 27.09L17.68 27.96L18.05 26.6801L16.99 25.9L18.36 25.83L18.86 24.48Z" fill="#10376D"/>
<path d="M24.97 24.48L25.46 25.83L26.83 25.91L25.76 26.6801L26.13 27.96L24.96 27.08L23.8 27.95L24.17 26.6801L23.1 25.9L24.47 25.83L24.97 24.48Z" fill="#10376D"/>
<path d="M31.09 24.48L31.58 25.83L32.94 25.91L31.88 26.6801L32.24 27.96L31.08 27.08L29.91 27.95L30.28 26.6801L29.22 25.9L30.59 25.83L31.09 24.48Z" fill="#10376D"/>
<path d="M37.2 24.47L37.69 25.83L39.06 25.91L37.99 26.6801L38.36 27.96L37.19 27.08L36.03 27.95L36.3999 26.6801L35.33 25.9L36.7 25.83L37.2 24.47Z" fill="#10376D"/>
<path d="M43.32 24.47L43.8 25.83L45.17 25.9L44.11 26.6801L44.47 27.96L43.31 27.08L42.14 27.95L42.5099 26.67L41.45 25.89L42.82 25.83L43.32 24.47Z" fill="#10376D"/>
<path d="M9.73 29.53L10.22 30.89L11.59 30.96L10.53 31.74L10.89 33.01L9.73 32.14L8.56 33.01L8.92999 31.73L7.87 30.95L9.24001 30.88L9.73 29.53Z" fill="#10376D"/>
<path d="M15.85 29.53L16.34 30.88L17.71 30.96L16.64 31.73L17 33.01L15.84 32.14L14.68 33.01L15.05 31.73L13.98 30.95L15.35 30.88L15.85 29.53Z" fill="#10376D"/>
<path d="M21.96 29.53L22.45 30.88L23.82 30.96L22.76 31.73L23.12 33.01L21.96 32.13L20.79 33L21.16 31.73L20.1 30.95L21.47 30.88L21.96 29.53Z" fill="#10376D"/>
<path d="M28.08 29.53L28.57 30.88L29.94 30.96L28.8699 31.73L29.2299 33.01L28.07 32.13L26.91 33L27.27 31.73L26.21 30.95L27.58 30.88L28.08 29.53Z" fill="#10376D"/>
<path d="M34.19 29.52L34.6799 30.88L36.05 30.95L34.99 31.73L35.35 33.01L34.19 32.13L33.02 33L33.39 31.73L32.33 30.9399L33.7 30.88L34.19 29.52Z" fill="#10376D"/>
<path d="M40.3099 29.52L40.7999 30.88L42.1699 30.95L41.0999 31.73L41.4599 33L40.2999 32.13L39.1399 33L39.4999 31.72L38.4399 30.9399L39.8099 30.87L40.3099 29.52Z" fill="#10376D"/>
</svg>
