<svg width="83" height="86" viewBox="0 0 83 86" fill="none" xmlns="http://www.w3.org/2000/svg">
<path d="M19.5101 85.6C19.4001 85.6 19.2901 85.59 19.1801 85.56C18.5701 85.42 18.1101 84.92 18.0201 84.29L16.0601 69.61L2.34001 72.63C1.71001 72.77 1.07003 72.4899 0.740032 71.9499C0.410032 71.3999 0.450028 70.7099 0.860028 70.2099L16.1701 51.5799C16.6701 50.9699 17.57 50.8499 18.21 51.3199L33.6401 62.4499C34.2901 62.9199 34.4601 63.81 34.0201 64.48L20.7601 84.9C20.4901 85.35 20.0101 85.6 19.5101 85.6ZM17.34 66.3C17.65 66.3 17.95 66.3899 18.2 66.5699C18.54 66.8099 18.77 67.18 18.83 67.6L20.47 79.87L30.74 64.05L17.61 54.5799L5.93998 68.77L17.0201 66.3299C17.1201 66.3199 17.23 66.3 17.34 66.3Z" fill="#003581"/>
<path d="M63.6801 83.1C63.1801 83.1 62.7 82.85 62.42 82.42L49.16 62C48.72 61.33 48.89 60.43 49.54 59.97L64.97 48.84C65.61 48.38 66.5 48.49 67.01 49.1L82.32 67.73C82.7299 68.22 82.7699 68.92 82.4399 69.47C82.1099 70.01 81.47 70.29 80.84 70.15L67.12 67.13L65.16 81.8101C65.08 82.43 64.62 82.9399 64 83.0799C63.9 83.0899 63.7901 83.1 63.6801 83.1ZM52.46 61.5601L62.73 77.38L64.37 65.11C64.43 64.69 64.65 64.3199 65 64.0799C65.34 63.8399 65.7701 63.75 66.1801 63.84L77.26 66.28L65.59 52.09L52.46 61.5601Z" fill="#10376D"/>
<path d="M41.04 65.8199C58.6966 65.8199 73.01 51.5065 73.01 33.85C73.01 16.1934 58.6966 1.88 41.04 1.88C23.3835 1.88 9.06995 16.1934 9.06995 33.85C9.06995 51.5065 23.3835 65.8199 41.04 65.8199Z" fill="white"/>
<path d="M41.04 67.3199C22.58 67.3199 7.56995 52.3 7.56995 33.85C7.56995 15.39 22.59 0.380005 41.04 0.380005C59.49 0.380005 74.51 15.4 74.51 33.85C74.51 52.31 59.5 67.3199 41.04 67.3199ZM41.04 3.38C24.24 3.38 10.5699 17.05 10.5699 33.85C10.5699 50.65 24.24 64.3199 41.04 64.3199C57.84 64.3199 71.51 50.65 71.51 33.85C71.51 17.05 57.84 3.38 41.04 3.38Z" fill="#10376D"/>
<path d="M36.5301 49.15C35.8401 49.15 35.18 48.86 34.71 48.36L25.7701 38.8199C24.8301 37.8099 24.88 36.23 25.88 35.29C26.89 34.35 28.4701 34.4 29.4101 35.4L36.5 42.9699L55.74 21.91C56.67 20.89 58.2501 20.82 59.2701 21.75C60.2901 22.68 60.3601 24.26 59.4301 25.28L38.37 48.3299C37.9 48.8399 37.2401 49.14 36.5401 49.14C36.5401 49.15 36.5301 49.15 36.5301 49.15Z" fill="#003581"/>
</svg>
