<svg width="103" height="104" viewBox="0 0 103 104" fill="none" xmlns="http://www.w3.org/2000/svg">
<path d="M70.01 53.84L101.34 2.09998H74.4L40.52 53.84H70.01Z" stroke="#10376D" stroke-width="2.5" stroke-miterlimit="10" stroke-linecap="round" stroke-linejoin="round"/>
<path d="M86.1899 2.09998L56.83 53.84" stroke="#10376D" stroke-width="2.5" stroke-miterlimit="10" stroke-linecap="round" stroke-linejoin="round"/>
<path d="M32.86 54.6L1.52002 2.87H28.47L62.34 54.6H32.86Z" fill="white" stroke="#10376D" stroke-width="2.5" stroke-miterlimit="10" stroke-linecap="round" stroke-linejoin="round"/>
<path d="M16.67 2.87L46.03 54.6" stroke="#10376D" stroke-width="2.5" stroke-miterlimit="10" stroke-linecap="round" stroke-linejoin="round"/>
<path d="M50.52 102.1C68.1931 102.1 82.52 87.7731 82.52 70.1C82.52 52.4269 68.1931 38.1 50.52 38.1C32.8469 38.1 18.52 52.4269 18.52 70.1C18.52 87.7731 32.8469 102.1 50.52 102.1Z" fill="white"/>
<path d="M50.71 103.87C32.25 103.87 17.24 88.85 17.24 70.4C17.24 51.94 32.26 36.9301 50.71 36.9301C69.16 36.9301 84.1801 51.95 84.1801 70.4C84.1801 88.86 69.17 103.87 50.71 103.87ZM50.71 39.9301C33.91 39.9301 20.24 53.6 20.24 70.4C20.24 87.2 33.91 100.87 50.71 100.87C67.51 100.87 81.1801 87.2 81.1801 70.4C81.1801 53.6 67.51 39.9301 50.71 39.9301Z" fill="#10376D"/>
<path d="M50.85 98.73C35.24 98.73 22.54 86.03 22.54 70.42C22.54 54.81 35.24 42.11 50.85 42.11C66.46 42.11 79.16 54.81 79.16 70.42C79.17 86.03 66.46 98.73 50.85 98.73ZM50.85 44.64C36.64 44.64 25.08 56.2 25.08 70.42C25.08 84.63 36.64 96.2 50.85 96.2C65.06 96.2 76.63 84.64 76.63 70.42C76.63 56.2 65.07 44.64 50.85 44.64Z" fill="#10376D"/>
<path d="M44.83 66.16V61.2L54.99 56.35V83.14H49.34V64.21L44.83 66.16Z" fill="#10376D"/>
</svg>
