<svg width="50" height="50" viewBox="0 0 50 50" fill="none" xmlns="http://www.w3.org/2000/svg">
<path d="M25 50C11.2114 50 0 38.7887 0 25C0 11.2113 11.2114 0 25 0C38.7887 0 50 11.2113 50 25C50 38.7887 38.7887 50 25 50ZM25 0.644333C11.5722 0.644333 0.618532 11.5721 0.618532 25.0258C0.618532 38.4795 11.5464 49.4073 25 49.4073C38.4537 49.4073 49.3815 38.4795 49.3815 25.0258C49.3815 11.5721 38.4279 0.644333 25 0.644333Z" fill="white"/>
<path d="M35.7474 24.175H14.2268V25.8501H35.7474V24.175Z" fill="white"/>
<path d="M30.4639 31.3401L29.2783 30.1547L34.5103 24.9484L29.4072 19.8453L30.5928 18.6857L36.8556 24.9484L30.4639 31.3401Z" fill="white"/>
</svg>
