<svg width="141" height="20" viewBox="0 0 141 20" fill="none" xmlns="http://www.w3.org/2000/svg">
<path d="M0.189941 0.870117H4.18005L7.25 9.30011C7.64 10.4201 7.97998 11.6102 8.34998 12.7802H8.46997C8.85997 11.6102 9.17995 10.4201 9.56995 9.30011L12.5699 0.870117H16.5601V18.8901H13.27V11.3601C13.27 9.66011 13.54 7.15012 13.71 5.44012H13.61L12.15 9.68011L9.37 17.2501H7.30005L4.5 9.68011L3.06006 5.44012H2.95996C3.12996 7.15012 3.42004 9.65011 3.42004 11.3601V18.8901H0.180054V0.870117H0.189941Z" fill="black"/>
<path d="M31.88 14.2601H26.04L24.77 18.8901H21.12L26.89 0.870117H31.13L36.9301 18.8901H33.15L31.88 14.2601ZM31.1 11.4601L30.5601 9.49011C30.0001 7.61011 29.51 5.5401 28.98 3.6001H28.88C28.42 5.5701 27.88 7.62011 27.35 9.49011L26.8101 11.4601H31.1Z" fill="black"/>
<path d="M43.1801 3.86011H38.11V0.860107H51.89V3.86011H46.78V18.8901H43.1801V3.86011Z" fill="black"/>
<path d="M60.84 3.86011H55.77V0.860107H69.55V3.86011H64.4399V18.8901H60.84V3.86011Z" fill="black"/>
<path d="M84.73 18.8901L81.03 12.0701H78.52V18.8901H74.92V0.870117H81.2C84.97 0.870117 87.97 2.19014 87.97 6.33014C87.97 9.03014 86.61 10.7101 84.54 11.5201L88.75 18.9001H84.73V18.8901ZM78.52 9.22009H80.86C83.17 9.22009 84.4399 8.25013 84.4399 6.32013C84.4399 4.37013 83.17 3.71014 80.86 3.71014H78.52V9.22009Z" fill="black"/>
<path d="M93.97 0.870117H105.03V3.87012H97.58V8.03015H103.91V11.0501H97.58V15.8701H105.3V18.8901H93.98V0.870117H93.97Z" fill="black"/>
<path d="M110.19 16.6L112.26 14.1201C113.55 15.3101 115.26 16.1201 116.84 16.1201C118.72 16.1201 119.71 15.32 119.71 14.05C119.71 12.71 118.61 12.3001 117.01 11.6201L114.6 10.6C112.77 9.85004 110.95 8.38006 110.95 5.75006C110.95 2.80006 113.53 0.540039 117.18 0.540039C119.27 0.540039 121.37 1.37004 122.83 2.85004L121 5.11005C119.86 4.16005 118.66 3.62006 117.18 3.62006C115.6 3.62006 114.57 4.33008 114.57 5.52008C114.57 6.81008 115.86 7.27007 117.4 7.88007L119.76 8.88007C121.95 9.78007 123.39 11.1701 123.39 13.7701C123.39 16.7201 120.93 19.23 116.77 19.23C114.36 19.23 111.95 18.28 110.19 16.6Z" fill="black"/>
<path d="M127.36 16.6L129.43 14.1201C130.72 15.3101 132.43 16.1201 134.01 16.1201C135.89 16.1201 136.88 15.32 136.88 14.05C136.88 12.71 135.78 12.3001 134.18 11.6201L131.77 10.6C129.94 9.85004 128.12 8.38006 128.12 5.75006C128.12 2.80006 130.7 0.540039 134.35 0.540039C136.44 0.540039 138.54 1.37004 140 2.85004L138.17 5.11005C137.03 4.16005 135.83 3.62006 134.35 3.62006C132.77 3.62006 131.74 4.33008 131.74 5.52008C131.74 6.81008 133.03 7.27007 134.57 7.88007L136.93 8.88007C139.12 9.78007 140.56 11.1701 140.56 13.7701C140.56 16.7201 138.1 19.23 133.94 19.23C131.53 19.23 129.12 18.28 127.36 16.6Z" fill="black"/>
</svg>
