<svg width="692" height="115" viewBox="0 0 692 115" fill="none" xmlns="http://www.w3.org/2000/svg">
<path d="M26.12 22.71C26.12 33.37 20.93 40.1799 13.56 40.1799C6.19 40.1799 0.940002 33.37 0.940002 22.71C0.940002 12.05 6.19 5.22998 13.56 5.22998C20.93 5.23998 26.12 12.05 26.12 22.71ZM21.76 22.71C21.76 14.61 18.35 9.37 13.55 9.37C8.68999 9.37 5.28998 14.62 5.28998 22.71C5.28998 30.86 8.69999 36.1101 13.55 36.1101C18.36 36.1101 21.76 30.86 21.76 22.71ZM47 25.22H38.74V51.46H34.16V1.43994H38.74V21.3701H47V25.22Z" fill="white"/>
<path d="M79.82 2.5H84.18V48.95H79.82V24.05H72.39V38.01H53.35V7.18994H72.39V20.25H79.82V2.5ZM68.15 10.8199H57.65V34.3799H68.15V10.8199ZM94.12 1.38V51.3999H89.76V1.38H94.12Z" fill="white"/>
<path d="M110.41 35.6101C118.62 35.6101 125.99 35.2201 134.75 33.8201L135.2 37.5601C126.16 39.0701 118.56 39.3999 109.96 39.3999H105.83V20.1899H124.25V9.75H105.66V6.01001H128.89V23.9299H110.41V35.6101ZM144.02 1.32996V51.52H139.44V1.32996H144.02Z" fill="white"/>
<path d="M199.57 22.4299V26.1201H154.23V22.4299H199.57ZM195.49 19.25C187.56 18.19 180.08 14.67 176.95 9.26001C173.77 14.68 166.23 18.19 158.3 19.25L156.74 15.79C165.84 14.78 174.61 9.75999 174.61 3.62V1.71997H179.3V3.62C179.3 9.75999 188.01 14.79 197.06 15.79L195.49 19.25ZM164.34 47.3301H195.27V50.8999H159.87V38.8999H189.23V34.21H159.7V30.75H193.76V42.25H164.34V47.3301Z" fill="white"/>
<path d="M236.58 26.23C228.37 27.57 221.56 27.8501 212.29 27.8501H208.27V13.84H226.36V7.53003H208.1V3.83997H230.88V17.3501H212.74V24.1101C221.62 24.1101 228.15 23.83 236.08 22.55L236.58 26.23ZM242.22 31.4199H246.74V50.79H214.3V31.4199H218.82V37.3401H242.21V31.4199H242.22ZM242.22 40.9099H218.83V47.05H242.22V40.9099ZM246.74 1.43994V28.9099H242.16V1.43994H246.74Z" fill="white"/>
<path d="M302.23 27.74V31.4199H256.95V27.74H302.23ZM262.04 13.11C262.04 6.85999 268.91 3.12 279.63 3.12C290.35 3.12 297.22 6.85999 297.22 13.11C297.22 19.36 290.35 23.05 279.63 23.05C268.91 23.05 262.04 19.36 262.04 13.11ZM267.4 46.6101H297.27V50.3501H262.82V35.8301H267.4V46.6101ZM266.72 13.11C266.72 17.07 271.75 19.3601 279.62 19.3601C287.49 19.3601 292.52 17.07 292.52 13.11C292.52 9.14999 287.5 6.80005 279.62 6.80005C271.74 6.80005 266.72 9.13999 266.72 13.11Z" fill="white"/>
<path d="M338.91 16.74C338.91 24 342.54 32.3199 350.58 36.1699L346.67 41.75C341.2 39.24 337.46 34.44 335.34 28.74C333.11 34.88 329.14 40.0699 323.39 42.6399L319.43 37C327.75 33.15 331.6 24.44 331.6 16.73V14.9399H321.16V9.07996H331.6V1.93005H338.97V9.07996H349.13V14.9399H338.91V16.74ZM368.05 26.79H360.57V52.1399H353.2V0.780029H360.57V20.71H368.05V26.79Z" fill="white"/>
<path d="M398.14 25.73H373.85V2.83997H381.16V8.87H390.93V2.83997H398.13V7.18994H407.29V0.77002H414.66V27.1201H407.29V22.1499H398.13V25.73H398.14ZM416.12 45.8301V51.5801H380.84V37.51H407.36V34.77H380.73V29.0801H414.68V42.8101H388.1V45.8301H416.12ZM390.94 14.39H381.17V19.97H390.94V14.39ZM398.14 12.77V16.5701H407.3V12.77H398.14Z" fill="white"/>
<path d="M442.3 37.23C446.26 37.01 450.23 36.7299 453.91 36.1699L454.47 41.47C443.64 43.59 432.08 43.5901 423.37 43.5901L422.48 37.6201C426.16 37.6201 430.41 37.62 434.93 37.51V33.1499C429.57 32.0899 426.05 28.5699 426.05 23.8799C426.05 18.0699 431.24 14.16 438.61 14.16C445.98 14.16 451.17 18.0699 451.17 23.8799C451.17 28.5699 447.65 32.0899 442.29 33.1499V37.23H442.3ZM453.69 12.16H423.43V6.34998H434.93V0.930054H442.3V6.34998H453.69V12.16ZM438.61 28.01C441.96 28.01 444.19 26.5599 444.19 23.8799C444.19 21.1999 441.96 19.75 438.61 19.75C435.26 19.75 433.03 21.1999 433.03 23.8799C433.03 26.5599 435.26 28.01 438.61 28.01ZM470.33 27.74H463.91V52.1399H456.54V0.719971H463.91V21.6599H470.33V27.74Z" fill="white"/>
<path d="M507.23 31.8101C496.51 33.3701 485.01 33.6001 475.57 33.6001L474.62 27.74C478.7 27.74 483.16 27.7399 487.68 27.6299V22.3301H478.86V3.79004H503.7V9.65002H486.23V16.46H504.04V22.3201H495.05V27.3401C499.01 27.1701 502.98 26.8901 506.72 26.5601L507.23 31.8101ZM518.56 45.3799V51.24H482.38V36.6101H489.81V45.3799H518.56ZM517.22 39.3999H509.79V0.650024H517.22V39.3999Z" fill="white"/>
<path d="M587.78 23.72V29.53H541.5V23.72H558.64V14.73H566.01V23.72H587.78ZM582.59 42.48C582.59 48.45 575.44 52.1399 564.33 52.1399C553.28 52.1399 546.13 48.46 546.13 42.48C546.13 36.45 553.28 32.76 564.33 32.76C575.45 32.76 582.59 36.44 582.59 42.48ZM573.6 20.25C574.77 15.67 574.94 12.21 574.94 8.80005H546.69V3H582.31V7.23999C582.31 11.32 582.31 15.67 580.86 20.97L573.6 20.25ZM575.28 42.48C575.28 39.69 571.32 38.29 564.34 38.29C557.42 38.29 553.45 39.69 553.45 42.48C553.45 45.21 557.41 46.6101 564.34 46.6101C571.31 46.6101 575.28 45.21 575.28 42.48Z" fill="white"/>
<path d="M619.33 4.56006C619.33 18.5201 610.73 28.1801 595.43 32.5901L592.36 26.73C603.81 23.6 610.17 17.6301 611.34 10.4301H594.59V4.56995H619.33V4.56006ZM607.38 45.3799H634.96V51.24H600.01V33.8201H607.38V45.3799ZM640.04 15.0601V21.0901H633.17V37.5H625.8V0.709961H633.17V15.0601H640.04Z" fill="white"/>
<path d="M659.29 36.4399C664.76 36.2199 670.34 35.94 675.43 35.27L675.71 38.6201C665.32 40.2901 653.55 40.52 644.67 40.52L644.17 36.72C647.35 36.72 651.04 36.66 654.78 36.55V21.1399H659.3V36.4399H659.29ZM666.22 29.02C667.62 20.7 667.73 14.62 667.73 10.6H646.91V6.85999H672.2V9.59998C672.2 13.62 672.2 20.15 670.8 29.48L666.22 29.02ZM691.06 26.1699H683.08V51.46H678.5V1.38H683.08V22.3201H691.06V26.1699Z" fill="white"/>
<path d="M113.93 74.03C113.93 83.74 117.67 93.18 126.16 96.98L121.8 102.84C116.16 100.11 112.42 95.0799 110.3 88.8799C108.07 95.4699 104.22 100.83 98.47 103.73L93.89 97.8101C102.6 93.7901 106.51 83.8 106.51 74.03V66.6001H113.94V74.03H113.93ZM137.77 62.5901V114.18H130.4V84.6499H120.52V78.73H130.4V62.5901H137.77Z" fill="white"/>
<path d="M155.8 66.72V79.1699H166.52V66.72H173.83V102.17H148.48V66.72H155.8ZM155.8 96.3101H166.52V84.9199H155.8V96.3101ZM188.57 62.5901V114.18H181.2V62.5901H188.57Z" fill="white"/>
<path d="M243.9 101.84V107.81H197.34V101.84H243.9ZM239.15 93.02C230.22 91.23 223.63 86.26 220.33 79.73C217.04 86.26 210.5 91.29 201.57 93.02L198.44 86.8799C210 84.8699 216.42 76.7201 216.42 69.3501V65.6699H224.29V69.3501C224.29 76.8901 230.65 84.8699 242.27 86.8799L239.15 93.02Z" fill="white"/>
<path d="M294.64 86.6001V90.0601H249.25V86.6001H294.64ZM259.3 109.43H290.57V112.72H254.78V101.61H284.48V97.4199H254.66V94.1299H289V104.79H259.3V109.43ZM284.31 68.01H254.94V64.77H288.83V75.21H259.57V79.51H289.72V82.8H255.05V72.0801H284.31V68.01Z" fill="white"/>
<path d="M330.93 77.4399C330.93 86.1499 334.67 94.86 341.59 98.77L338.8 102.12C333.94 99.2201 330.48 93.86 328.75 87.49C327.02 94.36 323.39 100.22 318.42 103.34L315.63 99.9299C322.61 95.7399 326.52 86.6399 326.52 77.4299V72.9099H317.03V69.1699H339.86V72.9099H330.93V77.4399ZM344.33 64.4299H348.68V110.77H344.33V85.03H336.06V81.29H344.33V64.4299ZM358.79 63.26V113.34H354.38V63.26H358.79Z" fill="white"/>
<path d="M412.77 86.6499V90.3899H367.71V86.6499H386.19V77.05H390.77V86.6499H412.77ZM407.52 104.18C407.52 109.87 400.71 113.34 390.05 113.34C379.39 113.34 372.63 109.88 372.63 104.18C372.63 98.3699 379.39 94.97 390.05 94.97C400.71 94.97 407.52 98.3799 407.52 104.18ZM402.61 69.5701H373.02V65.8899H407.13V70.1299C407.13 74.1499 407.13 78.2301 405.73 83.3601L401.26 82.8601C402.6 77.7201 402.6 74.0399 402.6 70.1299V69.5701H402.61ZM402.94 104.18C402.94 100.61 397.92 98.48 390.04 98.48C382.22 98.48 377.2 100.6 377.2 104.18C377.2 107.64 382.22 109.76 390.04 109.76C397.92 109.77 402.94 107.64 402.94 104.18Z" fill="white"/>
<path d="M448.66 72.1399H419.13V68.46H431.58V62.8201H436.16V68.46H448.67V72.1399H448.66ZM433.87 92.01C426.72 92.01 421.92 88.6 421.92 83.24C421.92 77.94 426.72 74.53 433.87 74.53C441.02 74.53 445.87 77.94 445.87 83.24C445.87 88.61 441.02 92.01 433.87 92.01ZM433.87 88.55C438.45 88.55 441.52 86.54 441.52 83.25C441.52 80.01 438.45 77.95 433.87 77.95C429.29 77.95 426.28 80.01 426.28 83.25C426.28 86.54 429.29 88.55 433.87 88.55ZM453.3 94.6399H457.82V112.73H426.33V94.6399H430.85V99.9399H453.29V94.6399H453.3ZM453.3 103.51H430.86V109.04H453.3V103.51ZM465.25 79.8999H457.82V92.4099H453.24V63.3201H457.82V76.05H465.25V79.8999Z" fill="white"/>
<path d="M478.03 96.54C485.57 96.54 493.33 95.8699 501.65 94.1899L502.15 98.1001C493.44 99.8901 485.57 100.45 477.58 100.45H473.45V68.1799H478.03V96.54ZM511.36 63.3101V113.33H506.78V63.3101H511.36Z" fill="white"/>
<path d="M528.38 97.0901C537.26 97.0901 543.68 96.6999 550.93 95.4199L551.43 99.22C543.78 100.67 537.19 101.01 527.76 101.01H523.8V68.1299H547.08V71.9299H528.38V97.0901ZM568.47 86.8799H560.21V113.51H555.63V63.3201H560.21V83.0801H568.47V86.8799Z" fill="white"/>
<path d="M574.16 106.14C574.16 103.85 575.83 102.18 577.85 102.18C579.86 102.18 581.53 103.85 581.53 106.14C581.53 108.43 579.86 109.99 577.85 109.99C575.83 109.99 574.16 108.43 574.16 106.14Z" fill="white"/>
</svg>
