<svg width="157" height="25" viewBox="0 0 157 25" fill="none" xmlns="http://www.w3.org/2000/svg">
<path d="M12.4 0.219971C5.83 0.219971 0.5 5.54997 0.5 12.12C0.5 18.69 5.83 24.02 12.4 24.02C14.76 24.02 16.95 23.33 18.8 22.15V24.02H24.31V12.12C24.3 5.54997 18.97 0.219971 12.4 0.219971ZM12.4 18.53C8.87 18.53 6 15.67 6 12.13C6 8.58997 8.86 5.72997 12.4 5.72997C15.93 5.72997 18.8 8.58997 18.8 12.13C18.8 15.67 15.93 18.53 12.4 18.53Z" fill="white"/>
<path opacity="0.36" d="M18.79 12.1299C18.79 15.6599 15.93 18.5299 12.39 18.5299C12.21 18.5299 12.02 18.5199 11.84 18.5099V24.0299C12.02 24.0399 12.2 24.0399 12.39 24.0399C14.75 24.0399 16.94 23.3499 18.79 22.1699V12.1299Z" fill="url(#paint0_linear_613_187)"/>
<path d="M44.6801 16.7598C44.3001 17.3598 43.6801 17.7998 43.0101 18.0798C42.3401 18.3598 41.6101 18.4998 41.0401 18.4998C39.4901 18.4998 38.0001 17.9098 36.8901 16.8498C35.7801 15.7898 35.0601 14.2598 35.0601 12.3898C35.0601 10.4998 35.7801 8.96978 36.8901 7.91978C38.0001 6.85978 39.5001 6.27979 41.0401 6.27979C41.5701 6.27979 42.2701 6.37979 42.9401 6.63979C43.6101 6.89979 44.2601 7.32978 44.6901 7.98978V7.25979V6.52979H46.2201H47.7501V12.3998V18.2698H46.2201H44.6901V17.5198V16.7598H44.6801ZM41.4601 15.5598C42.2901 15.5598 43.1001 15.2698 43.6901 14.7298C44.2901 14.1898 44.6801 13.3998 44.6801 12.3898C44.6801 11.3698 44.2801 10.5798 43.6701 10.0398C43.0701 9.49979 42.2601 9.21979 41.4601 9.21979C40.6201 9.21979 39.8101 9.52978 39.2101 10.0898C38.6101 10.6398 38.2201 11.4398 38.2201 12.3898C38.2201 13.3298 38.6101 14.1298 39.2101 14.6798C39.8001 15.2298 40.6201 15.5598 41.4601 15.5598Z" fill="white"/>
<path d="M61.29 12.0098V15.1398V18.2698H59.76H58.23V15.0398V11.8098C58.22 10.9898 57.98 10.3598 57.59 9.92979C57.2 9.49979 56.67 9.26978 56.06 9.26978C55.43 9.26978 54.81 9.44979 54.36 9.88979C53.9 10.3198 53.6001 11.0098 53.6001 12.0198V15.1498V18.2798H52.0701H50.54V12.3998V6.52979H52.0701H53.6001V7.39979V8.26978C53.9301 7.54978 54.49 7.05979 55.12 6.74979C55.74 6.43979 56.42 6.30978 56.98 6.30978C57.91 6.35978 58.68 6.54979 59.31 6.89979C59.93 7.25979 60.4 7.77978 60.73 8.48978C61.28 7.51978 61.98 6.96979 62.65 6.65979C63.32 6.34979 63.97 6.27979 64.43 6.27979C65.85 6.27979 66.98 6.73978 67.76 7.62978C68.54 8.51978 68.9601 9.83978 68.9601 11.5598V14.9198V18.2798H67.44H65.92V15.0798V11.8798C65.92 11.0398 65.68 10.3798 65.28 9.93979C64.88 9.49979 64.33 9.25979 63.7 9.25979C63.01 9.25979 62.4101 9.49979 61.9901 9.95979C61.5501 10.4298 61.29 11.1198 61.29 12.0098Z" fill="white"/>
<path d="M82.9 13.4198H78.42H73.94C74.04 14.1998 74.42 14.8298 74.99 15.2598C75.56 15.6898 76.32 15.9298 77.19 15.9298C77.78 15.9298 78.38 15.7998 78.9 15.5498C79.42 15.2998 79.86 14.9198 80.14 14.4198C80.5 14.6198 80.9 14.8398 81.3 15.0498C81.7 15.2598 82.1 15.4798 82.48 15.6798C81.95 16.6898 81.12 17.3998 80.15 17.8598C79.18 18.3198 78.07 18.5298 76.99 18.5298C75.32 18.5298 73.79 17.9098 72.69 16.8398C71.59 15.7598 70.9 14.2198 70.9 12.3698C70.9 10.5198 71.59 8.99979 72.69 7.93979C73.79 6.87979 75.32 6.27979 76.99 6.27979C78.66 6.27979 80.15 6.87979 81.23 7.93979C82.3 8.99979 82.96 10.5198 82.96 12.3698C82.96 12.5198 82.95 12.7198 82.94 12.9098C82.93 13.0898 82.91 13.2798 82.9 13.4198ZM79.96 11.3298C79.85 10.5198 79.49 9.89979 78.97 9.47979C78.45 9.05979 77.77 8.83978 77.02 8.83978C76.21 8.83978 75.5 9.06978 74.95 9.48978C74.41 9.90978 74.03 10.5398 73.92 11.3298H76.94H79.96V11.3298Z" fill="white"/>
<path d="M88.45 18.2698H86.92H85.39V12.3998V6.52978H86.92H88.45V7.90978V9.28978C88.75 8.21978 89.25 7.46978 89.84 6.97978C90.43 6.48978 91.11 6.26978 91.77 6.26978C92.19 6.26978 92.55 6.30978 92.87 6.38978C93.19 6.46978 93.47 6.56978 93.71 6.69978L93.45 8.07978L93.19 9.45978C92.83 9.29978 92.45 9.20978 92.14 9.16978C91.82 9.12978 91.56 9.12978 91.41 9.12978C90.37 9.12978 89.63 9.59978 89.16 10.4498C88.69 11.3098 88.47 12.5498 88.47 14.1098V16.1898V18.2698H88.45Z" fill="white"/>
<path d="M97.13 0.129883C97.66 0.129883 98.14 0.329882 98.49 0.659882C98.84 0.989882 99.06 1.44988 99.06 1.96988C99.06 2.49988 98.84 2.95988 98.49 3.29988C98.14 3.62988 97.65 3.82988 97.13 3.82988C96.59 3.82988 96.09 3.62988 95.73 3.29988C95.37 2.96988 95.14 2.49988 95.14 1.96988C95.14 1.44988 95.37 0.999882 95.73 0.659882C96.09 0.329882 96.58 0.129883 97.13 0.129883ZM98.63 18.2699H97.11H95.59V12.3999V6.52988H97.11H98.63V12.3999V18.2699Z" fill="white"/>
<path d="M101.19 9.76978C101.19 8.82978 101.69 7.94978 102.48 7.30978C103.27 6.66978 104.35 6.26978 105.52 6.26978C106.63 6.26978 107.75 6.51978 108.6 7.10978C109.46 7.69978 110.05 8.61978 110.1 9.96978H108.64H107.18C107.15 9.52978 106.93 9.22978 106.62 9.03978C106.31 8.84978 105.93 8.76978 105.59 8.76978C105.21 8.76978 104.84 8.83978 104.56 9.01978C104.28 9.19978 104.1 9.48978 104.1 9.92978C104.1 10.1698 104.24 10.3698 104.46 10.5298C104.68 10.6898 104.99 10.8198 105.33 10.9098L106.31 11.1498L107.29 11.3898C108.65 11.7398 109.42 12.3898 109.84 13.0698C110.27 13.7498 110.36 14.4498 110.36 14.9198C110.36 16.1098 109.77 17.0198 108.87 17.6298C107.97 18.2398 106.77 18.5498 105.55 18.5498C104.39 18.5498 103.22 18.1998 102.34 17.5298C101.45 16.8598 100.85 15.8698 100.82 14.5998H102.25H103.68C103.72 15.0098 103.98 15.3998 104.37 15.6698C104.76 15.9398 105.28 16.1098 105.85 16.0798C106.28 16.0698 106.66 15.9398 106.94 15.7298C107.22 15.5198 107.39 15.2298 107.39 14.8898C107.4 14.5898 107.3 14.3598 107.08 14.1898C106.86 14.0098 106.54 13.8898 106.11 13.7898L105.3 13.5898L104.49 13.3898C102.97 12.9798 102.14 12.4198 101.69 11.7998C101.26 11.1498 101.19 10.4598 101.19 9.76978Z" fill="white"/>
<path d="M112 0.129883H113.53H115.06V9.19988V18.2699H113.53H112V9.19988V0.129883Z" fill="white"/>
<path d="M128.52 13.4198H124.04H119.56C119.66 14.1998 120.04 14.8298 120.61 15.2598C121.18 15.6898 121.94 15.9298 122.81 15.9298C123.4 15.9298 124 15.7998 124.52 15.5498C125.04 15.2998 125.48 14.9198 125.76 14.4198C126.12 14.6198 126.52 14.8398 126.92 15.0498C127.32 15.2598 127.72 15.4798 128.1 15.6798C127.57 16.6898 126.74 17.3998 125.77 17.8598C124.8 18.3198 123.69 18.5298 122.61 18.5298C120.94 18.5298 119.41 17.9098 118.31 16.8398C117.21 15.7598 116.52 14.2198 116.52 12.3698C116.52 10.5198 117.21 8.99979 118.31 7.93979C119.41 6.87979 120.94 6.27979 122.61 6.27979C124.28 6.27979 125.77 6.87979 126.85 7.93979C127.92 8.99979 128.58 10.5198 128.58 12.3698C128.58 12.5198 128.57 12.7198 128.56 12.9098C128.54 13.0898 128.53 13.2798 128.52 13.4198ZM125.58 11.3298C125.47 10.5198 125.11 9.89979 124.59 9.47979C124.07 9.05979 123.39 8.83978 122.64 8.83978C121.83 8.83978 121.12 9.06978 120.57 9.48978C120.03 9.90978 119.65 10.5398 119.54 11.3298H122.56H125.58V11.3298Z" fill="white"/>
<path d="M141.89 13.4198H137.41H132.93C133.03 14.1998 133.41 14.8298 133.98 15.2598C134.55 15.6898 135.31 15.9298 136.18 15.9298C136.77 15.9298 137.37 15.7998 137.89 15.5498C138.41 15.2998 138.85 14.9198 139.13 14.4198C139.49 14.6198 139.89 14.8398 140.29 15.0498C140.69 15.2598 141.09 15.4798 141.47 15.6798C140.94 16.6898 140.11 17.3998 139.14 17.8598C138.17 18.3198 137.06 18.5298 135.98 18.5298C134.31 18.5298 132.78 17.9098 131.68 16.8398C130.58 15.7598 129.89 14.2198 129.89 12.3698C129.89 10.5198 130.58 8.99979 131.68 7.93979C132.78 6.87979 134.31 6.27979 135.98 6.27979C137.65 6.27979 139.14 6.87979 140.22 7.93979C141.29 8.99979 141.95 10.5198 141.95 12.3698C141.95 12.5198 141.94 12.7198 141.93 12.9098C141.91 13.0898 141.9 13.2798 141.89 13.4198ZM138.95 11.3298C138.84 10.5198 138.48 9.89979 137.96 9.47979C137.44 9.05979 136.76 8.83978 136.01 8.83978C135.2 8.83978 134.49 9.06978 133.94 9.48978C133.4 9.90978 133.02 10.5398 132.91 11.3298H135.93H138.95V11.3298Z" fill="white"/>
<path d="M147.03 8.10979C147.34 7.52979 147.88 7.06979 148.53 6.75979C149.18 6.44979 149.94 6.27979 150.71 6.27979C152.24 6.27979 153.68 6.87978 154.73 7.94978C155.78 9.01978 156.45 10.5398 156.45 12.3898C156.45 14.2598 155.78 15.7998 154.73 16.8598C153.68 17.9298 152.25 18.5198 150.71 18.5198C149.94 18.5198 149.18 18.3598 148.53 18.0598C147.88 17.7598 147.35 17.2998 147.03 16.7098V20.3498V23.9898H145.5H143.97V15.2598V6.52979H145.5H147.03V7.31979V8.10979V8.10979ZM150.2 15.6098C151.04 15.6098 151.82 15.2998 152.38 14.7398C152.94 14.1898 153.3 13.3898 153.3 12.4398C153.3 11.4698 152.95 10.6698 152.38 10.0998C151.82 9.53978 151.04 9.21979 150.2 9.21979C149.36 9.21979 148.58 9.52978 148.01 10.0898C147.44 10.6498 147.08 11.4498 147.08 12.4398C147.08 13.4598 147.46 14.2498 148.04 14.7898C148.62 15.3198 149.4 15.6098 150.2 15.6098Z" fill="white"/>
<defs>
<linearGradient id="paint0_linear_613_187" x1="11.8489" y1="18.0791" x2="18.7932" y2="18.0791" gradientUnits="userSpaceOnUse">
<stop stop-color="white" stop-opacity="0"/>
<stop offset="1" stop-color="#2D2A26"/>
</linearGradient>
</defs>
</svg>
