<svg width="103" height="20" viewBox="0 0 103 20" fill="none" xmlns="http://www.w3.org/2000/svg">
<path d="M0.420044 0.869995H6.33997C10.33 0.869995 13.4 2.26002 13.4 6.52002C13.4 10.64 10.3099 12.49 6.43994 12.49H4.03003V18.9H0.430054V0.869995H0.420044ZM6.18994 9.63C8.66994 9.63 9.87 8.58001 9.87 6.51001C9.87 4.42001 8.54995 3.71002 6.06995 3.71002H4.02002V9.63H6.18994Z" fill="black"/>
<path d="M19.1 0.869995H22.7V18.89H19.1V0.869995Z" fill="black"/>
<path d="M29.58 0.869995H33.1801V15.87H40.49V18.89H29.58V0.869995V0.869995Z" fill="black"/>
<path d="M46.0699 0.869995H49.67V15.87H56.98V18.89H46.0699V0.869995V0.869995Z" fill="black"/>
<path d="M60.73 9.79999C60.73 3.92999 64.02 0.52002 68.79 0.52002C73.56 0.52002 76.85 3.94999 76.85 9.79999C76.85 15.65 73.56 19.22 68.79 19.22C64.02 19.22 60.73 15.65 60.73 9.79999ZM73.1801 9.79999C73.1801 5.92999 71.47 3.60999 68.8 3.60999C66.13 3.60999 64.42 5.91999 64.42 9.79999C64.42 13.65 66.13 16.11 68.8 16.11C71.47 16.11 73.1801 13.65 73.1801 9.79999Z" fill="black"/>
<path d="M80.97 0.869995H84.65L86.09 9.65997C86.36 11.56 86.65 13.48 86.92 15.41H87.02C87.39 13.49 87.77 11.54 88.16 9.65997L90.25 0.869995H93.3199L95.41 9.65997C95.8 11.51 96.16 13.46 96.55 15.41H96.67C96.94 13.46 97.21 11.54 97.47 9.65997L98.88 0.869995H102.31L98.97 18.89H94.49L92.47 9.97998C92.18 8.56998 91.9099 7.18001 91.6899 5.82001H91.59C91.35 7.18001 91.1001 8.56998 90.8101 9.97998L88.84 18.89H84.4301L80.97 0.869995Z" fill="black"/>
</svg>
