<svg width="284" height="37" viewBox="0 0 284 37" fill="none" xmlns="http://www.w3.org/2000/svg">
<path d="M8.74995 6.93005C8.74995 10.2301 7.13995 12.34 4.85995 12.34C2.57995 12.34 0.949951 10.2301 0.949951 6.93005C0.949951 3.63005 2.57995 1.52002 4.85995 1.52002C7.13995 1.52002 8.74995 3.63005 8.74995 6.93005ZM7.39996 6.93005C7.39996 4.42005 6.34995 2.80005 4.85995 2.80005C3.35995 2.80005 2.29996 4.42005 2.29996 6.93005C2.29996 9.45005 3.34995 11.08 4.85995 11.08C6.33995 11.08 7.39996 9.45005 7.39996 6.93005ZM15.21 7.70996H12.65V15.83H11.23V0.339966H12.65V6.51001H15.21V7.70996Z" fill="black"/>
<path d="M24.0799 0.670044H25.4299V15.05H24.0799V7.33997H21.7799V11.66H15.8799V2.12H21.7799V6.17004H24.0799V0.670044ZM20.4699 3.25H17.2199V10.55H20.4699V3.25ZM28.5099 0.319946V15.8101H27.1599V0.319946H28.5099Z" fill="black"/>
<path d="M32.26 10.92C34.8 10.92 37.08 10.8 39.8 10.37L39.94 11.53C37.14 12 34.79 12.1 32.13 12.1H30.85V6.15002H36.56V2.92004H30.8V1.76001H37.99V7.31006H32.27V10.92H32.26ZM42.67 0.310059V15.85H41.25V0.310059H42.67Z" fill="black"/>
<path d="M58.57 6.83997V7.97998H44.53V6.83997H58.57ZM57.31 5.85999C54.85 5.52999 52.54 4.44002 51.57 2.77002C50.58 4.45002 48.25 5.53999 45.8 5.85999L45.32 4.79004C48.14 4.48004 50.85 2.92002 50.85 1.02002V0.430054H52.3V1.02002C52.3 2.92002 55 4.48004 57.8 4.79004L57.31 5.85999ZM47.67 14.55H57.25V15.66H46.29V11.9399H55.38V10.49H46.23V9.42004H56.78V12.98H47.67V14.55Z" fill="black"/>
<path d="M68.7399 8.02002C66.1999 8.44002 64.0899 8.52002 61.2199 8.52002H59.9699V4.18005H65.5699V2.22998H59.9199V1.08997H66.9699V5.27002H61.3499V7.35999C64.0999 7.35999 66.1199 7.27 68.5799 6.88L68.7399 8.02002ZM70.4899 9.63H71.8899V15.63H61.8499V9.63H63.2499V11.46H70.4899V9.63ZM70.4899 12.5601H63.2499V14.46H70.4899V12.5601ZM71.8899 0.339966V8.84998H70.4699V0.339966H71.8899Z" fill="black"/>
<path d="M87.79 7.01001V8.15002H73.75V7.01001H87.79ZM75.33 3.28003C75.33 1.53003 77.37 0.579956 80.78 0.579956C84.19 0.579956 86.23 1.53003 86.23 3.28003C86.23 5.03003 84.19 5.95996 80.78 5.95996C77.37 5.95996 75.33 5.03003 75.33 3.28003ZM76.89 14.55H86.47V15.66H75.5V11.9399H84.59V10.5601H75.44V9.48999H86V12.98H76.89V14.55ZM76.78 3.28003C76.78 4.32003 78.23 4.90002 80.77 4.90002C83.31 4.90002 84.76 4.31003 84.76 3.28003C84.76 2.24003 83.31 1.65002 80.77 1.65002C78.23 1.65002 76.78 2.24003 76.78 3.28003Z" fill="black"/>
<path d="M105.95 8.54004V9.68005H91.9099V8.54004H98.2199V7.02002H93.7599V0.780029H104.22V1.89001H95.1799V3.31995H103.81V4.39001H95.1799V5.91003H104.31V7.02002H99.6399V8.54004H105.95ZM104.24 13.33C104.24 14.95 102.3 15.8199 98.9299 15.8199C95.5599 15.8199 93.6199 14.96 93.6199 13.33C93.6199 11.72 95.5599 10.86 98.9299 10.86C102.3 10.86 104.24 11.72 104.24 13.33ZM102.82 13.33C102.82 12.41 101.44 11.91 98.9299 11.91C96.4399 11.91 95.0399 12.41 95.0399 13.33C95.0399 14.26 96.4399 14.75 98.9299 14.75C101.44 14.74 102.82 14.26 102.82 13.33Z" fill="black"/>
<path d="M111.07 2.96997H114.22V4.13H106.53V2.96997H109.68V0.77002H111.08V2.96997H111.07ZM113.69 8.68994C113.69 10.7999 112.29 12.23 110.37 12.23C108.45 12.23 107.05 10.7899 107.05 8.68994C107.05 6.60994 108.45 5.16003 110.37 5.16003C112.29 5.16003 113.69 6.61994 113.69 8.68994ZM112.43 8.68994C112.43 7.33994 111.57 6.35999 110.37 6.35999C109.16 6.35999 108.31 7.34994 108.31 8.68994C108.31 10.0699 109.16 11.0601 110.37 11.0601C111.57 11.0601 112.43 10.0799 112.43 8.68994ZM119.68 0.310059V15.8199H118.31V8.02002H116.32V15.0699H114.99V0.670044H116.32V6.85999H118.31V0.310059H119.68Z" fill="black"/>
<path d="M124.22 14.55V2.64001H128.94C130 2.64001 130.85 2.94004 131.48 3.54004C132.11 4.14004 132.43 4.94998 132.43 5.97998C132.43 6.42998 132.3 6.86002 132.05 7.27002C131.8 7.68002 131.4 7.99996 130.86 8.20996C131.56 8.38996 132.1 8.75003 132.48 9.28003C132.86 9.81003 133.04 10.35 133.04 10.9C133.04 11.92 132.7 12.78 132.01 13.49C131.32 14.2 130.41 14.55 129.28 14.55H124.22ZM126.75 7.39001H128.74C129.07 7.39001 129.33 7.27004 129.54 7.04004C129.75 6.81004 129.85 6.51002 129.85 6.15002C129.85 5.76002 129.75 5.44997 129.56 5.21997C129.37 4.98997 129.08 4.88 128.72 4.88H126.75V7.39001ZM126.75 12.3199H129.2C129.6 12.3199 129.91 12.17 130.14 11.88C130.36 11.58 130.48 11.24 130.48 10.85C130.48 10.48 130.36 10.15 130.13 9.85999C129.9 9.56999 129.57 9.43005 129.15 9.43005H126.76V12.3199H126.75Z" fill="#10376D"/>
<path d="M135.03 12.71C134.65 12.06 134.46 11.33 134.46 10.5C134.46 9.67 134.65 8.94005 135.03 8.30005C135.41 7.65005 135.92 7.15995 136.56 6.81995C137.2 6.47995 137.9 6.31006 138.67 6.31006C139.24 6.31006 139.78 6.41 140.28 6.62C140.79 6.83 141.23 7.11998 141.6 7.47998C141.97 7.84998 142.27 8.28996 142.48 8.82996C142.7 9.35996 142.8 9.94006 142.8 10.5601C142.8 10.7701 142.79 11.02 142.77 11.3H136.85C136.91 11.74 137.13 12.0801 137.53 12.3101C137.93 12.5501 138.36 12.66 138.84 12.66C139.19 12.66 139.52 12.59 139.84 12.46C140.16 12.33 140.41 12.14 140.6 11.89L142.35 13.09C141.97 13.65 141.45 14.0599 140.79 14.3199C140.13 14.5799 139.42 14.71 138.66 14.71C137.89 14.71 137.18 14.5399 136.55 14.1899C135.92 13.8399 135.41 13.36 135.03 12.71ZM136.89 9.80005H140.39C140.33 9.36005 140.14 9.03005 139.8 8.80005C139.46 8.57005 139.09 8.45996 138.7 8.45996C138.31 8.45996 137.93 8.57004 137.58 8.79004C137.21 9.01004 136.98 9.35005 136.89 9.80005Z" fill="#10376D"/>
<path d="M143.67 8.38V6.47998H145.14V3.38H147.53V6.47998H149.23V8.38H147.53V14.55H145.14V8.38H143.67Z" fill="#10376D"/>
<path d="M149.97 8.38V6.47998H151.44V3.38H153.83V6.47998H155.53V8.38H153.83V14.55H151.44V8.38H149.97Z" fill="#10376D"/>
<path d="M156.96 12.71C156.58 12.06 156.39 11.33 156.39 10.5C156.39 9.67 156.58 8.94005 156.96 8.30005C157.34 7.65005 157.85 7.15995 158.49 6.81995C159.13 6.47995 159.83 6.31006 160.6 6.31006C161.17 6.31006 161.71 6.41 162.21 6.62C162.72 6.83 163.16 7.11998 163.53 7.47998C163.9 7.84998 164.2 8.28996 164.41 8.82996C164.63 9.35996 164.73 9.94006 164.73 10.5601C164.73 10.7701 164.72 11.02 164.7 11.3H158.78C158.84 11.74 159.06 12.0801 159.46 12.3101C159.86 12.5501 160.29 12.66 160.77 12.66C161.12 12.66 161.45 12.59 161.77 12.46C162.09 12.33 162.34 12.14 162.53 11.89L164.28 13.09C163.9 13.65 163.38 14.0599 162.72 14.3199C162.06 14.5799 161.35 14.71 160.59 14.71C159.82 14.71 159.11 14.5399 158.48 14.1899C157.85 13.8399 157.34 13.36 156.96 12.71ZM158.82 9.80005H162.32C162.26 9.36005 162.07 9.03005 161.73 8.80005C161.39 8.57005 161.02 8.45996 160.63 8.45996C160.24 8.45996 159.86 8.57004 159.51 8.79004C159.14 9.01004 158.92 9.35005 158.82 9.80005Z" fill="#10376D"/>
<path d="M166.38 14.55V6.47998H168.77V8.41003C168.96 7.72003 169.27 7.18996 169.71 6.82996C170.14 6.46996 170.59 6.29004 171.05 6.29004C171.59 6.29004 172.05 6.38996 172.43 6.57996L172 8.72998C171.67 8.56998 171.26 8.47998 170.77 8.47998C170.08 8.47998 169.58 8.75003 169.25 9.28003C168.92 9.81003 168.76 10.62 168.76 11.7V14.53H166.38V14.55Z" fill="#10376D"/>
<path d="M177.16 11.0601H179.7C179.72 11.4601 179.88 11.7901 180.19 12.0601C180.5 12.3301 180.93 12.47 181.48 12.47C182 12.47 182.42 12.36 182.74 12.13C183.06 11.9 183.22 11.6 183.23 11.22C183.24 10.92 183.15 10.67 182.94 10.45C182.73 10.23 182.36 10.04 181.79 9.88L180.37 9.45996C178.31 8.82996 177.27 7.69005 177.27 6.05005C177.27 5.01005 177.66 4.16 178.45 3.5C179.24 2.84 180.21 2.51001 181.37 2.51001C182.54 2.51001 183.5 2.84 184.26 3.5C185.01 4.16 185.39 5.04003 185.39 6.16003H182.88C182.88 5.75003 182.75 5.42004 182.48 5.17004C182.21 4.92004 181.83 4.79004 181.34 4.79004C180.89 4.79004 180.53 4.9 180.23 5.12C179.94 5.34 179.79 5.61997 179.79 5.96997C179.79 6.52997 180.22 6.94005 181.08 7.18005L182.5 7.59998C184.73 8.25998 185.8 9.46999 185.74 11.24C185.74 11.82 185.61 12.34 185.36 12.79C185.11 13.25 184.78 13.62 184.38 13.89C183.98 14.16 183.52 14.38 183.03 14.53C182.53 14.68 182.02 14.75 181.48 14.75C180.19 14.75 179.15 14.41 178.35 13.72C177.55 13.02 177.16 12.1401 177.16 11.0601Z" fill="#10376D"/>
<path d="M187.56 14.55V2.07996H189.95V14.55H187.56Z" fill="#10376D"/>
<path d="M192.25 12.71C191.87 12.06 191.68 11.33 191.68 10.5C191.68 9.67 191.87 8.94005 192.25 8.30005C192.63 7.65005 193.14 7.15995 193.78 6.81995C194.42 6.47995 195.12 6.31006 195.89 6.31006C196.46 6.31006 197 6.41 197.5 6.62C198.01 6.83 198.45 7.11998 198.82 7.47998C199.19 7.84998 199.49 8.28996 199.7 8.82996C199.92 9.35996 200.02 9.94006 200.02 10.5601C200.02 10.7701 200.01 11.02 199.99 11.3H194.07C194.13 11.74 194.35 12.0801 194.75 12.3101C195.15 12.5501 195.58 12.66 196.06 12.66C196.41 12.66 196.74 12.59 197.06 12.46C197.38 12.33 197.63 12.14 197.82 11.89L199.57 13.09C199.19 13.65 198.67 14.0599 198.01 14.3199C197.35 14.5799 196.64 14.71 195.88 14.71C195.11 14.71 194.4 14.5399 193.77 14.1899C193.14 13.8399 192.63 13.36 192.25 12.71ZM194.12 9.80005H197.62C197.56 9.36005 197.37 9.03005 197.03 8.80005C196.69 8.57005 196.32 8.45996 195.93 8.45996C195.54 8.45996 195.16 8.57004 194.81 8.79004C194.44 9.01004 194.21 9.35005 194.12 9.80005Z" fill="#10376D"/>
<path d="M201.76 12.71C201.38 12.06 201.19 11.33 201.19 10.5C201.19 9.67 201.38 8.94005 201.76 8.30005C202.14 7.65005 202.65 7.15995 203.29 6.81995C203.93 6.47995 204.63 6.31006 205.4 6.31006C205.97 6.31006 206.51 6.41 207.01 6.62C207.52 6.83 207.96 7.11998 208.33 7.47998C208.7 7.84998 209 8.28996 209.21 8.82996C209.43 9.35996 209.53 9.94006 209.53 10.5601C209.53 10.7701 209.52 11.02 209.5 11.3H203.58C203.64 11.74 203.86 12.0801 204.26 12.3101C204.66 12.5501 205.09 12.66 205.57 12.66C205.92 12.66 206.25 12.59 206.57 12.46C206.89 12.33 207.14 12.14 207.33 11.89L209.08 13.09C208.7 13.65 208.18 14.0599 207.52 14.3199C206.86 14.5799 206.15 14.71 205.39 14.71C204.62 14.71 203.91 14.5399 203.28 14.1899C202.65 13.8399 202.14 13.36 201.76 12.71ZM203.62 9.80005H207.12C207.06 9.36005 206.87 9.03005 206.53 8.80005C206.19 8.57005 205.82 8.45996 205.43 8.45996C205.04 8.45996 204.66 8.57004 204.31 8.79004C203.94 9.01004 203.72 9.35005 203.62 9.80005Z" fill="#10376D"/>
<path d="M211.18 18.51V6.47998H213.57V7.47998C213.77 7.10998 214.08 6.83 214.52 6.62C214.96 6.41 215.43 6.31006 215.94 6.31006C216.46 6.31006 216.95 6.40999 217.43 6.60999C217.9 6.80999 218.32 7.08994 218.68 7.43994C219.04 7.79994 219.32 8.24002 219.54 8.77002C219.75 9.30002 219.86 9.86999 219.86 10.49C219.86 11.12 219.75 11.71 219.54 12.25C219.33 12.79 219.04 13.24 218.68 13.59C218.32 13.94 217.91 14.2301 217.43 14.4301C216.95 14.6301 216.46 14.73 215.94 14.73C215.42 14.73 214.95 14.63 214.51 14.42C214.08 14.21 213.76 13.9299 213.57 13.5699V18.53H211.18V18.51ZM213.62 10.53C213.62 11.11 213.8 11.57 214.16 11.92C214.52 12.27 214.96 12.4399 215.48 12.4399C216 12.4399 216.45 12.26 216.81 11.91C217.17 11.56 217.35 11.1 217.35 10.53C217.35 9.95003 217.17 9.48 216.81 9.12C216.45 8.75999 216.01 8.57996 215.48 8.57996C214.97 8.57996 214.53 8.76 214.16 9.13C213.8 9.5 213.62 9.97003 213.62 10.53Z" fill="#10376D"/>
<path d="M235.6 6.53003V8.31006H221.22V6.53003H235.6ZM222.65 3.06006C222.65 1.31006 224.78 0.349976 228.41 0.349976C232.06 0.349976 234.18 1.32006 234.18 3.06006C234.18 4.82006 232.05 5.77002 228.41 5.77002C224.78 5.77002 222.65 4.82006 222.65 3.06006ZM225.14 14.21H234.27V15.92H222.88V11.74H231.61V10.89H222.86V9.20996H233.86V13.3101H225.15V14.21H225.14ZM225.02 3.06006C225.02 3.80006 226.11 4.10999 228.41 4.10999C230.73 4.10999 231.82 3.80006 231.82 3.06006C231.82 2.35006 230.73 2.02002 228.41 2.02002C226.11 2.02002 225.02 2.35006 225.02 3.06006Z" fill="#10376D"/>
<path d="M247.1 4.45996C246.11 6.96996 243.88 8.68003 240.37 9.66003L239.49 7.85999C243.12 6.88999 244.87 5.18002 245.16 3.02002H240.35V1.18994H247.65C247.65 1.68994 247.62 2.18001 247.55 2.64001H250.4V0.119995H252.68V9.28003H250.4V7.76001H246.89V5.93005H250.4V4.45996H247.1ZM252.79 12.72C252.79 14.71 250.66 15.95 247.43 15.95C244.18 15.95 242.05 14.7 242.05 12.72C242.05 10.73 244.18 9.48999 247.43 9.48999C250.66 9.48999 252.79 10.73 252.79 12.72ZM250.54 12.72C250.54 11.75 249.38 11.25 247.43 11.25C245.46 11.25 244.3 11.75 244.3 12.72C244.3 13.69 245.46 14.1899 247.43 14.1899C249.38 14.1899 250.54 13.69 250.54 12.72Z" fill="#10376D"/>
<path d="M263.33 3.30005H254.01V1.52002H257.52V0H259.8V1.52002H263.33V3.30005ZM258.68 9.56006C256.45 9.56006 254.86 8.37994 254.86 6.68994C254.86 4.99994 256.45 3.83997 258.68 3.83997C260.91 3.83997 262.5 4.99994 262.5 6.68994C262.5 8.37994 260.91 9.56006 258.68 9.56006ZM256.69 10.4H267.29V15.85H256.69V10.4ZM258.68 7.88C259.65 7.88 260.32 7.45994 260.32 6.68994C260.32 5.92994 259.65 5.51001 258.68 5.51001C257.71 5.51001 257.04 5.92994 257.04 6.68994C257.04 7.45994 257.71 7.88 258.68 7.88ZM258.94 14.0699H265.06V12.2H258.94V14.0699ZM267.29 0.119995V9.72998H265.01V6.62H263.02V4.77002H265.01V0.119995H267.29Z" fill="#10376D"/>
<path d="M277.96 3.57996H268.59V1.80005H272.12V0.109985H274.42V1.80005H277.98L277.96 3.57996ZM273.27 10.28C270.99 10.28 269.36 9.03995 269.36 7.19995C269.36 5.39995 270.98 4.14001 273.27 4.14001C275.56 4.14001 277.18 5.39995 277.18 7.19995C277.18 9.03995 275.56 10.28 273.27 10.28ZM273.14 13.95H281.7V15.77H270.86V11.15H273.14V13.95ZM273.27 8.55005C274.27 8.55005 275 8.07995 275 7.19995C275 6.33995 274.27 5.87 273.27 5.87C272.25 5.87 271.54 6.33995 271.54 7.19995C271.54 8.08995 272.25 8.55005 273.27 8.55005ZM283.23 4.96997V6.84998H281.12V12.02H278.84V0.109985H281.12V4.96997H283.23Z" fill="#10376D"/>
<path d="M47.48 24.41C47.48 27.28 48.6 30.1701 51.16 31.4301L49.78 33.23C48.12 32.38 47 30.8399 46.34 28.9399C45.65 30.9599 44.46 32.64 42.66 33.52L41.29 31.67C43.97 30.41 45.18 27.37 45.18 24.41V22.09H47.48V24.41ZM56.4 28.89H54.08V36.79H51.8V20.87H54.08V26.99H56.4V28.89Z" fill="#10376D"/>
<path d="M70.61 28.42V30.22H56.23V28.42H59.46V26.5C58.32 25.98 57.66 25.19 57.66 24.17C57.66 22.27 59.91 21.11 63.42 21.11C66.95 21.11 69.19 22.27 69.19 24.17C69.19 25.21 68.52 26 67.34 26.52V28.42H70.61ZM68.91 33.9C68.91 35.75 66.82 36.8 63.38 36.8C59.94 36.8 57.87 35.75 57.87 33.9C57.87 32.05 59.94 31.01 63.38 31.01C66.82 31.01 68.91 32.05 68.91 33.9ZM60.01 24.17C60.01 25.03 61.26 25.48 63.42 25.48C65.6 25.48 66.84 25.03 66.84 24.17C66.84 23.27 65.59 22.84 63.42 22.84C61.26 22.83 60.01 23.27 60.01 24.17ZM66.6 33.9C66.6 33.09 65.51 32.74 63.38 32.74C61.25 32.74 60.17 33.09 60.17 33.9C60.17 34.71 61.26 35.08 63.38 35.08C65.51 35.08 66.6 34.71 66.6 33.9ZM61.74 28.42H65.06V27.11C64.56 27.16 64.01 27.2 63.42 27.2C62.81 27.2 62.26 27.17 61.74 27.1V28.42Z" fill="#10376D"/>
<path d="M76.68 25.15C76.68 27.57 77.94 30.39 80.55 31.6L79.29 33.4C77.53 32.59 76.28 31 75.57 29.11C74.86 31.19 73.58 32.93 71.77 33.8L70.49 31.98C73.1 30.77 74.4 27.78 74.4 25.15V24.27H71.1V22.39H79.85V24.27H76.69V25.15H76.68ZM85.62 28.8199H83.3V36.79H81.02V20.87H83.3V26.9399H85.62V28.8199Z" fill="#10376D"/>
<path d="M99.86 27.04V28.84H85.46V27.04H99.86ZM89.3699 34.9H98.5V36.65H87.1V32.35H95.83V31.45H87.08V29.74H98.08V33.96H89.3699V34.9ZM98.1499 26.1899H87.24V21.1801H98.03V22.99H89.5099V24.39H98.1499V26.1899Z" fill="#10376D"/>
<path d="M100.12 31.74C102.92 31.74 106.83 31.72 110.18 31.22L110.32 32.86C106.9 33.55 103.16 33.59 100.41 33.59L100.12 31.74ZM109.56 25.84C109.56 28.14 107.66 29.76 105.17 29.76C102.68 29.76 100.8 28.14 100.8 25.84C100.8 23.56 102.68 21.92 105.17 21.92C107.66 21.92 109.56 23.56 109.56 25.84ZM103.01 25.84C103.01 27.09 103.94 27.8101 105.17 27.8101C106.4 27.8101 107.33 27.08 107.33 25.84C107.33 24.6 106.4 23.87 105.17 23.87C103.94 23.87 103.01 24.6 103.01 25.84ZM113.33 20.85V36.8199H111.05V20.85H113.33Z" fill="#10376D"/>
<path d="M132.63 33H126.54V36.8H124.26V33H118.21V31.17H132.63V33ZM131.85 24.3H118.9V22.52H124.26V20.84H126.54V22.52H131.85V24.3ZM125.4 24.9301C128.81 24.9301 130.86 25.9201 130.86 27.6801C130.86 29.4301 128.8 30.41 125.4 30.41C121.99 30.41 119.95 29.4201 119.95 27.6801C119.95 25.9101 121.99 24.9301 125.4 24.9301ZM125.4 26.62C123.32 26.62 122.32 26.93 122.32 27.67C122.32 28.38 123.32 28.71 125.4 28.71C127.47 28.71 128.49 28.38 128.49 27.67C128.49 26.93 127.47 26.62 125.4 26.62Z" fill="#10376D"/>
<path d="M141.34 22.51C141.34 27.39 139.7 31.36 134.04 34.09L132.85 32.29C136.91 30.34 138.68 27.8499 139 24.3199H133.69V22.5H141.34V22.51ZM146.08 20.85V36.77H143.78V20.85H146.08Z" fill="#10376D"/>
<path d="M161.65 28.28V29.35H147.6V28.28H161.65ZM150.71 35.35H160.39V36.37H149.31V32.9301H158.51V31.63H149.28V30.61H159.91V33.91H150.71V35.35ZM158.46 22.52H149.37V21.52H159.86V24.75H150.8V26.08H160.14V27.1H149.4V23.78H158.46V22.52Z" fill="black"/>
<path d="M170.11 28.73C167.79 28.73 166.12 27.31 166.12 25.25C166.12 23.19 167.8 21.78 170.11 21.78C172.43 21.78 174.12 23.2 174.12 25.25C174.12 27.31 172.43 28.73 170.11 28.73ZM170.11 27.5699C171.63 27.5699 172.74 26.6 172.74 25.25C172.74 23.9 171.63 22.9301 170.11 22.9301C168.61 22.9301 167.48 23.9 167.48 25.25C167.48 26.6 168.61 27.5699 170.11 27.5699ZM169.09 35.28C171.06 35.28 172.32 35.23 173.88 34.95L174.02 36.02C172.29 36.33 170.93 36.37 168.66 36.37H167.73V32.55H171.45V31.08H167.7V30.01H172.83V33.59H169.1V35.28H169.09ZM173.48 30.01H178.46V36.48H177.06V31.15H173.48V30.01ZM178.46 21.09V29.3H177.04V21.09H178.46Z" fill="black"/>
<path d="M193.14 21.0699V36.61H191.72V28.14H188.35C188.21 31.18 186.67 33.08 184.51 33.08C182.25 33.08 180.64 30.97 180.64 27.67C180.64 24.37 182.25 22.26 184.51 22.26C186.6 22.26 188.12 24.08 188.35 26.98H191.72V21.0699H193.14ZM187.02 27.6801C187.02 25.1701 185.98 23.55 184.51 23.55C183.02 23.55 181.99 25.1701 181.99 27.6801C181.99 30.2001 183.03 31.83 184.51 31.83C185.98 31.83 187.02 30.2001 187.02 27.6801Z" fill="black"/>
<path d="M209.03 33.4301V34.59H194.97V33.4301H201.26V30.09H196.63V22.17H198.03V24.9399H205.95V22.17H207.33V30.09H202.7V33.4301H209.03ZM198.03 28.96H205.95V26.11H198.03V28.96Z" fill="black"/>
<path d="M214.18 25.45C214.18 27.94 215.34 30.5701 217.38 31.8101L216.57 32.92C215.1 32.02 214.06 30.38 213.51 28.49C212.96 30.55 211.83 32.31 210.29 33.26L209.41 32.1899C211.54 30.9499 212.82 28.16 212.82 25.5V22.54H214.19V25.45H214.18ZM218.26 21.42H219.59V35.8199H218.26V27.8199H215.7V26.64H218.26V21.42ZM222.75 21.0699V36.58H221.4V21.0699H222.75Z" fill="black"/>
<path d="M238.26 33.42V34.6H224.17V33.42H227.63V29.24C226.33 28.57 225.56 27.44 225.56 26.04C225.56 23.62 227.91 22.0601 231.2 22.0601C234.5 22.0601 236.84 23.62 236.84 26.04C236.84 27.44 236.08 28.55 234.8 29.22V33.42H238.26ZM226.92 26.03C226.92 27.76 228.7 28.9 231.19 28.9C233.68 28.9 235.48 27.76 235.48 26.03C235.48 24.3 233.68 23.16 231.19 23.16C228.7 23.16 226.92 24.3 226.92 26.03ZM229.05 33.42H233.37V29.77C232.71 29.93 231.97 30.01 231.19 30.01C230.43 30.01 229.69 29.92 229.05 29.77V33.42Z" fill="black"/>
<path d="M239.15 34.33C239.15 33.62 239.67 33.1 240.29 33.1C240.91 33.1 241.43 33.62 241.43 34.33C241.43 35.04 240.91 35.52 240.29 35.52C239.67 35.52 239.15 35.04 239.15 34.33Z" fill="black"/>
</svg>
