<svg width="150" height="72" viewBox="0 0 150 72" fill="none" xmlns="http://www.w3.org/2000/svg">
<path d="M25.72 60.4099C30.07 60.3799 33.87 60.17 38.22 59.47L38.55 62.02C33.84 62.84 29.73 62.99 24.89 62.99H22.55V52.1001H32.13V47H22.49V44.45H35.29V54.6399H25.71V60.4099H25.72ZM43.66 41.95V69.53H40.5V41.95H43.66Z" fill="black"/>
<path d="M71.5799 60.3799H65.5899V69.5H62.4599V60.3799H55.7999V69.5H52.6399V60.3799H46.6799V57.8601H71.5899V60.3799H71.5799ZM68.5099 54.9099H49.6899V43.0801H52.8199V46.46H65.3799V43.0801H68.5099V54.9099ZM65.3799 48.95H52.8199V52.3601H65.3799V48.95Z" fill="black"/>
<path d="M22.49 31.5601V3.77002H33.76C35.26 3.77002 36.61 4.03005 37.8 4.55005C39 5.07005 39.96 5.75989 40.69 6.63989C41.42 7.50989 41.97 8.48005 42.35 9.55005C42.73 10.61 42.92 11.7299 42.92 12.8999C42.92 15.0099 42.34 16.9 41.19 18.54C40.04 20.19 38.35 21.25 36.15 21.72L42.89 31.5701H35.95L29.73 21.98H28.39V31.5701H22.49V31.5601ZM28.38 16.79H33.39C34.47 16.79 35.33 16.3901 35.96 15.5901C36.59 14.7901 36.91 13.8899 36.91 12.8899C36.91 11.9199 36.61 11.02 36.01 10.2C35.41 9.37995 34.59 8.96997 33.55 8.96997H28.38V16.79V16.79Z" fill="#10376D"/>
<path d="M46.85 27.26C45.96 25.75 45.52 24.0301 45.52 22.1101C45.52 20.1901 45.96 18.48 46.85 16.97C47.74 15.46 48.92 14.31 50.42 13.51C51.91 12.71 53.55 12.3101 55.35 12.3101C56.68 12.3101 57.93 12.55 59.11 13.04C60.29 13.53 61.32 14.2 62.18 15.05C63.05 15.9 63.73 16.9499 64.24 18.1899C64.75 19.4299 65 20.78 65 22.24C65 22.74 64.97 23.32 64.92 23.97H51.11C51.24 24.99 51.77 25.7801 52.69 26.3301C53.61 26.8801 54.64 27.1599 55.75 27.1599C56.56 27.1599 57.34 27.01 58.08 26.7C58.82 26.39 59.42 25.9501 59.86 25.3601L63.94 28.1499C63.06 29.4499 61.84 30.41 60.3 31.02C58.75 31.63 57.09 31.9399 55.34 31.9399C53.54 31.9399 51.89 31.54 50.41 30.73C48.92 29.94 47.73 28.78 46.85 27.26ZM51.19 20.47H59.34C59.21 19.45 58.75 18.6699 57.95 18.1499C57.16 17.6199 56.3 17.3601 55.38 17.3601C54.46 17.3601 53.59 17.6199 52.76 18.1299C51.94 18.6399 51.41 19.42 51.19 20.47Z" fill="#10376D"/>
<path d="M66.04 12.73H72.01L76.4 24.4299L80.7701 12.73H86.78L78.78 31.5601H74L66.04 12.73Z" fill="#10376D"/>
<path d="M89.77 8.08008C89.08 7.44008 88.73 6.65999 88.73 5.73999C88.73 4.81999 89.08 4.04992 89.77 3.41992C90.46 2.78992 91.28 2.46997 92.24 2.46997C93.19 2.46997 93.99 2.78992 94.66 3.41992C95.33 4.04992 95.66 4.82999 95.66 5.73999C95.66 6.65999 95.33 7.44008 94.66 8.08008C93.99 8.72008 93.18 9.04004 92.24 9.04004C91.28 9.05004 90.46 8.72008 89.77 8.08008ZM89.46 31.5601V12.73H95.03V31.5601H89.46Z" fill="#10376D"/>
<path d="M100.38 27.26C99.4901 25.75 99.05 24.0301 99.05 22.1101C99.05 20.1901 99.4901 18.48 100.38 16.97C101.27 15.46 102.45 14.31 103.94 13.51C105.43 12.71 107.07 12.3101 108.87 12.3101C110.2 12.3101 111.45 12.55 112.63 13.04C113.81 13.53 114.84 14.2 115.7 15.05C116.57 15.9 117.25 16.9499 117.76 18.1899C118.27 19.4299 118.52 20.78 118.52 22.24C118.52 22.74 118.49 23.32 118.44 23.97H104.63C104.76 24.99 105.29 25.7801 106.22 26.3301C107.15 26.8801 108.17 27.1599 109.28 27.1599C110.09 27.1599 110.87 27.01 111.61 26.7C112.35 26.39 112.95 25.9501 113.39 25.3601L117.47 28.1499C116.59 29.4499 115.38 30.41 113.83 31.02C112.28 31.63 110.63 31.9399 108.87 31.9399C107.07 31.9399 105.43 31.54 103.94 30.73C102.46 29.94 101.27 28.78 100.38 27.26ZM104.72 20.47H112.87C112.74 19.45 112.28 18.6699 111.48 18.1499C110.69 17.6199 109.83 17.3601 108.91 17.3601C107.99 17.3601 107.12 17.6199 106.29 18.1299C105.47 18.6399 104.95 19.42 104.72 20.47Z" fill="#10376D"/>
<path d="M119.85 12.73H125.82L129.17 23.9399L132.48 12.73H137.28L140.59 23.9399L143.94 12.73H149.91L143.29 31.5601H138.62L134.9 19.5801L131.36 31.5601H126.67L119.85 12.73Z" fill="#10376D"/>
<path d="M2.48999 0V72" stroke="#10376D" stroke-width="4" stroke-miterlimit="10"/>
</svg>
