<svg width="533" height="73" viewBox="0 0 533 73" fill="none" xmlns="http://www.w3.org/2000/svg">
<path d="M7.67797 19.97C5.06797 19.97 3.23797 17.15 3.23797 12.77C3.23797 8.42 5.06797 5.6 7.67797 5.6C10.258 5.6 12.088 8.42 12.088 12.77C12.088 17.15 10.258 19.97 7.67797 19.97ZM7.67797 3.38C3.71797 3.38 0.897969 7.04 0.897969 12.77C0.897969 18.5 3.71797 22.16 7.67797 22.16C11.638 22.16 14.428 18.5 14.428 12.77C14.428 7.04 11.638 3.38 7.67797 3.38ZM25.648 12.05H21.208V1.34H18.748V28.22H21.208V14.12H25.648V12.05ZM37.0156 19.04H31.3756V6.38H37.0156V19.04ZM43.2856 11.45H39.2956V4.43H29.0656V20.99H39.2956V13.49H43.2856V26.87H45.6256V1.91H43.2856V11.45ZM48.6256 1.31V28.19H50.9656V1.31H48.6256ZM59.7233 13.43H69.6533V3.8H57.1733V5.81H67.1633V11.42H57.2633V21.74H59.4833C64.1033 21.74 68.1833 21.56 73.0433 20.75L72.8033 18.74C68.0933 19.49 64.1333 19.7 59.7233 19.7V13.43ZM75.3233 1.28V28.25H77.7833V1.28H75.3233ZM106.281 9.05C101.421 8.51 96.7409 5.81 96.7409 2.51V1.49H94.2209V2.51C94.2209 5.81 89.5109 8.51 84.6209 9.05L85.4609 10.91C89.7209 10.34 93.7709 8.45 95.4809 5.54C97.1609 8.45 101.181 10.34 105.441 10.91L106.281 9.05ZM88.7009 23.27H104.511V17.09H86.2109V18.95H102.081V21.47H86.3009V27.92H105.321V26H88.7009V23.27ZM83.2709 12.62V14.6H107.631V12.62H83.2709ZM127.249 12.68C122.989 13.37 119.479 13.52 114.709 13.52V9.89H124.459V2.63H112.219V4.61H122.029V8H112.309V15.53H114.469C119.449 15.53 123.109 15.38 127.519 14.66L127.249 12.68ZM130.549 25.85H117.979V22.55H130.549V25.85ZM130.549 20.63H117.979V17.45H115.549V27.86H132.979V17.45H130.549V20.63ZM130.519 1.34V16.1H132.979V1.34H130.519ZM150.646 3.62C155.056 3.62 157.576 4.64 157.576 6.44C157.576 8.24 155.056 9.26 150.646 9.26C146.236 9.26 143.716 8.24 143.716 6.44C143.716 4.64 146.236 3.62 150.646 3.62ZM150.646 11.09C156.556 11.09 160.096 9.47 160.096 6.44C160.096 3.41 156.556 1.76 150.646 1.76C144.736 1.76 141.196 3.41 141.196 6.44C141.196 9.47 144.736 11.09 150.646 11.09ZM143.896 23.27H159.706V17.21H141.406V19.07H157.276V21.47H141.496V27.92H160.516V26H143.896V23.27ZM138.466 12.92V14.9H162.826V12.92H138.466ZM184.953 26.33C180.633 26.33 178.203 25.49 178.203 23.87C178.203 22.28 180.633 21.41 184.953 21.41C189.303 21.41 191.703 22.28 191.703 23.87C191.703 25.49 189.303 26.33 184.953 26.33ZM184.953 19.58C179.103 19.58 175.743 21.08 175.743 23.87C175.743 26.69 179.103 28.19 184.953 28.19C190.803 28.19 194.163 26.69 194.163 23.87C194.163 21.08 190.803 19.58 184.953 19.58ZM186.183 15.56V12.92H194.283V11H178.443V8.36H193.413V6.5H178.443V4.01H194.133V2.09H175.983V12.92H183.723V15.56H172.773V17.54H197.133V15.56H186.183ZM207.061 19.94C204.961 19.94 203.491 18.23 203.491 15.83C203.491 13.49 204.961 11.78 207.061 11.78C209.131 11.78 210.631 13.49 210.631 15.83C210.631 18.23 209.131 19.94 207.061 19.94ZM207.061 9.71C203.731 9.71 201.301 12.23 201.301 15.83C201.301 19.49 203.731 21.98 207.061 21.98C210.391 21.98 212.821 19.49 212.821 15.83C212.821 12.23 210.391 9.71 207.061 9.71ZM208.261 2.09H205.831V5.9H200.371V7.91H213.721V5.9H208.261V2.09ZM220.831 1.28V12.65H217.381V1.91H215.071V26.9H217.381V14.66H220.831V28.19H223.201V1.28H220.831ZM372.785 50.02H357.065V55.78H375.695V54.01H359.495V51.7H375.215V46.09H357.005V47.83H372.785V50.02ZM359.345 67.6H375.305V61.87H356.855V63.64H372.875V65.89H356.915V71.86H376.145V70.09H359.345V67.6ZM353.945 57.82V59.68H378.335V57.82H353.945ZM391.252 52.57C391.252 50.23 393.202 48.55 395.812 48.55C398.452 48.55 400.372 50.23 400.372 52.57C400.372 54.91 398.452 56.59 395.812 56.59C393.202 56.59 391.252 54.91 391.252 52.57ZM402.772 52.57C402.772 49 399.832 46.54 395.812 46.54C391.792 46.54 388.882 49 388.882 52.57C388.882 56.14 391.792 58.6 395.812 58.6C399.832 58.6 402.772 56.14 402.772 52.57ZM394.042 67.03H400.522V60.82H391.612V62.68H398.122V65.23H391.672V71.86H393.292C397.222 71.86 399.592 71.8 402.592 71.26L402.352 69.4C399.652 69.88 397.462 69.97 394.042 69.97V67.03ZM401.662 62.8H407.872V72.04H410.302V60.82H401.662V62.8ZM407.842 45.34V59.59H410.302V45.34H407.842ZM423.05 63.97C420.47 63.97 418.67 61.15 418.67 56.77C418.67 52.42 420.47 49.6 423.05 49.6C425.6 49.6 427.4 52.42 427.4 56.77C427.4 61.15 425.6 63.97 423.05 63.97ZM435.56 45.31V55.57H429.71C429.32 50.53 426.68 47.38 423.05 47.38C419.12 47.38 416.33 51.04 416.33 56.77C416.33 62.5 419.12 66.16 423.05 66.16C426.8 66.16 429.47 62.86 429.71 57.58H435.56V72.28H438.02V45.31H435.56ZM448.757 54.04H462.497V58.99H448.757V54.04ZM456.857 66.76V60.97H464.897V47.23H462.497V52.03H448.757V47.23H446.327V60.97H454.367V66.76H443.447V68.77H467.837V66.76H456.857ZM479.025 47.86H476.655V52.99C476.655 57.61 474.435 62.44 470.745 64.6L472.275 66.46C474.945 64.81 476.895 61.75 477.855 58.18C478.815 61.45 480.615 64.3 483.165 65.86L484.575 63.94C481.035 61.78 479.025 57.22 479.025 52.9V47.86ZM486.105 54.97H481.665V57.01H486.105V70.9H488.415V45.91H486.105V54.97ZM491.565 45.31V72.22H493.905V45.31H491.565ZM507.073 60.4C508.183 60.67 509.473 60.82 510.793 60.82C512.143 60.82 513.433 60.67 514.573 60.4V66.73H507.073V60.4ZM510.793 48.94C515.113 48.94 518.233 50.92 518.233 53.92C518.233 56.92 515.113 58.9 510.793 58.9C506.473 58.9 503.383 56.92 503.383 53.92C503.383 50.92 506.473 48.94 510.793 48.94ZM517.033 66.73V59.44C519.253 58.27 520.573 56.35 520.573 53.92C520.573 49.72 516.523 47.02 510.793 47.02C505.093 47.02 501.013 49.72 501.013 53.92C501.013 56.35 502.363 58.3 504.613 59.47V66.73H498.613V68.77H523.063V66.73H517.033ZM528.82 70.39C529.9 70.39 530.8 69.55 530.8 68.32C530.8 67.09 529.9 66.19 528.82 66.19C527.74 66.19 526.84 67.09 526.84 68.32C526.84 69.55 527.74 70.39 528.82 70.39Z" fill="black"/>
<path d="M235.847 26H243.767C248.657 26 252.377 23.93 252.377 19.46C252.377 16.46 250.607 14.78 248.207 14.21V14.06C250.097 13.4 251.237 11.3 251.237 9.26C251.237 5.12 247.757 3.8 243.197 3.8H235.847V26ZM240.287 12.83V7.19H242.927C245.597 7.19 246.917 7.97 246.917 9.92C246.917 11.69 245.687 12.83 242.867 12.83H240.287ZM240.287 22.58V16.13H243.377C246.437 16.13 248.057 17.03 248.057 19.19C248.057 21.5 246.407 22.58 243.377 22.58H240.287ZM263.197 26.42C265.297 26.42 267.427 25.7 269.077 24.56L267.577 21.86C266.377 22.61 265.177 23.03 263.797 23.03C261.307 23.03 259.507 21.59 259.147 18.83H269.497C269.617 18.44 269.707 17.63 269.707 16.82C269.707 12.17 267.307 8.78 262.687 8.78C258.667 8.78 254.857 12.17 254.857 17.63C254.857 23.15 258.517 26.42 263.197 26.42ZM259.087 15.92C259.417 13.46 260.977 12.2 262.747 12.2C264.907 12.2 265.927 13.64 265.927 15.92H259.087ZM279.137 26.42C280.607 26.42 281.777 26.09 282.677 25.79L281.957 22.58C281.507 22.76 280.847 22.94 280.307 22.94C278.807 22.94 278.027 22.04 278.027 20.12V12.68H282.167V9.2H278.027V4.7H274.337L273.827 9.2L271.247 9.41V12.68H273.617V20.12C273.617 23.9 275.147 26.42 279.137 26.42ZM291.032 26.42C292.502 26.42 293.672 26.09 294.572 25.79L293.852 22.58C293.402 22.76 292.742 22.94 292.202 22.94C290.702 22.94 289.922 22.04 289.922 20.12V12.68H294.062V9.2H289.922V4.7H286.232L285.722 9.2L283.142 9.41V12.68H285.512V20.12C285.512 23.9 287.042 26.42 291.032 26.42ZM304.213 26.42C306.313 26.42 308.443 25.7 310.093 24.56L308.593 21.86C307.393 22.61 306.193 23.03 304.813 23.03C302.323 23.03 300.523 21.59 300.163 18.83H310.513C310.633 18.44 310.723 17.63 310.723 16.82C310.723 12.17 308.323 8.78 303.703 8.78C299.683 8.78 295.873 12.17 295.873 17.63C295.873 23.15 299.533 26.42 304.213 26.42ZM300.103 15.92C300.433 13.46 301.993 12.2 303.763 12.2C305.923 12.2 306.943 13.64 306.943 15.92H300.103ZM314.354 26H318.734V15.98C319.694 13.55 321.284 12.68 322.604 12.68C323.294 12.68 323.774 12.77 324.344 12.95L325.124 9.14C324.614 8.93 324.074 8.78 323.144 8.78C321.404 8.78 319.604 9.98 318.374 12.17H318.254L317.954 9.2H314.354V26ZM341.208 26.42C346.338 26.42 349.368 23.33 349.368 19.7C349.368 16.49 347.598 14.78 344.898 13.67L341.988 12.44C340.098 11.69 338.508 11.12 338.508 9.53C338.508 8.06 339.768 7.19 341.718 7.19C343.548 7.19 345.018 7.85 346.428 9.02L348.678 6.23C346.878 4.4 344.298 3.38 341.718 3.38C337.218 3.38 334.038 6.17 334.038 9.8C334.038 13.04 336.288 14.84 338.538 15.77L341.508 17.03C343.488 17.87 344.838 18.38 344.838 20.03C344.838 21.59 343.608 22.58 341.298 22.58C339.348 22.58 337.248 21.59 335.658 20.12L333.108 23.18C335.268 25.25 338.238 26.42 341.208 26.42ZM357.078 26.42C358.098 26.42 358.848 26.24 359.358 26.03L358.818 22.76C358.518 22.82 358.398 22.82 358.218 22.82C357.798 22.82 357.318 22.49 357.318 21.5V2.06H352.938V21.29C352.938 24.41 354.018 26.42 357.078 26.42ZM369.691 26.42C371.791 26.42 373.921 25.7 375.571 24.56L374.071 21.86C372.871 22.61 371.671 23.03 370.291 23.03C367.801 23.03 366.001 21.59 365.641 18.83H375.991C376.111 18.44 376.201 17.63 376.201 16.82C376.201 12.17 373.801 8.78 369.181 8.78C365.161 8.78 361.351 12.17 361.351 17.63C361.351 23.15 365.011 26.42 369.691 26.42ZM365.581 15.92C365.911 13.46 367.471 12.2 369.241 12.2C371.401 12.2 372.421 13.64 372.421 15.92H365.581ZM387.123 26.42C389.223 26.42 391.353 25.7 393.003 24.56L391.503 21.86C390.303 22.61 389.103 23.03 387.723 23.03C385.233 23.03 383.433 21.59 383.073 18.83H393.423C393.543 18.44 393.633 17.63 393.633 16.82C393.633 12.17 391.233 8.78 386.613 8.78C382.593 8.78 378.783 12.17 378.783 17.63C378.783 23.15 382.443 26.42 387.123 26.42ZM383.013 15.92C383.343 13.46 384.903 12.2 386.673 12.2C388.833 12.2 389.853 13.64 389.853 15.92H383.013ZM397.265 32.45H401.645V27.35L401.525 24.59C402.815 25.76 404.225 26.42 405.695 26.42C409.385 26.42 412.835 23.09 412.835 17.33C412.835 12.17 410.375 8.78 406.235 8.78C404.435 8.78 402.695 9.74 401.285 10.94H401.165L400.865 9.2H397.265V32.45ZM404.705 22.79C403.805 22.79 402.725 22.46 401.645 21.53V14.15C402.815 12.98 403.835 12.41 404.975 12.41C407.285 12.41 408.305 14.18 408.305 17.39C408.305 21.05 406.745 22.79 404.705 22.79ZM427.971 4.25C431.991 4.25 433.881 4.82 433.881 6.05C433.881 7.34 431.991 7.88 427.971 7.88C423.981 7.88 422.091 7.34 422.091 6.05C422.091 4.82 423.981 4.25 427.971 4.25ZM427.971 10.76C434.301 10.76 437.991 9.11 437.991 6.05C437.991 3.02 434.301 1.34 427.971 1.34C421.671 1.34 417.981 3.02 417.981 6.05C417.981 9.11 421.671 10.76 427.971 10.76ZM422.301 23.84H437.421V16.73H418.341V19.64H433.521V21.11H418.371V28.37H438.141V25.4H422.301V23.84ZM415.491 12.08V15.17H440.451V12.08H415.491ZM470.637 8.48V11.03H464.547V14.21H470.637V16.85H474.597V0.949999H470.637V5.33H465.687C465.807 4.52 465.867 3.68 465.867 2.81H453.207V5.99H461.547C461.037 9.74 458.007 12.71 451.707 14.39L453.237 17.51C459.327 15.8 463.197 12.83 464.907 8.48H470.637ZM465.477 25.37C462.057 25.37 460.047 24.5 460.047 22.82C460.047 21.14 462.057 20.27 465.477 20.27C468.867 20.27 470.877 21.14 470.877 22.82C470.877 24.5 468.867 25.37 465.477 25.37ZM465.477 17.21C459.837 17.21 456.147 19.37 456.147 22.82C456.147 26.27 459.837 28.43 465.477 28.43C471.087 28.43 474.777 26.27 474.777 22.82C474.777 19.37 471.087 17.21 465.477 17.21ZM495.325 3.38H489.205V0.739998H485.245V3.38H479.155V6.47H495.325V3.38ZM484.405 12.35C484.405 11.03 485.575 10.31 487.255 10.31C488.935 10.31 490.105 11.03 490.105 12.35C490.105 13.7 488.935 14.42 487.255 14.42C485.575 14.42 484.405 13.7 484.405 12.35ZM493.885 12.35C493.885 9.41 491.125 7.4 487.255 7.4C483.385 7.4 480.625 9.41 480.625 12.35C480.625 15.29 483.385 17.33 487.255 17.33C491.125 17.33 493.885 15.29 493.885 12.35ZM487.705 21.92H498.325V25.16H487.705V21.92ZM483.805 28.25H502.195V18.8H483.805V28.25ZM498.235 0.949999V9.02H494.785V12.23H498.235V17.63H502.195V0.949999H498.235ZM522.982 3.86H516.802V0.919999H512.812V3.86H506.692V6.95H522.952L522.982 3.86ZM511.822 13.25C511.822 11.75 513.052 10.94 514.822 10.94C516.562 10.94 517.822 11.75 517.822 13.25C517.822 14.78 516.562 15.59 514.822 15.59C513.052 15.59 511.822 14.78 511.822 13.25ZM521.602 13.25C521.602 10.13 518.782 7.94 514.822 7.94C510.862 7.94 508.042 10.13 508.042 13.25C508.042 16.43 510.862 18.59 514.822 18.59C518.782 18.59 521.602 16.43 521.602 13.25ZM514.582 20.09H510.622V28.1H529.432V24.95H514.582V20.09ZM528.442 9.38V0.949999H524.482V21.62H528.442V12.65H532.102V9.38H528.442ZM163.835 47.08H159.845V51.1C159.845 56.23 157.745 61.51 153.095 63.7L155.465 66.91C158.585 65.38 160.655 62.47 161.855 58.96C162.995 62.26 164.945 64.93 167.825 66.4L170.225 63.28C165.785 61.09 163.835 56.08 163.835 51.1V47.08ZM179.315 55.57H175.295V44.95H171.335V72.58H175.295V58.87H179.315V55.57ZM193.683 69.61C189.993 69.61 188.103 68.98 188.103 67.57C188.103 66.16 189.993 65.56 193.683 65.56C197.373 65.56 199.263 66.16 199.263 67.57C199.263 68.98 197.373 69.61 193.683 69.61ZM193.683 62.56C187.713 62.56 184.113 64.36 184.113 67.57C184.113 70.78 187.713 72.61 193.683 72.61C199.653 72.61 203.283 70.78 203.283 67.57C203.283 64.36 199.653 62.56 193.683 62.56ZM190.833 55.75C191.733 55.87 192.693 55.93 193.743 55.93C194.763 55.93 195.723 55.87 196.593 55.78V58.06H190.833V55.75ZM193.743 48.37C197.523 48.37 199.683 49.12 199.683 50.68C199.683 52.18 197.523 52.96 193.743 52.96C189.993 52.96 187.833 52.18 187.833 50.68C187.833 49.12 189.993 48.37 193.743 48.37ZM200.553 58.06V54.76C202.593 53.86 203.763 52.48 203.763 50.68C203.763 47.38 199.863 45.37 193.743 45.37C187.653 45.37 183.753 47.38 183.753 50.68C183.753 52.45 184.893 53.83 186.873 54.73V58.06H181.263V61.18H206.223V58.06H200.553ZM219 50.86H224.49V47.59H209.31V50.86H215.04V52.39C215.04 56.95 212.79 62.14 208.26 64.24L210.48 67.39C213.63 65.89 215.85 62.86 217.08 59.26C218.31 62.53 220.47 65.29 223.53 66.7L225.72 63.58C221.19 61.48 219 56.59 219 52.39V50.86ZM234.51 55.48H230.49V44.95H226.53V72.58H230.49V58.75H234.51V55.48ZM258.508 51.07H243.508V48.64H258.298V45.49H239.578V54.19H258.508V51.07ZM243.268 67.66H258.388V60.34H239.308V63.31H254.488V64.87H239.338V72.34H259.108V69.31H243.268V67.66ZM236.488 55.66V58.78H261.478V55.66H236.488ZM272.936 46.78C268.616 46.78 265.346 49.63 265.346 53.59C265.346 57.58 268.616 60.4 272.936 60.4C277.256 60.4 280.556 57.58 280.556 53.59C280.556 49.63 277.256 46.78 272.936 46.78ZM272.936 50.17C275.066 50.17 276.686 51.43 276.686 53.59C276.686 55.75 275.066 57.01 272.936 57.01C270.806 57.01 269.186 55.75 269.186 53.59C269.186 51.43 270.806 50.17 272.936 50.17ZM283.136 44.92V72.64H287.096V44.92H283.136ZM264.686 67.03C269.456 67.03 275.936 66.97 281.876 65.77L281.636 62.92C275.816 63.79 269.036 63.82 264.176 63.82L264.686 67.03ZM322.12 47.83H312.91V44.92H308.95V47.83H299.65V50.92H322.12V47.83ZM316.3 56.77C316.3 58 314.53 58.57 310.93 58.57C307.33 58.57 305.59 58 305.59 56.77C305.59 55.48 307.33 54.94 310.93 54.94C314.53 54.94 316.3 55.48 316.3 56.77ZM301.48 56.77C301.48 59.8 305.02 61.51 310.93 61.51C316.84 61.51 320.41 59.8 320.41 56.77C320.41 53.71 316.84 52 310.93 52C305.02 52 301.48 53.71 301.48 56.77ZM323.47 62.83H298.45V66.01H308.95V72.61H312.91V66.01H323.47V62.83ZM327.578 47.8V50.95H336.788C336.218 57.07 333.158 61.39 326.108 64.78L328.178 67.9C337.988 63.16 340.838 56.26 340.838 47.8H327.578ZM345.068 44.92V72.55H349.058V44.92H345.068Z" fill="#10376D"/>
</svg>
