<svg width="337" height="72" viewBox="0 0 337 72" fill="none" xmlns="http://www.w3.org/2000/svg">
<path d="M37.54 45.5499C37.54 53.7299 34.25 60.6599 24.83 65.2299L23.16 62.7399C30.37 59.2699 33.77 54.4399 34.32 48.1099H24.53V45.5599H37.54V45.5499ZM45.63 42.6599V70.1199H42.5V42.6599H45.63Z" fill="black"/>
<path d="M62.63 56.28V58.59H70.39V65.22H54.76V67.47H71.18V69.87H51.66V63H67.32V60.96H51.6V58.59H59.48V56.28H48.65V53.79H73.53V56.28H62.63ZM71.15 52.3C66.59 51.75 62.85 49.87 61.08 47.13C59.32 49.87 55.58 51.75 51.01 52.3L49.95 49.9C55.45 49.35 59.47 46.65 59.47 43.57V42.78H62.69V43.57C62.69 46.64 66.7 49.35 72.21 49.9L71.15 52.3Z" fill="black"/>
<path d="M22 3.12012H28.38L33.78 20.6301C34.48 18.1701 35.71 13.6401 37.48 7.0401H42.33L46.01 20.6301L51.45 3.12012H57.87L48.42 30.9101H43.79L39.87 16.3201L36.05 30.9101H31.36L22 3.12012Z" fill="#10376D"/>
<path d="M60.35 30.91V1.82007H65.92V15.0801C66.16 14.3301 66.6 13.69 67.23 13.16C67.87 12.63 68.53 12.2401 69.21 12.0201C69.89 11.7901 70.56 11.6801 71.2 11.6801C73.65 11.6801 75.51 12.4601 76.79 14.0201C78.07 15.5801 78.71 17.8001 78.71 20.6801V30.92H73.14V20.9501C73.14 19.8001 72.79 18.9 72.09 18.23C71.39 17.56 70.58 17.23 69.66 17.23C68.63 17.23 67.75 17.5401 67.02 18.1501C66.28 18.7601 65.91 19.7201 65.91 21.0201V30.92H60.35V30.91Z" fill="#10376D"/>
<path d="M80.99 12.0801H86.96L91.12 22.7601L95.32 12.0801H101.29L89.67 40.1501H83.74L88.27 28.98L80.99 12.0801Z" fill="#10376D"/>
<path d="M108.82 30.9101L119.14 3.12012H125.56L135.84 30.9101H129.62L127.18 24.3301H117.57L115.11 30.9101H108.82ZM119.5 19.2101H125.27L122.33 9.5401L119.5 19.2101Z" fill="#10376D"/>
<path d="M138.21 30.91V12.0801H143.78V14.7601C144.22 13.8201 144.89 13.0701 145.8 12.5201C146.71 11.9701 147.68 11.7001 148.72 11.7001C151.69 11.7001 153.69 12.7801 154.74 14.9501C156.11 12.7601 157.99 11.66 160.4 11.66C162.68 11.66 164.45 12.3901 165.73 13.8401C167 15.2901 167.64 17.4101 167.64 20.2101V30.91H162.1V20.79C162.1 19.6 161.8 18.6701 161.2 18.0101C160.6 17.3501 159.86 17.0201 158.98 17.0201C158.02 17.0201 157.24 17.3301 156.64 17.9601C156.04 18.5901 155.74 19.5601 155.74 20.8701V30.91H150.17V20.67C150.16 19.52 149.85 18.62 149.25 17.98C148.65 17.34 147.92 17.0201 147.07 17.0201C146.12 17.0201 145.34 17.3301 144.72 17.9401C144.1 18.5501 143.79 19.5301 143.79 20.8701V30.91H138.21Z" fill="#10376D"/>
<path d="M172.84 26.61C171.95 25.1 171.51 23.3801 171.51 21.4601C171.51 19.5401 171.95 17.8301 172.84 16.3201C173.73 14.8101 174.91 13.66 176.4 12.86C177.89 12.06 179.53 11.66 181.33 11.66C182.66 11.66 183.91 11.9001 185.09 12.3901C186.27 12.8801 187.3 13.5501 188.16 14.4001C189.03 15.2501 189.71 16.3 190.22 17.54C190.73 18.78 190.98 20.1301 190.98 21.5901C190.98 22.0901 190.95 22.6701 190.9 23.3201H177.09C177.22 24.3401 177.75 25.1301 178.68 25.6801C179.61 26.2301 180.63 26.5101 181.74 26.5101C182.55 26.5101 183.33 26.36 184.07 26.05C184.81 25.74 185.41 25.3001 185.85 24.7101L189.93 27.5001C189.05 28.8001 187.84 29.7601 186.29 30.3701C184.74 30.9801 183.09 31.29 181.33 31.29C179.53 31.29 177.89 30.8901 176.4 30.0801C174.92 29.2901 173.73 28.13 172.84 26.61ZM177.19 19.8201H185.34C185.21 18.8001 184.75 18.0201 183.95 17.5001C183.16 16.9701 182.3 16.7101 181.38 16.7101C180.46 16.7101 179.59 16.97 178.76 17.48C177.94 17.99 177.41 18.7701 177.19 19.8201Z" fill="#10376D"/>
<path d="M194.81 30.91V12.0801H200.38V16.5901C200.83 14.9701 201.55 13.75 202.57 12.92C203.59 12.09 204.62 11.67 205.7 11.67C206.96 11.67 208.04 11.9 208.93 12.36L207.93 17.3701C207.15 16.9901 206.2 16.8 205.05 16.8C203.45 16.8 202.27 17.4301 201.51 18.6801C200.75 19.9301 200.38 21.8101 200.38 24.3301V30.9301H194.81V30.91Z" fill="#10376D"/>
<path d="M212.18 7.43005C211.49 6.79005 211.14 6.01009 211.14 5.09009C211.14 4.17009 211.49 3.40008 212.18 2.77008C212.87 2.14008 213.69 1.82007 214.65 1.82007C215.6 1.82007 216.4 2.14008 217.07 2.77008C217.74 3.40008 218.07 4.18009 218.07 5.09009C218.07 6.01009 217.74 6.79005 217.07 7.43005C216.4 8.07005 215.59 8.39008 214.65 8.39008C213.69 8.40008 212.87 8.07005 212.18 7.43005ZM211.87 30.91V12.0801H217.44V30.91H211.87Z" fill="#10376D"/>
<path d="M221.47 24.8201H226.71C226.74 25.3501 227.02 25.8301 227.56 26.2401C228.1 26.6601 228.74 26.8601 229.49 26.8601C230.13 26.8301 230.68 26.6801 231.12 26.4001C231.57 26.1201 231.79 25.7501 231.79 25.2901C231.79 24.8801 231.65 24.5601 231.38 24.3201C231.1 24.0801 230.62 23.8701 229.94 23.7001L227.48 23.0501C226.4 22.7601 225.48 22.4001 224.72 21.9701C223.96 21.5401 223.39 21.1301 223.03 20.7501C222.66 20.3701 222.38 19.9101 222.18 19.3801C221.98 18.8501 221.87 18.4301 221.84 18.1201C221.81 17.8101 221.81 17.4201 221.82 16.9501C221.85 15.5601 222.59 14.3301 224.05 13.2501C225.51 12.1801 227.21 11.6401 229.17 11.6401C229.94 11.6401 230.69 11.7101 231.4 11.8501C232.11 11.9901 232.81 12.2102 233.48 12.5302C234.15 12.8502 234.73 13.2401 235.22 13.7101C235.71 14.1801 236.1 14.7801 236.4 15.4901C236.7 16.2101 236.86 17.0101 236.87 17.9001H231.62C231.59 16.7301 230.88 16.1501 229.47 16.1501C228.87 16.1501 228.38 16.2802 228.02 16.5302C227.66 16.7902 227.48 17.1201 227.5 17.5401C227.55 18.2201 228.11 18.6901 229.15 18.9601L232.34 19.8101C233.2 20.0501 233.95 20.3601 234.6 20.7401C235.24 21.1301 235.74 21.5201 236.09 21.9101C236.44 22.3001 236.71 22.7301 236.93 23.1901C237.14 23.6501 237.28 24.0401 237.34 24.3601C237.4 24.6801 237.43 24.9901 237.43 25.2701C237.43 26.2501 237.2 27.1301 236.73 27.9201C236.26 28.7101 235.63 29.3401 234.85 29.8201C234.07 30.2901 233.2 30.6601 232.25 30.9001C231.3 31.1501 230.32 31.2701 229.31 31.2701C228.53 31.2701 227.77 31.1801 227.02 31.0001C226.27 30.8201 225.56 30.5501 224.89 30.1901C224.22 29.8301 223.63 29.4001 223.12 28.8901C222.61 28.3901 222.2 27.7801 221.91 27.0701C221.63 26.4001 221.48 25.6401 221.47 24.8201Z" fill="#10376D"/>
<path d="M241.42 30.91V1.82007H246.99V30.91H241.42Z" fill="#10376D"/>
<path d="M252.38 26.61C251.49 25.1 251.05 23.3801 251.05 21.4601C251.05 19.5401 251.49 17.8301 252.38 16.3201C253.27 14.8101 254.45 13.66 255.94 12.86C257.43 12.06 259.07 11.66 260.87 11.66C262.2 11.66 263.45 11.9001 264.63 12.3901C265.81 12.8801 266.84 13.5501 267.7 14.4001C268.57 15.2501 269.25 16.3 269.76 17.54C270.27 18.78 270.52 20.1301 270.52 21.5901C270.52 22.0901 270.49 22.6701 270.44 23.3201H256.63C256.76 24.3401 257.29 25.1301 258.22 25.6801C259.15 26.2301 260.17 26.5101 261.28 26.5101C262.09 26.5101 262.87 26.36 263.61 26.05C264.35 25.74 264.95 25.3001 265.39 24.7101L269.47 27.5001C268.59 28.8001 267.38 29.7601 265.83 30.3701C264.28 30.9801 262.63 31.29 260.87 31.29C259.07 31.29 257.43 30.8901 255.94 30.0801C254.45 29.2901 253.26 28.13 252.38 26.61ZM256.72 19.8201H264.87C264.74 18.8001 264.28 18.0201 263.48 17.5001C262.69 16.9701 261.83 16.7101 260.91 16.7101C259.99 16.7101 259.12 16.97 258.29 17.48C257.47 17.99 256.94 18.7701 256.72 19.8201Z" fill="#10376D"/>
<path d="M274.55 26.61C273.66 25.1 273.22 23.3801 273.22 21.4601C273.22 19.5401 273.66 17.8301 274.55 16.3201C275.44 14.8101 276.62 13.66 278.12 12.86C279.61 12.06 281.25 11.66 283.05 11.66C284.38 11.66 285.63 11.9001 286.81 12.3901C287.99 12.8801 289.02 13.5501 289.88 14.4001C290.75 15.2501 291.43 16.3 291.94 17.54C292.45 18.78 292.7 20.1301 292.7 21.5901C292.7 22.0901 292.67 22.6701 292.62 23.3201H278.81C278.94 24.3401 279.47 25.1301 280.39 25.6801C281.31 26.2301 282.34 26.5101 283.45 26.5101C284.26 26.5101 285.04 26.36 285.78 26.05C286.52 25.74 287.12 25.3001 287.56 24.7101L291.64 27.5001C290.76 28.8001 289.54 29.7601 288 30.3701C286.45 30.9801 284.79 31.29 283.04 31.29C281.24 31.29 279.59 30.8901 278.11 30.0801C276.63 29.2901 275.44 28.13 274.55 26.61ZM278.9 19.8201H287.05C286.92 18.8001 286.46 18.0201 285.66 17.5001C284.87 16.9701 284.01 16.7101 283.09 16.7101C282.17 16.7101 281.3 16.97 280.47 17.48C279.65 17.99 279.12 18.7701 278.9 19.8201Z" fill="#10376D"/>
<path d="M296.53 40.1501V12.0801H302.1V14.4001C302.56 13.5501 303.3 12.8801 304.31 12.3901C305.32 11.9001 306.42 11.66 307.62 11.66C308.83 11.66 309.98 11.89 311.09 12.36C312.19 12.82 313.16 13.4701 313.99 14.3101C314.82 15.1501 315.49 16.17 315.99 17.41C316.49 18.64 316.74 19.98 316.74 21.42C316.74 22.89 316.49 24.2601 315.99 25.5101C315.49 26.7701 314.82 27.8101 313.99 28.6501C313.16 29.4901 312.19 30.14 311.09 30.6C309.99 31.07 308.83 31.3 307.62 31.3C306.41 31.3 305.3 31.0601 304.29 30.5801C303.28 30.1001 302.55 29.4301 302.1 28.5901V40.1501H296.53ZM302.22 21.5301C302.22 22.8801 302.64 23.9601 303.49 24.7701C304.34 25.5801 305.37 25.9901 306.57 25.9901C307.79 25.9901 308.82 25.5801 309.66 24.7501C310.5 23.9301 310.92 22.8501 310.92 21.5301C310.92 20.1801 310.5 19.0901 309.66 18.2501C308.82 17.4101 307.79 16.9901 306.57 16.9901C305.38 16.9901 304.35 17.4201 303.5 18.2701C302.65 19.1201 302.22 20.2101 302.22 21.5301Z" fill="#10376D"/>
<path d="M319.36 11.23C319.36 8.67004 320.14 6.62004 321.7 5.10004C323.26 3.57004 325.32 2.81006 327.86 2.81006C330.4 2.81006 332.46 3.51004 334.02 4.92004C335.58 6.33004 336.36 8.22004 336.36 10.6C336.36 12.51 335.87 14.1401 334.88 15.4901C333.89 16.8401 332.59 17.7601 330.96 18.2601C330.16 18.5001 329.62 18.8701 329.33 19.3801C329.05 19.8901 328.9 20.6401 328.9 21.6301L328.83 22.5201H323.29L323.19 21.6301C323.19 20.8801 323.2 20.3001 323.21 19.8901C323.22 19.4801 323.25 19.0001 323.31 18.4601C323.36 17.9101 323.45 17.48 323.57 17.17C323.69 16.86 323.86 16.5101 324.07 16.1201C324.28 15.7301 324.55 15.4001 324.87 15.1301C325.19 14.8601 325.58 14.58 326.03 14.3C326.49 14.02 327.03 13.74 327.65 13.48L329.25 12.79C329.57 12.61 329.84 12.4301 330.05 12.2601C330.26 12.0901 330.41 11.91 330.5 11.72C330.59 11.53 330.65 11.3601 330.67 11.2101C330.69 11.0601 330.7 10.8501 330.7 10.5901C330.7 9.97009 330.44 9.45009 329.91 9.03009C329.38 8.61009 328.71 8.40009 327.9 8.40009C327.04 8.40009 326.34 8.66006 325.81 9.19006C325.28 9.72006 325.01 10.4101 325.01 11.2801H319.36V11.23ZM322.66 27.91C322.66 26.95 323 26.1501 323.68 25.5201C324.36 24.8801 325.19 24.5601 326.15 24.5601C327.11 24.5601 327.94 24.8801 328.61 25.5201C329.28 26.1601 329.62 26.9601 329.62 27.9001C329.62 28.8701 329.28 29.6801 328.61 30.3201C327.94 30.9601 327.11 31.2801 326.15 31.2801C325.19 31.2801 324.36 30.9601 323.68 30.3201C323 29.6901 322.66 28.89 322.66 27.91Z" fill="#10376D"/>
<path d="M2.48999 0V72" stroke="#003581" stroke-width="4" stroke-miterlimit="10"/>
</svg>
